<?xml version="1.0" encoding="UTF-8"?>
<svg width="64px" height="71px" viewBox="0 0 64 71" version="1.1" xmlns="http://www.w3.org/2000/svg" xmlns:xlink="http://www.w3.org/1999/xlink">
    <!-- Generator: Sketch 64 (93537) - https://sketch.com -->
    <title>architecture (1)</title>
    <desc>Created with Sketch.</desc>
    <g id="官网页面" stroke="none" stroke-width="1" fill="none" fill-rule="evenodd">
        <g id="业务-设计" transform="translate(-934.000000, -2574.000000)">
            <g id="architecture-(1)" transform="translate(934.000000, 2574.000000)">
                <g id="分组" transform="translate(8.000000, 25.000000)" fill="#E4C487">
                    <polygon id="路径" points="17.5132891 5.99042911 6.69004674 40.9276564 0 45.8767123 0.0502238622 39.9189317 12.3744748 0.137348685 14.5569299 0.794821077"></polygon>
                    <polygon id="路径" points="33.3840295 0.794821077 35.5664846 0.137348685 47.9409594 40.0799223 47.9409594 45.8767123 41.2509127 40.9276564 41.1424748 40.5764041 30.4276704 5.99042911"></polygon>
                </g>
                <g id="分组" fill="#CBA766">
                    <path d="M51.869363,56.8366046 L53.4042227,58.5109646 C53.9823608,57.9894241 54.5502361,57.4384691 55.0930245,56.8705443 L53.4384321,55.3127107 C52.9344143,55.8399078 52.4064499,56.3535291 51.869363,56.8366046 Z" id="路径"></path>
                    <path d="M46.4585835,6.86148225 C45.1084543,6.17703101 43.6967483,5.5819544 42.2622361,5.09548492 L41.5255947,7.23708194 C42.8563385,7.68848036 44.1665568,8.24056665 45.4208998,8.87637094 L46.4585835,6.86148225 Z" id="路径"></path>
                    <path d="M59.9815412,44.6160388 L62.1401514,45.3513997 C62.6339065,43.9247996 63.0250334,42.4529467 63.3044098,40.9765684 L61.0636971,40.5591097 C60.8025657,41.9280121 60.4399465,43.2935207 59.9815412,44.6160388 Z" id="路径"></path>
                    <path d="M63.7057996,31.9678325 L61.4365791,32.1861781 C61.5300846,33.1353592 61.5768374,34.1049042 61.5768374,35.0733178 C61.5779777,35.5145343 61.5677149,35.9512255 61.5494699,36.3867854 L63.8278129,36.486342 C63.8483385,36.015711 63.8586013,35.5428175 63.857461,35.0710552 C63.857461,34.0324994 63.806147,32.988287 63.7057996,31.9678325 Z" id="路径"></path>
                    <path d="M56.1272873,52.0692037 L57.9871359,53.3792773 C58.8663163,52.1506591 59.6622539,50.8507674 60.3521425,49.5124107 L58.3235278,48.4806428 C57.6815323,49.7217057 56.9426102,50.9299601 56.1272873,52.0692037 Z" id="路径"></path>
                    <path d="M59.531118,19.1408769 C58.7693898,17.8443791 57.9038931,16.5886091 56.9597149,15.4075065 L55.1739866,16.8126113 C56.0508864,17.909996 56.8536659,19.0763914 57.5606592,20.2801205 L59.531118,19.1408769 Z" id="路径"></path>
                    <path d="M60.7261648,28.0466622 L62.9417906,27.5092832 C62.5814521,26.0453494 62.109363,24.5961229 61.5392071,23.2012 L59.425069,24.0496933 C59.9541737,25.3450597 60.3920535,26.6902043 60.7261648,28.0466622 Z" id="路径"></path>
                    <path d="M53.8808731,12.0723623 C52.7793318,11.0383318 51.5934076,10.0733121 50.3561693,9.20558633 L49.0402494,11.053039 C50.1885434,11.8596733 51.2900846,12.7556822 52.3129443,13.7161766 L53.8808731,12.0723623 Z" id="路径"></path>
                    <path d="M14.2744232,61.4637212 C14.9323831,61.8970184 15.6097283,62.3088205 16.2893541,62.6878142 L17.4068597,60.7170471 C16.7762673,60.3640739 16.1479555,59.9816863 15.5344677,59.5789348 L14.2744232,61.4637212 Z" id="路径"></path>
                    <path d="M31.9264499,64.4854886 C31.2491047,64.4922765 30.4793942,64.4617308 29.7564365,64.4085585 L29.589951,66.6644193 C30.3539599,66.7209855 31.125951,66.7481373 31.8842584,66.7481373 C32.6345835,66.7628445 33.473853,66.7221168 34.252686,66.6655506 L34.0873408,64.4096899 C33.3780668,64.4605995 32.6516882,64.4854886 31.9264499,64.4854886 Z" id="路径"></path>
                    <path d="M38.3737728,63.7874615 L38.8686682,65.9969379 C40.3898441,65.6609346 41.8927751,65.2129302 43.3364098,64.6619752 L42.5188062,62.5497926 C41.1800802,63.0600199 39.7854788,63.4763473 38.3737728,63.7874615 Z" id="路径"></path>
                    <path d="M20.5073675,64.6574499 C21.9567038,65.2095362 23.4596347,65.6586719 24.9751091,65.993544 L25.4700045,63.7840675 C24.0651403,63.4752159 22.6693987,63.0566259 21.324971,62.5452673 L20.5073675,64.6574499 Z" id="路径"></path>
                    <path d="M46.4506013,60.7170471 L47.5681069,62.6878142 C48.2477327,62.3088205 48.9239376,61.8970184 49.5830379,61.4637212 L48.3229933,59.5789348 C47.7106459,59.9816863 47.0811938,60.3640739 46.4506013,60.7170471 Z" id="路径"></path>
                    <path d="M4.44493541,24.0191475 L2.33079733,23.1683916 C1.76178174,24.5587892 1.28855234,26.0068844 0.924792873,27.4708181 L3.13813808,28.0127225 C3.477951,26.6551333 3.91697105,25.3111199 4.44493541,24.0191475 Z" id="路径"></path>
                    <path d="M2.28062361,35.0710552 C2.28062361,34.0924596 2.3285167,33.1104701 2.4243029,32.1522383 L0.155082405,31.9293674 C0.052454343,32.9622666 0,34.0189235 0,35.0710552 C0,35.5326355 0.0102628062,35.9908219 0.0296481069,36.4490083 L2.30799109,36.3517144 C2.29088641,35.9274677 2.28062361,35.4998271 2.28062361,35.0710552 Z" id="路径"></path>
                    <path d="M14.8445791,11.0349378 L13.5286592,9.18522249 C12.2891403,10.0540796 11.103216,11.017968 10.0016748,12.0497358 L11.5696036,13.6935501 C12.5901826,12.7353183 13.6928641,11.8404408 14.8445791,11.0349378 Z" id="路径"></path>
                    <path d="M4.34344766,19.1125938 L6.31276615,20.2552314 C7.02089978,19.0526336 7.82595991,17.8851068 8.70514031,16.7899848 L6.91941203,15.3826173 C5.97181292,16.5614573 5.10631626,17.8172274 4.34344766,19.1125938 Z" id="路径"></path>
                    <path d="M22.3649354,7.22576869 L21.6294343,5.08417168 C20.194922,5.56837851 18.7820757,6.16119247 17.4285256,6.84677503 L18.4662094,8.86166372 C19.722833,8.22585943 21.0341915,7.67490447 22.3649354,7.22576869 Z" id="路径"></path>
                    <path d="M3.48935412,49.4818649 C4.18038307,50.8224843 4.9751804,52.1235073 5.85208018,53.3509942 L7.71192873,52.0431833 C6.89888641,50.9039396 6.16110468,49.6956852 5.52024944,48.4523597 L3.48935412,49.4818649 Z" id="路径"></path>
                    <path d="M2.78920267,40.5251699 L0.548489978,40.9426286 C0.82786637,42.4224009 1.21785301,43.8931226 1.70818708,45.3174599 L3.86679733,44.5866244 C3.41181292,43.2652375 3.04919376,41.8985977 2.78920267,40.5251699 Z" id="路径"></path>
                    <path d="M8.76443653,56.8716756 C9.30836526,57.4396005 9.87624053,57.9905554 10.4532383,58.512096 L11.988098,56.8377359 C11.4510111,56.3535291 10.9230468,55.8410391 10.419029,55.313842 L8.76443653,56.8716756 Z" id="路径"></path>
                    <path d="M36.4899777,10.1819193 L36.4899777,6.0276962 C36.7933007,6.0740805 37.094343,6.10575758 37.3976659,6.16119247 L37.8138797,3.93587745 C37.3452116,3.8498968 36.8776837,3.79446191 36.4090156,3.72997642 C36.0281514,1.61439986 34.1694432,0 31.9287305,0 C29.6880178,0 27.8293096,1.61439986 27.4484454,3.72997642 C26.9797773,3.79559323 26.5122494,3.8498968 26.0435813,3.93587745 L26.4597951,6.16119247 C26.763118,6.10575758 27.0641604,6.0740805 27.3674833,6.0276962 L27.3674833,10.1819193 C22.3375679,10.1819193 18.2449889,14.2422424 18.2449889,19.2325141 C18.2449889,22.5755776 20.0865924,25.4943945 22.8107973,27.0612787 C22.8107973,27.0918245 22.8062361,27.1212389 22.8062361,27.1517847 C22.8062361,32.1420564 26.8988151,36.2023796 31.9287305,36.2023796 C36.9586459,36.2023796 41.0512249,32.1420564 41.0512249,27.1517847 C41.0512249,27.1212389 41.0466637,27.0918245 41.0466637,27.0612787 C43.7708686,25.4943945 45.6124722,22.5755776 45.6124722,19.2325141 C45.6124722,14.2422424 41.5198931,10.1819193 36.4899777,10.1819193 Z M29.6481069,4.52529744 C29.6481069,3.27744667 30.6709666,2.26264872 31.9287305,2.26264872 C33.1864944,2.26264872 34.2093541,3.27744667 34.2093541,4.52529744 L34.2093541,10.4794576 C33.3997327,10.6876212 32.6345835,10.9998668 31.9287305,11.4060122 C31.2228775,10.9987354 30.4577283,10.6876212 29.6481069,10.4794576 L29.6481069,4.52529744 Z M34.1500579,18.3840209 C33.437363,18.2064029 32.6961604,18.1011898 31.9287305,18.1011898 C31.1613007,18.1011898 30.420098,18.2064029 29.7074031,18.3840209 C29.9172205,16.724368 30.7336837,15.252515 31.9287305,14.1879388 C33.1237773,15.252515 33.9402405,16.724368 34.1500579,18.3840209 Z M31.9287305,24.2782208 C30.8842049,23.3471408 30.1270379,22.1072093 29.8134521,20.6998418 C30.4805345,20.4837589 31.1898085,20.3638385 31.9287305,20.3638385 C32.6676526,20.3638385 33.3769265,20.4837589 34.0440089,20.6998418 C33.7304232,22.1072093 32.9732561,23.3471408 31.9287305,24.2782208 Z M36.1125345,21.7927012 C37.3531938,22.7475389 38.2540401,24.1130474 38.6052561,25.684457 C37.9381737,25.9005399 37.2288998,26.0204603 36.4899777,26.0204603 C35.5800089,26.0204603 34.7122316,25.8394484 33.916294,25.5181523 C34.9266102,24.4818592 35.6894788,23.2102506 36.1125345,21.7927012 Z M29.941167,25.5181523 C29.1452294,25.8394484 28.2774521,26.0204603 27.3674833,26.0204603 C26.6285612,26.0204603 25.9192873,25.9005399 25.2522049,25.684457 C25.6034209,24.1130474 26.5042673,22.7475389 27.7449265,21.7927012 C28.1679822,23.2102506 28.9308508,24.4818592 29.941167,25.5181523 Z M20.5256125,19.2325141 C20.5256125,15.4889618 23.5941915,12.444568 27.3674833,12.444568 C28.2774521,12.444568 29.1452294,12.6255799 29.941167,12.946876 C28.3515724,14.5771144 27.3674833,16.7911162 27.3674833,19.2325141 C27.3674833,19.2630599 27.3720445,19.2924743 27.3720445,19.3230201 C25.3719376,20.473577 23.851902,22.3504441 23.1836793,24.5915976 C21.5701381,23.3494035 20.5256125,21.4114449 20.5256125,19.2325141 Z M31.9287305,33.9397308 C28.4462183,33.9397308 25.5692116,31.3433414 25.1461559,28.0002779 C25.8588508,28.1778959 26.6000535,28.283109 27.3674833,28.283109 C29.0300579,28.283109 30.5854432,27.8328419 31.9287305,27.0590161 C33.2720178,27.8328419 34.8274031,28.283109 36.4899777,28.283109 C37.2574076,28.283109 37.9986102,28.1778959 38.7113051,28.0002779 C38.2882494,31.3433414 35.4112428,33.9397308 31.9287305,33.9397308 Z M40.6737817,24.5915976 C40.005559,22.3504441 38.4855234,20.473577 36.4854165,19.3230201 C36.4854165,19.2924743 36.4899777,19.2630599 36.4899777,19.2325141 C36.4899777,16.7911162 35.5058886,14.5771144 33.916294,12.946876 C34.7122316,12.6255799 35.5800089,12.444568 36.4899777,12.444568 C40.2632695,12.444568 43.3318486,15.4889618 43.3318486,19.2325141 C43.3318486,21.4114449 42.2873229,23.3494035 40.6737817,24.5915976 Z" id="形状" fill-rule="nonzero"></path>
                    <rect id="矩形" x="19.3853007" y="44.1216501" width="25.0868597" height="2.26264872"></rect>
                </g>
            </g>
        </g>
    </g>
</svg>