<?xml version="1.0" encoding="UTF-8"?>
<svg width="40px" height="40px" viewBox="0 0 40 40" version="1.1" xmlns="http://www.w3.org/2000/svg" xmlns:xlink="http://www.w3.org/1999/xlink">
    <!-- Generator: Sketch 64 (93537) - https://sketch.com -->
    <title>箭头案例箭头</title>
    <desc>Created with Sketch.</desc>
    <g id="官网页面" stroke="none" stroke-width="1" fill="none" fill-rule="evenodd">
        <g id="首页" transform="translate(-1831.000000, -1978.000000)">
            <g id="首页案例2" transform="translate(967.000000, 1465.000000)">
                <g id="蒙版样式">
                    <rect id="矩形-copy-2" fill-opacity="0.75" fill="rgba(0, 0, 0, 0)" x="0" y="0" width="939" height="588"></rect>
                    <g id="箭头" transform="translate(864.000000, 513.000000)" fill-rule="nonzero">
                        <rect id="矩形" fill="#000000" opacity="0" x="0" y="0" width="40" height="40"></rect>
                        <path d="M16.7279605,28.4625 C16.4782895,28.4625 16.2286184,28.3626316 16.0288816,28.1628947 C15.6294079,27.763421 15.6294079,27.1392434 16.0288816,26.7397697 L23.5190132,19.2496382 C23.9184868,18.8501645 24.5426645,18.8501645 24.9421382,19.2496382 C25.3416119,19.6491119 25.3416119,20.2732895 24.9421382,20.6727631 L17.4520066,28.1628947 C17.2273026,28.3626316 16.9776316,28.4625 16.7279605,28.4625 L16.7279605,28.4625 Z M24.2180921,20.9723684 C23.9684211,20.9723684 23.71875,20.8725 23.5190132,20.6727631 L16.0288816,13.1826316 C15.6294079,12.7831579 15.6294079,12.1589803 16.0288816,11.7595066 C16.4283553,11.3600329 17.0525329,11.3600329 17.4520066,11.7595066 L24.9421382,19.2496382 C25.3416119,19.6491119 25.3416119,20.2732895 24.9421382,20.6727631 C24.7174342,20.8725 24.4677631,20.9723684 24.2180921,20.9723684 Z M19.9736842,39.9473684 C8.9631908,39.9473684 0,30.9841776 0,19.9736842 C0,8.9631908 8.9631908,0 19.9736842,0 C30.9841776,0 39.9473684,8.9631908 39.9473684,19.9736842 C39.9473684,30.9841776 30.9841776,39.9473684 19.9736842,39.9473684 Z M19.9736842,1.99736845 C10.0617434,1.99736845 1.99736845,10.0617434 1.99736845,19.9736842 C1.99736845,29.885625 10.0617434,37.95 19.9736842,37.95 C29.885625,37.95 37.95,29.885625 37.95,19.9736842 C37.95,10.0617434 29.885625,1.99736845 19.9736842,1.99736845 Z" id="形状" fill="#FFFFFF"></path>
                    </g>
                </g>
            </g>
        </g>
    </g>
</svg>