<?xml version="1.0" encoding="UTF-8"?>
<svg width="62px" height="58px" viewBox="0 0 62 58" version="1.1" xmlns="http://www.w3.org/2000/svg" xmlns:xlink="http://www.w3.org/1999/xlink">
    <!-- Generator: Sketch 64 (93537) - https://sketch.com -->
    <title>graphic-design</title>
    <desc>Created with Sketch.</desc>
    <g id="官网页面" stroke="none" stroke-width="1" fill="none" fill-rule="evenodd">
        <g id="业务-设计" transform="translate(-1559.000000, -2771.000000)">
            <g id="graphic-design" transform="translate(1559.000000, 2771.000000)">
                <polygon id="路径" fill="#E4C487" points="17 19 7 19 7 46 55 46 55 19 45 19 45 27 29 33 17 27"></polygon>
                <g id="分组">
                    <path d="M60,49.9201852 L60,18.9532579 C60,16.7496114 58.206,14.9575253 56,14.9575253 L51.122,14.9575253 C51.096,14.8686203 51.077,14.7777174 51.049,14.6888123 L50.188,14.9575253 L46,14.9575253 L46,13.3412515 L33.058,6.87615625 L16,13.2663315 L16,14.9575253 L11.391,14.9575253 L10.915,14.8116811 C10.9,14.8596299 10.891,14.9085776 10.876,14.9575253 L6,14.9575253 C3.794,14.9575253 2,16.7496114 2,18.9532579 L2,49.9201852 L0,49.9201852 L0,53.9159177 C0,56.1195642 1.794,57.9116503 4,57.9116503 L58,57.9116503 C60.206,57.9116503 62,56.1195642 62,53.9159177 L62,49.9201852 L60,49.9201852 Z M34,21.3317177 L34,19.146052 L44,15.4000527 L44,26.3263834 L34,21.3317177 Z M30,20.6444517 L32,19.8952518 L32,21.2577966 L30,22.0069965 L30,20.6444517 Z M34,17.0123308 L34,9.58226612 L42.501,13.827732 L34,17.0123308 Z M32,17.7615307 L29.058,18.8633539 L19.499,14.0894524 L32,9.40645389 L32,17.7615307 Z M28,20.5705306 L28,22.7561963 L18,26.5021956 L18,15.574866 L28,20.5705306 Z M28,24.8899175 L28,32.3199822 L19.499,28.0745164 L28,24.8899175 Z M30,24.1407177 L32.942,23.0388944 L42.501,27.8127959 L30,32.4957944 L30,24.1407177 Z M4,18.9532579 C4,17.8514346 4.897,16.9553916 6,16.9553916 L10.395,16.9553916 C10.336,17.2600662 10.27,17.5637419 10.225,17.8694154 L12.204,18.160105 C12.263,17.756536 12.342,17.3549649 12.428,16.9553916 L16,16.9553916 L16,28.5609968 L28.942,35.0260921 L46,28.6359168 L46,16.9553916 L49.569,16.9553916 C49.647,17.3180043 49.723,17.6806171 49.779,18.0462266 L51.756,17.741552 C51.716,17.4788326 51.655,17.2171121 51.605,16.9553916 L56,16.9553916 C57.103,16.9553916 58,17.8514346 58,18.9532579 L58,49.9201852 L34,49.9201852 L34,51.9180514 L28,51.9180514 L28,49.9201852 L4,49.9201852 L4,18.9532579 Z M60,53.9159177 C60,55.017741 59.103,55.913784 58,55.913784 L4,55.913784 C2.897,55.913784 2,55.017741 2,53.9159177 L2,51.9180514 L26,51.9180514 C26,53.0198747 26.897,53.9159177 28,53.9159177 L34,53.9159177 C35.103,53.9159177 36,53.0198747 36,51.9180514 L60,51.9180514 L60,53.9159177 Z" id="形状" fill="#CBA766" fill-rule="nonzero"></path>
                    <path d="M12,20.9890836 L10,20.9930794 C10.002,22.0409602 10.082,23.0918379 10.238,24.1177422 L12.215,23.8170633 C12.074,22.8890545 12.002,21.9380701 12,20.9890836 Z" id="路径" fill="#333333"></path>
                    <path d="M15.275,10.2945055 L13.621,9.17270354 C13.033,10.0367807 12.507,10.9508045 12.056,11.8898017 L13.859,12.7538788 C14.267,11.9047857 14.743,11.0766701 15.275,10.2945055 Z" id="路径" fill="#333333"></path>
                    <path d="M19.117,6.14094146 L17.865,4.58160684 C17.053,5.23191231 16.281,5.9521431 15.571,6.71932375 L17.04,8.07487602 C17.683,7.38061749 18.381,6.73031202 19.117,6.14094146 Z" id="路径" fill="#333333"></path>
                    <path d="M49.89,11.7749244 C49.434,10.8379251 48.902,9.92889592 48.311,9.06981342 L46.663,10.2036025 C47.199,10.9797736 47.68,11.8038934 48.094,12.6509887 L49.89,11.7749244 Z" id="路径" fill="#333333"></path>
                    <path d="M41.441,2.74656666 C40.535,2.2261225 39.583,1.77060899 38.609,1.39401119 L37.884,3.25502363 C38.764,3.5976577 39.625,4.00921815 40.445,4.47971566 L41.441,2.74656666 Z" id="路径" fill="#333333"></path>
                    <path d="M35.604,0.47898844 C34.589,0.251231684 33.545,0.0993938472 32.5,0.0264717282 L32.36,2.0183444 C33.305,2.08527293 34.251,2.2231257 35.169,2.42790699 L35.604,0.47898844 Z" id="路径" fill="#333333"></path>
                    <path d="M29.519,2.02933267 L29.367,0.0374599927 C28.327,0.117374644 27.285,0.275206079 26.267,0.509955367 L26.714,2.45687605 C27.635,2.24410329 28.579,2.10125586 29.519,2.02933267 Z" id="路径" fill="#333333"></path>
                    <path d="M24.006,3.29797775 L23.27,1.44096105 C22.297,1.82555031 21.349,2.28705742 20.449,2.80949945 L21.457,4.53665485 C22.269,4.06316054 23.127,3.64660542 24.006,3.29797775 Z" id="路径" fill="#333333"></path>
                    <path d="M46.347,6.6304187 C45.636,5.87023058 44.86,5.15499446 44.039,4.50568792 L42.797,6.07001721 C43.539,6.65838883 44.241,7.30469857 44.884,7.99396243 L46.347,6.6304187 Z" id="路径" fill="#333333"></path>
                    <path d="M51.074,27.1315235 L49.162,26.5421529 C48.885,27.4421917 48.536,28.3312422 48.125,29.1833322 L49.928,30.0494072 C50.381,29.1074132 50.767,28.1264609 51.074,27.1315235 Z" id="路径" fill="#333333"></path>
                    <path d="M48.356,32.7645075 L46.704,31.6387098 C46.172,32.4168787 45.576,33.1630818 44.933,33.8563414 L46.4,35.2138915 C47.109,34.4507066 47.768,33.6255878 48.356,32.7645075 Z" id="路径" fill="#333333"></path>
                    <path d="M44.103,37.3466138 L42.853,35.7862802 C42.115,36.3766497 41.327,36.9150746 40.511,37.38757 L41.513,39.1157243 C42.415,38.5932823 43.286,37.9979182 44.103,37.3466138 Z" id="路径" fill="#333333"></path>
                    <path d="M32.59,41.869783 L32.442,39.8779103 C31.978,39.9118741 31.509,39.9308538 31.035,39.9308538 C30.556,39.9368474 30.074,39.9138719 29.6,39.8809071 L29.455,41.8727798 C29.976,41.9107393 30.5,41.9377105 31.035,41.9287201 C31.559,41.9287201 32.077,41.9077425 32.59,41.869783 Z" id="路径" fill="#333333"></path>
                    <path d="M38.69,40.4772702 L37.958,38.6182556 C37.081,38.9638865 36.17,39.2455856 35.247,39.4563605 L35.694,41.4032812 C36.713,41.1695309 37.722,40.8588627 38.69,40.4772702 Z" id="路径" fill="#333333"></path>
                    <path d="M13.666,32.7964733 C14.255,33.6545569 14.915,34.4776778 15.628,35.2418616 L17.091,33.8803158 C16.446,33.189054 15.849,32.4438499 15.317,31.6666799 L13.666,32.7964733 Z" id="路径" fill="#333333"></path>
                    <path d="M23.35,40.4922542 C24.321,40.8728477 25.33,41.182517 26.354,41.4132706 L26.793,39.464352 C25.869,39.2565739 24.956,38.9768726 24.08,38.6332396 L23.35,40.4922542 Z" id="路径" fill="#333333"></path>
                    <path d="M17.928,37.3695892 C18.745,38.0188958 19.618,38.613261 20.522,39.1347041 L21.522,37.4045519 C20.704,36.9330554 19.914,36.3956294 19.174,35.8072578 L17.928,37.3695892 Z" id="路径" fill="#333333"></path>
                    <path d="M12.85,26.5811113 L10.94,27.1744776 C11.25,28.1684161 11.637,29.1493684 12.092,30.0883656 L13.893,29.2182948 C13.48,28.3672038 13.129,27.4801512 12.85,26.5811113 Z" id="路径" fill="#333333"></path>
                    <path d="M52,20.9511242 L52,20.8692116 L50,20.9511242 C50,21.8991117 49.93,22.851095 49.79,23.7791039 L51.769,24.075787 C51.922,23.0498827 52,21.999005 52,20.9511242 Z" id="路径" fill="#333333"></path>
                </g>
            </g>
        </g>
    </g>
</svg>