<?xml version="1.0" encoding="UTF-8"?>
<svg width="221px" height="28px" viewBox="0 0 221 28" version="1.1" xmlns="http://www.w3.org/2000/svg" xmlns:xlink="http://www.w3.org/1999/xlink">
    <!-- Generator: Sketch 64 (93537) - https://sketch.com -->
    <title>头部LOGOLOGO-头部</title>
    <desc>Created with Sketch.</desc>
    <g id="官网页面" stroke="none" stroke-width="1" fill="none" fill-rule="evenodd">
        <g id="首页" transform="translate(-72.000000, -31.000000)">
            <g id="LOGO" transform="translate(70.000000, 28.000000)">
                <path d="M41.1748842,10.2594634 L41.1748842,8.80701754 L60.3684211,8.80701754 L60.3684211,10.2594634 L46.0279197,10.2594634 C45.9186171,11.7332687 45.787454,13.1002766 45.6344303,14.4245654 L57.133064,14.4245654 C58.6414399,14.4245654 59.8874896,15.6420568 59.8874896,17.1158622 L59.8874896,24.1858559 C59.8874896,25.6596612 58.6414399,26.8771526 57.133064,26.8771526 L51.2307235,26.8771526 L51.2307235,25.4247068 L57.133064,25.4247068 C57.8544612,25.4247068 58.4009742,24.8693598 58.4009742,24.1858559 L58.4009742,17.1158622 C58.4009742,16.4323582 57.8544612,15.8770113 57.133064,15.8770113 L45.4158251,15.8770113 C44.7600095,20.4052248 43.688844,24.1217774 42.3553523,27.3684211 L41,26.8130741 C42.7925627,22.5198151 44.0386123,17.2867381 44.5195438,10.2594634 L41.1748842,10.2594634 Z M86.1929825,21.7192982 L84.8124241,21.7192982 L84.8124241,10.4104514 C84.8124241,9.91484458 84.4672846,9.53187567 84.0206333,9.53187567 L78.681121,9.53187567 C78.2344698,9.53187567 77.8893302,9.91484458 77.8893302,10.4104514 L77.8893302,21.7192982 L76.5087719,21.7192982 L76.5087719,10.4104514 C76.5087719,9.081324 77.503586,8 78.681121,8 L84.0206333,8 C85.2184707,8 86.1929825,9.081324 86.1929825,10.4104514 L86.1929825,21.7192982 Z M87,25.9669874 L87,27.3684211 L84.4644871,27.3684211 C83.0648839,27.3684211 81.90869,26.1936899 81.90869,24.7716469 L81.90869,20.1139408 C81.1784623,24.132758 79.0486315,26.0494246 76.2494252,27.3478117 L75.7017544,26.0494246 C78.6835176,24.7098189 80.7727802,22.4634031 80.7930643,16.9401056 L80.7930643,12.0350877 L82.1723834,12.0350877 L82.1723834,16.9401056 C82.1723834,18.0530089 82.091247,19.0422562 81.9289741,19.9284569 L83.2880091,19.9284569 L83.2880091,24.7716469 C83.2880091,25.4517544 83.8153958,25.9669874 84.4644871,25.9669874 L87,25.9669874 Z M71.6483773,28.1754386 L70.0709209,28.1754386 L70.0709209,14.2704158 L66.8245614,14.2704158 L66.8245614,12.8421053 L74.8947368,12.8421053 L74.8947368,14.2704158 L71.6483773,14.2704158 L71.6483773,28.1754386 Z M74.0877193,28.1754386 L72.4736842,28.1754386 L72.4736842,14.4561404 L74.0877193,14.4561404 L74.0877193,28.1754386 Z M68.9700471,28.1754386 L67.6315789,28.1304573 L67.9071459,14.4561404 L69.245614,14.5011217 L68.9700471,28.1754386 Z M74.0877193,8.80701754 L74.0877193,10.4210526 L67.6315789,10.4210526 L67.6315789,8.80701754 L74.0877193,8.80701754 Z" id="万-视" fill="#FFFFFF"></path>
                <line x1="98.0512821" y1="5.45627748" x2="98.0512821" y2="29.826087" id="Line" stroke="#FFFFFF" fill="#D8D8D8" fill-rule="nonzero" stroke-linecap="square"></line>
                <path d="M108.363985,10 C108.606642,10 108.83413,10.4019897 109.046456,11.2059811 C112.716653,20.4596129 114.551724,25.175261 114.551724,25.3530668 L114.551724,25.4922185 C114.528975,25.5849867 114.422814,25.6622924 114.233238,25.7241379 C114.020912,25.7241379 113.747926,25.1984591 113.414272,24.1470857 C109.865404,15.1021824 108.060664,10.5256846 108,10.417455 L108,10.2783033 C108.075831,10.0927668 108.197158,10 108.363985,10 Z M119.987608,10 L120.217942,10 C120.256331,10 120.333108,10.0749373 120.448276,10.2248141 L120.448276,10.2697769 C120.448276,10.3746906 118.88202,14.3613535 115.749461,22.2298851 C115.373247,23.2490472 115.112204,23.7586207 114.966325,23.7586207 L114.782058,23.7586207 C114.628501,23.6836823 114.551724,23.5637827 114.551724,23.3989182 C117.876229,14.9308795 119.657461,10.4796055 119.895474,10.0449628 L119.987608,10 Z M128.310345,10 C128.481938,10 128.793922,10.6493679 129.246305,11.9481233 C130.275867,14.421943 131.055827,16.3700468 131.586207,17.7924931 L131.586207,17.838877 C131.586207,18.086259 131.430215,18.2099481 131.118227,18.2099481 L125.408867,18.2099481 C123.474539,23.0802807 122.460592,25.5540633 122.366995,25.6313702 C122.265599,25.6932156 122.187603,25.7241379 122.133005,25.7241379 C122.039408,25.7241379 121.914615,25.6004488 121.758621,25.3530668 C122.164206,24.4331151 123.209351,21.8665657 124.894089,17.6533415 C125.011084,17.5605732 125.120279,17.5141898 125.221675,17.5141898 L130.743842,17.5141898 L127.889163,10.3246872 C127.982759,10.108228 128.123152,10 128.310345,10 Z M128.019157,11.3103448 C128.156663,11.3470493 128.253725,11.4204573 128.310345,11.5305708 L128.310345,11.7067517 C127.113234,14.6431133 126.433802,16.2287248 126.272031,16.4636337 L126.126437,16.5517241 L125.88378,16.5517241 C125.835249,16.5517241 125.770541,16.4929978 125.689655,16.3755433 L125.689655,16.2434077 C125.689655,16.0745669 126.369086,14.4595922 127.727969,11.3984352 C127.857387,11.339708 127.954448,11.3103448 128.019157,11.3103448 Z M131.816901,18.5172414 L131.909179,18.5172414 C132.170634,18.5172414 132.432085,18.9755701 132.693541,19.8922414 C134.016196,23.0768837 134.739031,24.8785899 134.862069,25.2974138 L134.862069,25.487069 C134.862069,25.5265807 134.785172,25.6056029 134.631374,25.7241379 L134.585236,25.7241379 C134.308401,25.7241379 134.016191,25.2025914 133.708596,24.1594828 C132.293663,20.7772819 131.586207,18.9913803 131.586207,18.8017241 C131.632346,18.6673844 131.709243,18.5725577 131.816901,18.5172414 Z M141.164543,10 C141.390056,10.0924954 141.886178,10.6628751 142.652924,11.7111562 L153.161794,25.2154158 C153.191863,25.2693715 153.206897,25.3310341 153.206897,25.4004057 C153.109174,25.6162283 152.988902,25.7241379 152.846077,25.7241379 C152.673183,25.6855982 152.222163,25.1614655 151.493003,24.1517241 L141.48026,11.3411765 L141.48026,25.4929006 C141.405089,25.6470596 141.284817,25.7241379 141.11944,25.7241379 C140.991649,25.6933061 140.871377,25.5545651 140.758621,25.3079108 L140.758621,10.4162272 C140.841309,10.2004046 140.961581,10.0616636 141.11944,10 L141.164543,10 Z M152.920259,10 C153.084053,10.0615601 153.165948,10.1846785 153.165948,10.3693589 L153.165948,23.5277713 C153.165948,23.5662464 153.097702,23.6431954 152.961207,23.7586207 L152.87931,23.7586207 C152.660918,23.7586207 152.551724,23.6047227 152.551724,23.296922 L152.551724,10.4155288 C152.585848,10.1385082 152.708691,10 152.920259,10 Z M165.680765,10.6551724 L166.233567,10.6551724 C167.369887,10.6551724 168.6751,11.0865904 170.149246,11.9494394 L170.241379,12.1805585 C170.241379,12.3654547 170.118536,12.4733092 169.872845,12.5041252 C168.567612,11.7337244 167.29311,11.3485297 166.0493,11.3485297 L165.865032,11.3485297 C163.377412,11.3485297 161.396559,12.550337 159.922414,14.9539877 C159.369609,16.055661 159.093211,17.1496138 159.093211,18.235879 C159.093211,20.6780497 160.229514,22.6502463 162.502155,24.152528 C163.584731,24.7688487 164.644257,25.0770044 165.680765,25.0770044 L166.141433,25.0770044 C167.339176,25.0770044 168.582968,24.6918098 169.872845,23.9214089 L169.918912,23.9214089 C169.957301,23.9214089 170.034078,23.9984479 170.149246,24.152528 L170.149246,24.2449757 C170.149246,24.6224721 169.28934,25.0538901 167.569504,25.5392426 C167.147223,25.6625068 166.625138,25.7241379 166.003233,25.7241379 L165.911099,25.7241379 C163.093332,25.7241379 160.882147,24.3682528 159.277478,21.6564417 C158.724674,20.5162484 158.448276,19.3914801 158.448276,18.2821028 L158.448276,18.1434314 C158.448276,15.4624364 159.722778,13.2899385 162.271821,11.6258726 C163.630799,10.9787359 164.767102,10.6551724 165.680765,10.6551724 Z M175.844233,10 L185.604043,10 C185.845027,10.0955465 185.965517,10.2183901 185.965517,10.3685345 C185.965517,10.5391532 185.845027,10.6346982 185.604043,10.6551724 L175.844233,10.6551724 C175.603249,10.6551724 175.482759,10.5459781 175.482759,10.3275862 C175.482759,10.2115655 175.603249,10.1023712 175.844233,10 Z M175.979786,17.862069 L185.46849,17.862069 C185.701943,17.862069 185.867617,17.9439647 185.965517,18.1077586 L185.965517,18.1487069 C185.965517,18.3943978 185.754659,18.5172414 185.332937,18.5172414 L176.115339,18.5172414 C175.693617,18.5172414 175.482759,18.3943978 175.482759,18.1487069 L175.482759,18.1077586 C175.580658,17.9439647 175.746333,17.862069 175.979786,17.862069 Z M175.889417,25.0689655 L185.558859,25.0689655 C185.829966,25.0689655 185.965517,25.1781598 185.965517,25.3965517 C185.965517,25.6149436 185.784782,25.7241379 185.423306,25.7241379 L176.02497,25.7241379 C175.663494,25.7241379 175.482759,25.6012943 175.482759,25.3556034 C175.520412,25.1645105 175.655964,25.0689655 175.889417,25.0689655 Z M191.612819,10 C191.838332,10.0924954 192.334454,10.6628751 193.101199,11.7111562 L203.61007,25.2154158 C203.640138,25.2693715 203.655172,25.3310341 203.655172,25.4004057 C203.55745,25.6162283 203.437178,25.7241379 203.294353,25.7241379 C203.121459,25.6855982 202.670439,25.1614655 201.941279,24.1517241 L191.928536,11.3411765 L191.928536,25.4929006 C191.853365,25.6470596 191.733093,25.7241379 191.567716,25.7241379 C191.439925,25.6933061 191.319653,25.5545651 191.206897,25.3079108 L191.206897,10.4162272 C191.289585,10.2004046 191.409857,10.0616636 191.567716,10 L191.612819,10 Z M204.023707,10 C204.187501,10.0615601 204.269397,10.1846785 204.269397,10.3693589 L204.269397,23.5277713 C204.269397,23.5662464 204.20115,23.6431954 204.064655,23.7586207 L203.982759,23.7586207 C203.764367,23.7586207 203.655172,23.6047227 203.655172,23.296922 L203.655172,10.4155288 C203.689296,10.1385082 203.81214,10 204.023707,10 Z M209.958383,10 L215.741974,10 C215.982958,10.1229655 216.103448,10.2766701 216.103448,10.4611184 L216.103448,25.3091314 C216.058264,25.5858038 215.937773,25.7241379 215.741974,25.7241379 C215.531113,25.6626552 215.425684,25.5396915 215.425684,25.3552432 L215.425684,10.7377895 L209.958383,10.7377895 C209.792706,10.7377895 209.657155,10.6455667 209.551724,10.4611184 L209.551724,10.3688947 C209.619501,10.2075025 209.755052,10.0845388 209.958383,10 Z M217.110982,10 L221.691684,10 C221.897229,10.1160207 222,10.1979164 222,10.2456897 L222,10.450431 C222,10.4845548 221.926592,10.5528012 221.779774,10.6551724 L217.110982,10.6551724 C216.876073,10.6551724 216.758621,10.5459781 216.758621,10.3275862 C216.758621,10.2115655 216.876073,10.1023712 217.110982,10 Z" id="V-A-N-C-E-N-T" stroke="#FFFFFF" stroke-width="1.3" fill="#302D4B"></path>
                <g id="Group-3" fill="#FFFFFF" stroke="#FFFFFF" stroke-width="0.3">
                    <g id="Group" transform="translate(19.478261, 3.478261)">
                        <polygon id="Path-5" points="8.15239712 5.01200037e-14 12.4538449 7.93799679 8.0455053 15.8514679 6.83922392 15.8514679 11.2659886 7.93799679 6.96950927 5.01200037e-14"></polygon>
                        <polygon id="Path-5" points="4.73278516 5.01200037e-14 9.03423294 7.93799679 4.62589334 15.8514679 3.41961196 15.8514679 7.84637668 7.93799679 3.54989731 5.01200037e-14"></polygon>
                        <polygon id="Path-5" points="1.3131732 5.01200037e-14 5.61462098 7.93799679 1.20628138 15.8514679 0 15.8514679 4.42676472 7.93799679 0.130285351 5.01200037e-14"></polygon>
                    </g>
                    <g id="Group" transform="translate(15.729691, 24.457764) rotate(120.000000) translate(-15.729691, -24.457764) translate(9.468822, 16.457764)">
                        <polygon id="Path-5" points="8.16463796 4.92818766e-14 12.4725444 7.80525437 8.05758564 15.5863932 6.84949303 15.5863932 11.2829045 7.80525437 6.979974 4.92818766e-14"></polygon>
                        <polygon id="Path-5" points="4.73989145 4.92818766e-14 9.04779785 7.80525437 4.63283913 15.5863932 3.42474651 15.5863932 7.85815803 7.80525437 3.55522749 4.92818766e-14"></polygon>
                        <polygon id="Path-5" points="1.31514493 4.92818766e-14 5.62305134 7.80525437 1.20809261 15.5863932 0 15.5863932 4.43341151 7.80525437 0.130480975 4.92818766e-14"></polygon>
                    </g>
                    <g id="Group" transform="translate(10.223758, 9.722041) rotate(-120.000000) translate(-10.223758, -9.722041) translate(3.962889, 1.722041)">
                        <polygon id="Path-5" points="8.16463796 4.92818766e-14 12.4725444 7.80525437 8.05758564 15.5863932 6.84949303 15.5863932 11.2829045 7.80525437 6.979974 4.92818766e-14"></polygon>
                        <polygon id="Path-5" points="4.73989145 4.92818766e-14 9.04779785 7.80525437 4.63283913 15.5863932 3.42474651 15.5863932 7.85815803 7.80525437 3.55522749 4.92818766e-14"></polygon>
                        <polygon id="Path-5" points="1.31514493 4.92818766e-14 5.62305134 7.80525437 1.20809261 15.5863932 0 15.5863932 4.43341151 7.80525437 0.130480975 4.92818766e-14"></polygon>
                    </g>
                </g>
            </g>
        </g>
    </g>
</svg>