<?xml version="1.0" encoding="UTF-8"?>
<svg width="23px" height="23px" viewBox="0 0 23 23" version="1.1" xmlns="http://www.w3.org/2000/svg" xmlns:xlink="http://www.w3.org/1999/xlink">
    <!-- Generator: Sketch 64 (93537) - https://sketch.com -->
    <title>进入实验icon</title>
    <desc>Created with Sketch.</desc>
    <g id="官网页面" stroke="none" stroke-width="1" fill="none" fill-rule="evenodd">
        <g id="首页" transform="translate(-1035.000000, -1301.000000)" fill-rule="nonzero">
            <g id="编组-4" transform="translate(863.000000, 1294.000000)">
                <g id="进入实验" transform="translate(172.000000, 7.000000)">
                    <rect id="矩形" fill="#000000" opacity="0" x="0" y="0" width="23" height="23"></rect>
                    <path d="M11.5001698,0 C5.14892422,0 0.000339631836,5.14858459 0.000339631836,11.4998302 C0.000339631836,17.8510758 5.14892422,23 11.5001698,23 C17.8514154,23 23,17.8514154 23,11.5001698 C23,8.45016639 21.7885441,5.52505233 19.6318978,3.36834236 C17.4752515,1.2116324 14.5501733,0 11.5001698,0 Z M11.5001698,21.3894328 C6.03843826,21.3894328 1.61090684,16.9619014 1.61090684,11.5001698 C1.61090684,6.03843828 6.03843826,1.61056721 11.5001698,1.61056721 C16.9619014,1.61056721 21.3894328,6.03843826 21.3894328,11.5001698 C21.3894328,16.9618589 16.9618589,21.3894328 11.5001698,21.3894328 Z" id="形状" fill="#2996FF"></path>
                    <path d="M16.9360888,11.5001698 C16.9605396,11.6026612 16.9605396,11.7094669 16.9360888,11.8119582 C16.9021736,11.8878331 16.8516895,11.9551452 16.788346,12.0089487 L13.2095719,15.5547778 C12.8898308,15.8546736 12.3898262,15.8468167 12.0796656,15.5370228 C11.769505,15.2272289 11.7610565,14.727234 12.0605738,14.4071383 L14.1289741,12.3224353 L6.88855418,12.3224353 C6.59135293,12.3284818 6.31410314,12.1733861 6.1637296,11.9169628 C6.01335607,11.6605394 6.01335607,11.342857 6.1637296,11.0864336 C6.31410314,10.8300103 6.59135293,10.6749145 6.88855418,10.680961 L14.1289741,10.680961 L12.0113262,8.59625806 C11.6958895,8.2785253 11.6965166,7.76561705 12.0127293,7.44865657 C12.328942,7.1316961 12.8418474,7.12985753 13.1603243,7.4445429 L16.6406031,10.9088587 C16.7080312,10.9654717 16.7590496,11.0391258 16.788346,11.1221518 C16.8752657,11.2298529 16.9268576,11.3617384 16.9360888,11.4998302 L16.9360888,11.5001698 Z" id="路径" fill="#2996FF"></path>
                </g>
            </g>
        </g>
    </g>
</svg>