<?xml version="1.0" encoding="UTF-8"?>
<svg width="56px" height="54px" viewBox="0 0 56 54" version="1.1" xmlns="http://www.w3.org/2000/svg" xmlns:xlink="http://www.w3.org/1999/xlink">
    <!-- Generator: Sketch 64 (93537) - https://sketch.com -->
    <title>party</title>
    <desc>Created with Sketch.</desc>
    <g id="官网页面" stroke="none" stroke-width="1" fill="none" fill-rule="evenodd">
        <g id="业务-设计" transform="translate(-938.000000, -2771.000000)">
            <g id="party" transform="translate(938.000000, 2771.000000)">
                <path d="M29.9973966,54 L28.2201331,54 C28.2201331,53.424642 28.0387619,53.1772461 27.7662714,52.8024903 C27.4247903,52.3357748 27,51.7547201 27,50.6621907 C27,49.5696615 27.4247903,48.9890136 27.7662714,48.523112 C28.0396298,48.1491699 28.2210009,47.9013672 28.2210009,47.3247884 C28.2210009,46.750651 28.0404976,46.5040691 27.7671392,46.1305339 C27.4256581,45.6638184 27,45.0839844 27,43.9930827 C27,42.9005534 27.4256581,42.3215332 27.7671392,41.8556316 C28.0404976,41.4833171 28.2210009,41.2363281 28.2210009,40.6621907 C28.2210009,40.0880534 28.0404976,39.8414714 27.7671392,39.4683431 C27.4256581,39.0016276 27.0008677,38.4222005 27.0008677,37.3312989 C27.0008677,36.2408041 27.4265259,35.6597494 27.7680069,35.1938477 C28.0413654,34.8215332 28.2218687,34.5749511 28.2218687,34 L29.9991323,34 C29.9991323,35.0913086 29.5734742,35.6715495 29.232427,36.1374511 C28.9586346,36.5097656 28.7781313,36.7563477 28.7781313,37.3312989 C28.7781313,37.9046224 28.9586346,38.1516114 29.232427,38.5247396 C29.5734742,38.9914551 29.9991323,39.5704753 29.9991323,40.6621907 C29.9991323,41.7539062 29.5743419,42.3333333 29.2332948,42.7988281 C28.9595025,43.1715495 28.7789992,43.4181316 28.7789992,43.9930827 C28.7789992,44.5680339 28.9595025,44.8138021 29.2332948,45.1873373 C29.5743419,45.6540528 30,46.2338868 30,47.3247884 C30,48.4181316 29.5752098,48.9987793 29.2341626,49.464681 C28.9603704,49.83903 28.779867,50.0864258 28.779867,50.6621907 C28.779867,51.2379557 28.9612381,51.4857584 29.2350304,51.8605144 C29.5726063,52.326416 29.9973966,52.9074707 29.9973966,54 L29.9973966,54 Z" id="路径" fill="#CBA766"></path>
                <path d="M49,54 L47.4443601,54 C47.4443601,53.3181423 47.2282568,53.0186632 46.8997342,52.5642361 C46.4986708,52.0078126 46,51.3172743 46,49.9960938 C46,48.6753472 46.4994303,47.984809 46.8997342,47.4283854 C47.2282568,46.9739583 47.4443601,46.6736111 47.4443601,45.9926216 C47.4443601,45.311632 47.2282568,45.0112848 46.8997342,44.5581598 C46.4986708,44.0026042 46,43.311632 46,41.9917534 C46,40.671875 46.4994303,39.9813368 46.9004938,39.4266493 C47.2282568,38.9730903 47.4451196,38.6736111 47.4451196,37.9943577 C47.4451196,37.3155382 47.2290163,37.014757 46.9004938,36.5625 C46.4994303,36.0078126 46,35.3172743 46,33.9978299 C46,32.6788194 46.4994303,31.9874132 46.9004938,31.4327257 C47.2282568,30.9791667 47.4443601,30.6796876 47.4443601,30 L49,30 C49,31.3190104 48.5005697,32.0104167 48.0991265,32.5651042 C47.7717433,33.0195312 47.5548804,33.3190104 47.5548804,33.9978299 C47.5548804,34.6770833 47.7709837,34.9774306 48.0991265,35.4301216 C48.5005697,35.984809 49,36.6762153 49,37.9943577 C49,39.3125 48.5005697,40.0043403 48.0991265,40.5590278 C47.7717433,41.0121528 47.5548804,41.3125 47.5548804,41.9917534 C47.5548804,42.6727431 47.7709837,42.9722222 48.0991265,43.4257812 C48.5005697,43.9813368 49,44.6727431 49,45.9926216 C49,47.3125 48.5005697,48.0043403 48.0998861,48.5607639 C47.7717433,49.014757 47.5556399,49.3155382 47.5556399,49.9960938 C47.5556399,50.6770833 47.7717433,50.9774306 48.0998861,51.4318577 C48.5005697,51.9882812 49,52.6796876 49,54 L49,54 Z" id="路径" fill="#CBA766"></path>
                <path d="M8.55524618,54 L7,54 C7,52.6796876 7.49930391,51.9882812 7.89988605,51.4318577 C8.22794579,50.9774306 8.44399447,50.6770833 8.44399447,49.9960938 C8.44399447,49.3155382 8.22794579,49.014757 7.89988605,48.5607639 C7.49930391,48.0043403 7,47.3133681 7,45.9926216 C7,44.671875 7.49930391,43.9813368 7.9006455,43.4257812 C8.22794579,42.9713542 8.44475382,42.671875 8.44475382,41.9917534 C8.44475382,41.311632 8.22870524,41.0112848 7.9006455,40.5590278 C7.49930391,40.0043403 7,39.3133681 7,37.9943577 C7,36.6753472 7.49930391,35.984809 7.9006455,35.4301216 C8.22794579,34.9765626 8.44475382,34.6770833 8.44475382,33.9978299 C8.44475382,33.3190104 8.22870524,33.0186632 7.9006455,32.5651042 C7.49930391,32.0104167 7,31.3190104 7,30 L8.55524618,30 C8.55524618,30.6796876 8.77129476,30.9791667 9.09973418,31.4327257 C9.50069609,31.9874132 10,32.6779514 10,33.9978299 C10,35.3164063 9.50069609,36.0078126 9.09973418,36.5625 C8.77205421,37.015625 8.55524618,37.3155382 8.55524618,37.9943577 C8.55524618,38.6736111 8.77129476,38.9739583 9.09973418,39.4266493 C9.50069609,39.9813368 10,40.671875 10,41.9917534 C10,43.311632 9.50069609,44.0026042 9.10049363,44.5581598 C8.77205421,45.0121528 8.55600553,45.311632 8.55600553,45.9926216 C8.55600553,46.6736111 8.77205421,46.9739583 9.10049363,47.4283854 C9.50145553,47.984809 10,48.6753472 10,49.9960938 C10,51.3172743 9.50069609,52.0078126 9.10049363,52.5642361 C8.77129476,53.0186632 8.55524618,53.3181423 8.55524618,54 L8.55524618,54 Z" id="路径" fill="#CBA766"></path>
                <path d="M56,0 L54.7880544,0.421707417 C54.6901462,0.456321983 44.8071446,3.82829258 28,3.82829258 C11.2254914,3.82829258 1.30985377,0.456321983 1.21106345,0.421707417 L0,0.00168851808 L0,14.3190554 L11.3039945,5.30279097 L15.0531754,16.0696265 L22.4368699,6.35093859 L28,17 L33.5631301,6.35093859 L40.9468246,16.0696265 L44.6960055,5.30279097 L56,14.3190554 L56,0 Z M54.1935484,6.75196169 L51.1570691,8.20535365 L49.3938382,6.79839588 L54.1935484,5.07568534 L54.1935484,6.75196169 Z M39.95407,4.97690709 C41.0337071,4.86884193 42.0560106,4.75064566 43.0289188,4.62442891 L40.938886,10.6275328 L39.95407,4.97690709 Z M39.124937,10.7322209 L35.0414567,5.35935638 C36.1171245,5.29856973 37.1539819,5.22511914 38.1511466,5.14238186 L39.124937,10.7322209 Z M14.9909905,10.4228 L12.9710812,4.62442891 C13.937815,4.74980135 14.9539441,4.86799762 16.0252016,4.97521846 L14.9909905,10.4228 Z M17.8298891,5.14027113 C18.8323462,5.22427493 19.874496,5.29772552 20.9576613,5.35851217 L16.7321699,10.9188021 L17.8298891,5.14027113 Z M1.80645161,5.07568534 L6.60704382,6.79839588 L4.84381303,8.20535365 L1.80645161,6.75196169 L1.80645161,5.07568534 Z M1.80645161,8.68489278 L3.32844005,9.41391038 L1.80645161,10.6275328 L1.80645161,8.68489278 Z M8.204007,5.52525325 L1.80645161,3.22886867 L1.80645161,2.42344554 C3.26316787,2.84346444 5.99754287,3.54546586 9.89226316,4.17823793 L8.204007,5.52525325 Z M25.3970514,8.15089886 L27.0967742,8.15089886 L27.0967742,6.42185635 L25.2903226,6.42185635 L25.2903226,7.94658817 L24.0078125,5.4923272 C25.2938508,5.53200732 26.6191406,5.55733509 28,5.55733509 C29.3808594,5.55733509 30.7061492,5.53200732 31.9921875,5.49148289 L29.8064516,9.67563068 L29.8064516,8.15089886 L28,8.15089886 L28,9.87994137 L29.6997228,9.87994137 L28,13.1337157 L25.3970514,8.15089886 Z M54.1935484,2.42344554 L54.1935484,3.22886867 L47.795993,5.52525325 L46.1077368,4.17823793 C50.0024571,3.54546586 52.7368321,2.84346444 54.1935484,2.42344554 Z M52.67156,9.41391038 L54.1935484,8.68489278 L54.1935484,10.6275328 L52.67156,9.41391038 Z" id="形状" fill="#CBA766" fill-rule="nonzero"></path>
                <path d="M27,35 L20.3645833,28.1780455 C19.484375,27.2735386 19,26.0705042 19,24.7902722 C19,22.1490406 21.0907118,20 23.6597222,20 C24.9040799,20 26.0746528,20.497992 26.9548611,21.4024989 L27,21.449353 L27.0451389,21.4024989 C27.9253472,20.497992 29.0959201,20 30.3402778,20 C32.9092882,20 35,22.1490406 35,24.7902722 C35,26.0696118 34.515625,27.2735386 33.6354167,28.1780455 L27,35 Z" id="路径" fill="#E4C487"></path>
                <path d="M48.5,32 C44.364563,32 41,27.9623047 41,23 C41,18.0372559 44.364563,14 48.5,14 C52.635437,14 56,18.0372559 56,23 C56,27.9623047 52.635437,32 48.5,32 Z" id="路径" fill="#E4C487"></path>
                <path d="M49,28 L49,26.0665565 C49.5152588,26.0665565 50.5,24.5603022 50.5,22.1996696 C50.5,21.6195422 50.4406739,21.0578239 50.3245849,20.5310362 L51.7667237,20 C51.9212646,20.7000236 52,21.440642 52,22.1996696 C52,25.3434034 50.6259766,28 49,28 L49,28 Z" id="路径" fill="#CBA766"></path>
                <path d="M48.7603759,19 C48.4522318,18.6449222 48.1660141,18.5181616 48,18.5181616 L48,17 C48.7094753,17 49.4201253,17.3680505 50,18.0359526 L48.7603759,19 Z" id="路径" fill="#CBA766"></path>
                <path d="M7.5,32 C3.36456305,32 0,27.9623047 0,23 C0,18.0372559 3.36456305,14 7.5,14 C11.635437,14 15,18.0372559 15,23 C15,27.9623047 11.635437,32 7.5,32 Z" id="路径" fill="#E4C487"></path>
                <path d="M7,28 C5.37402344,28 4,25.3430898 4,22.198985 C4,21.4398678 4.07873537,20.699162 4.23400881,20 L5.67614744,20.5310988 C5.55932613,21.0570045 5.5,21.6187891 5.5,22.198985 C5.5,24.5598962 6.48474119,26.0663283 7,26.0663283 L7,28 Z" id="路径" fill="#CBA766"></path>
                <path d="M7.23962407,19 L6,18.0359526 C6.57987468,17.3680505 7.29052467,17 8,17 L8,18.5181616 C7.8339859,18.5181616 7.54776818,18.6449222 7.23962407,19 Z" id="路径" fill="#CBA766"></path>
                <path d="M33.5,18 L32,18 C32,16.9481202 32.6525879,16.4405518 33.0836182,16.1047363 C33.3769531,15.8761596 33.5,15.7642212 33.5,15.6651001 C33.5,15.5664062 33.3769531,15.4544678 33.0836182,15.2258911 C32.6525879,14.8900758 32,14.3825073 32,13.3306275 C32,12.2800293 32.6525879,11.7724609 33.0843506,11.4375 C33.3769531,11.2089234 33.5,11.0978393 33.5,11 L35,11 C35,12.0505982 34.3474121,12.5581665 33.9156494,12.8931275 C33.6230469,13.1217042 33.5,13.2327881 33.5,13.3306275 C33.5,13.4297486 33.6230469,13.541687 33.9163818,13.7702637 C34.3474121,14.1060792 35,14.6136475 35,15.6651001 C35,16.71698 34.3474121,17.2245484 33.9163818,17.5603638 C33.6230469,17.7889405 33.5,17.9008789 33.5,18 L33.5,18 Z" id="路径" fill="#CBA766"></path>
                <path d="M17.5,24 L16,24 C16,22.9481202 16.6525879,22.4405518 17.0836182,22.1047363 C17.3769531,21.8761596 17.5,21.7642212 17.5,21.6651001 C17.5,21.5664062 17.3769531,21.4544678 17.0836182,21.2258911 C16.6525879,20.8900758 16,20.3825073 16,19.3306275 C16,18.2800293 16.6525879,17.7724609 17.0843506,17.4375 C17.3769531,17.2089234 17.5,17.0978393 17.5,17 L19,17 C19,18.0505982 18.3474121,18.5581665 17.9156494,18.8931275 C17.6230469,19.1217042 17.5,19.2327881 17.5,19.3306275 C17.5,19.4297486 17.6230469,19.541687 17.9163818,19.7702637 C18.3474121,20.1060792 19,20.6136475 19,21.6651001 C19,22.71698 18.3474121,23.2245484 17.9163818,23.5603638 C17.6230469,23.7889405 17.5,23.9008789 17.5,24 Z" id="路径" fill="#CBA766"></path>
                <path d="M21.5,50 L20,50 C20,48.9481202 20.6525879,48.4405518 21.0836182,48.1047363 C21.3769531,47.8761596 21.5,47.7642212 21.5,47.6651001 C21.5,47.5664062 21.3769531,47.4544678 21.0836182,47.2258911 C20.6525879,46.8900758 20,46.3825073 20,45.3306275 C20,44.2800293 20.6525879,43.7724609 21.0843506,43.4375 C21.3769531,43.2089234 21.5,43.0978393 21.5,43 L23,43 C23,44.0505982 22.3474121,44.5581665 21.9156494,44.8931275 C21.6230469,45.1217042 21.5,45.2327881 21.5,45.3306275 C21.5,45.4297486 21.6230469,45.541687 21.9163818,45.7702637 C22.3474121,46.1060792 23,46.6136475 23,47.6651001 C23,48.71698 22.3474121,49.2245484 21.9163818,49.5603638 C21.6230469,49.7889405 21.5,49.9008789 21.5,50 Z" id="路径" fill="#CBA766"></path>
                <path d="M1.5,54 L0,54 C0,52.9481202 0.652587937,52.4405518 1.08361819,52.1047363 C1.37695312,51.8761596 1.5,51.7642212 1.5,51.6651001 C1.5,51.5664062 1.37695312,51.4544678 1.08361819,51.2258911 C0.652587937,50.8900758 0,50.3825073 0,49.3306275 C0,48.2800293 0.652587937,47.7724609 1.08435056,47.4375 C1.37695312,47.2089234 1.5,47.0978393 1.5,47 L3,47 C3,48.0505982 2.34741206,48.5581665 1.91564944,48.8931275 C1.62304688,49.1217042 1.5,49.2327881 1.5,49.3306275 C1.5,49.4297486 1.62304688,49.541687 1.91638181,49.7702637 C2.34741206,50.1060792 3,50.6136475 3,51.6651001 C3,52.71698 2.34741206,53.2245484 1.91638181,53.5603638 C1.62304688,53.7889405 1.5,53.9008789 1.5,54 Z" id="路径" fill="#CBA766"></path>
                <path d="M39.5,36 L38,36 C38,34.9481202 38.6525879,34.4405518 39.0836182,34.1047363 C39.3769531,33.8761596 39.5,33.7642212 39.5,33.6651001 C39.5,33.5664062 39.3769531,33.4544678 39.0836182,33.2258911 C38.6525879,32.8900758 38,32.3825073 38,31.3306275 C38,30.2800293 38.6525879,29.7724609 39.0843506,29.4375 C39.3769531,29.2089234 39.5,29.0978393 39.5,29 L41,29 C41,30.0505982 40.3474121,30.5581665 39.9156494,30.8931275 C39.6230469,31.1217042 39.5,31.2327881 39.5,31.3306275 C39.5,31.4297486 39.6230469,31.541687 39.9163818,31.7702637 C40.3474121,32.1060792 41,32.6136475 41,33.6651001 C41,34.71698 40.3474121,35.2245484 39.9163818,35.5603638 C39.6230469,35.7889405 39.5,35.9008789 39.5,36 L39.5,36 Z" id="路径" fill="#CBA766"></path>
                <path d="M54.5,53 L53,53 C53,51.9481202 53.6525879,51.4405518 54.0836182,51.1047363 C54.3769531,50.8761596 54.5,50.7642212 54.5,50.6651001 C54.5,50.5664062 54.3769531,50.4544678 54.0836182,50.2258911 C53.6525879,49.8900758 53,49.3825073 53,48.3306275 C53,47.2800293 53.6525879,46.7724609 54.0843506,46.4375 C54.3769531,46.2089234 54.5,46.0978393 54.5,46 L56,46 C56,47.0505982 55.3474121,47.5581665 54.9156494,47.8931275 C54.6230469,48.1217042 54.5,48.2327881 54.5,48.3306275 C54.5,48.4297486 54.6230469,48.541687 54.9163818,48.7702637 C55.3474121,49.1060792 56,49.6136475 56,50.6651001 C56,51.71698 55.3474121,52.2245484 54.9163818,52.5603638 C54.6230469,52.7889405 54.5,52.9008789 54.5,53 L54.5,53 Z" id="路径" fill="#CBA766"></path>
                <path d="M19,37 C17.7978515,37 17.2177735,36.3474122 16.8339844,35.9160156 C16.3129883,35.3304444 16.3520508,35.3289795 15.8300781,35.9160156 C15.4458008,36.3474122 14.866211,37 13.6640625,37 C12.4628906,37 11.8828125,36.3474122 11.5,35.9160156 C11.2387695,35.6219482 11.1118164,35.5 11,35.5 L11,34 C12.2021485,34 12.7807617,34.6522217 13.165039,35.0843507 C13.6889649,35.6739502 13.6479492,35.6655273 14.1660156,35.0836182 C14.5498047,34.6514893 15.1298828,34 16.3320312,34 C17.5341797,34 18.1137695,34.6522217 18.4980469,35.0836182 C18.758789,35.3769531 18.8862305,35.5 19,35.5 L19,37 Z" id="路径" fill="#CBA766"></path>
                <path d="M41,45 C39.7978515,45 39.2192383,44.3474122 38.834961,43.9152833 C38.3110351,43.3256836 38.3520507,43.3341065 37.8339844,43.9160156 C37.4501953,44.3481445 36.8701172,45 35.6679688,45 C34.4658203,45 33.8862305,44.3474122 33.5019531,43.9160156 C33.241211,43.6226807 33.1137695,43.5 33,43.5 L33,42 C34.2021485,42 34.7822265,42.6522217 35.1660156,43.0836182 C35.6870118,43.6691895 35.6479493,43.6706543 36.1699219,43.0836182 C36.5541993,42.6522217 37.133789,42 38.3359375,42 C39.5371094,42 40.1171875,42.6522217 40.5,43.0836182 C40.7612305,43.3776856 40.8881836,43.5 41,43.5 L41,45 Z" id="路径" fill="#CBA766"></path>
                <polygon id="路径" fill="#CBA766" points="42 50 43 50 43 51 42 51"></polygon>
                <polygon id="路径" fill="#CBA766" points="13 52 14 52 14 53 13 53"></polygon>
                <polygon id="路径" fill="#CBA766" points="55 36 56 36 56 37 55 37"></polygon>
                <polygon id="路径" fill="#CBA766" points="0 34 1 34 1 35 0 35"></polygon>
                <polygon id="路径" fill="#CBA766" points="38 19 39 19 39 20 38 20"></polygon>
            </g>
        </g>
    </g>
</svg>