<?xml version="1.0" encoding="UTF-8"?>
<svg width="57px" height="57px" viewBox="0 0 57 57" version="1.1" xmlns="http://www.w3.org/2000/svg" xmlns:xlink="http://www.w3.org/1999/xlink">
    <!-- Generator: Sketch 64 (93537) - https://sketch.com -->
    <title>perspective</title>
    <desc>Created with Sketch.</desc>
    <g id="官网页面" stroke="none" stroke-width="1" fill="none" fill-rule="evenodd">
        <g id="业务-设计" transform="translate(-299.000000, -2770.000000)">
            <g id="perspective" transform="translate(299.000000, 2770.000000)">
                <polygon id="路径" fill="#DAB475" points="20.4423382 33.7537723 19.5163306 29.8022405 17.9444444 23.2014175 28.5 20.0555556 39.0555556 23.2014175 37.481808 29.8113855 36.5576618 33.7546868 28.5 41.1666667"></polygon>
                <g id="分组" fill="#CBA766">
                    <path d="M28.5,0 C12.7845484,0 0,12.7845484 0,28.5 C0,44.2154516 12.7845484,57 28.5,57 C44.2154516,57 57,44.2154516 57,28.5 C57,12.7845484 44.2154516,0 28.5,0 Z M29.5057742,55.1355484 L30.2155161,53.9072903 L29.4193548,53.4476129 L29.4193548,53.2003065 L28.9918548,53.2003065 L28.6231935,52.9879355 L28.5009194,53.2003065 L28.5,53.2003065 L28.3777258,52.9879355 L28.0090645,53.2003065 L27.5806452,53.2003065 L27.5806452,53.4476129 L26.7844839,53.9072903 L27.4942258,55.1355484 C13.2580161,54.6041613 1.83870968,42.8630806 1.83870968,28.5 C1.83870968,24.0071129 2.96032258,19.7734839 4.93141935,16.0565323 L5.63932258,17.2820323 L6.43456452,16.8232742 L6.64785484,16.9464677 L6.86114516,16.5768871 L7.23072581,16.3635968 L7.10753226,16.1512258 L7.35483871,16.1512258 L7.35483871,15.7237258 L7.56720968,15.3532258 L7.35483871,15.2309516 L7.35483871,14.3115968 L5.94454839,14.3115968 C10.6709516,6.82529032 19.0122581,1.83870968 28.5,1.83870968 C37.9877419,1.83870968 46.3290484,6.82529032 51.0554516,14.3106774 L49.6451613,14.3106774 L49.6451613,15.2300323 L49.4327903,15.3532258 L49.6451613,15.7218871 L49.6451613,16.1493871 L49.8915484,16.1493871 L49.7683548,16.3617581 L50.1379355,16.5750484 L50.3512258,16.944629 L50.5645161,16.8214355 L51.3597581,17.2801935 L52.0676613,16.0546935 C54.0396774,19.7734839 55.1612903,24.0071129 55.1612903,28.5 C55.1612903,42.8630806 43.7419839,54.6041613 29.5057742,55.1355484 Z" id="形状" fill-rule="nonzero"></path>
                    <polygon id="矩形" transform="translate(20.850761, 41.797917) rotate(149.999272) translate(-20.850761, -41.797917) " points="19.9314267 39.8761054 21.770096 39.8761054 21.770096 43.7197285 19.9314267 43.7197285"></polygon>
                    <polygon id="矩形" transform="translate(9.318141, 21.817194) rotate(149.999272) translate(-9.318141, -21.817194) " points="8.39880589 19.8953824 10.2374751 19.8953824 10.2374751 23.7390055 8.39880589 23.7390055"></polygon>
                    <polygon id="矩形" transform="translate(13.163094, 28.476521) rotate(149.999272) translate(-13.163094, -28.476521) " points="12.243759 26.5547099 14.0824283 26.5547099 14.0824283 30.398333 12.243759 30.398333"></polygon>
                    <polygon id="矩形" transform="translate(24.696236, 48.454714) rotate(149.999272) translate(-24.696236, -48.454714) " points="23.7769012 46.5329028 25.6155704 46.5329028 25.6155704 50.3765259 23.7769012 50.3765259"></polygon>
                    <rect id="矩形" x="18.8881452" y="14.3106774" width="3.84566129" height="1.83870968"></rect>
                    <rect id="矩形" x="11.1995806" y="14.3106774" width="3.84474194" height="1.83870968"></rect>
                    <rect id="矩形" x="34.2643548" y="14.3106774" width="3.84474194" height="1.83870968"></rect>
                    <rect id="矩形" x="41.9556774" y="14.3106774" width="3.84566129" height="1.83870968"></rect>
                    <polygon id="矩形" transform="translate(32.304182, 48.445257) rotate(119.992901) translate(-32.304182, -48.445257) " points="30.3822431 47.5258887 34.2261218 47.5258887 34.2261218 49.3646252 30.3822431 49.3646252"></polygon>
                    <polygon id="矩形" transform="translate(47.681774, 21.814378) rotate(119.992901) translate(-47.681774, -21.814378) " points="45.7598351 20.8950098 49.6037138 20.8950098 49.6037138 22.7337463 45.7598351 22.7337463"></polygon>
                    <polygon id="矩形" transform="translate(43.835755, 28.472950) rotate(119.992901) translate(-43.835755, -28.472950) " points="41.9138161 27.553582 45.7576948 27.553582 45.7576948 29.3923185 41.9138161 29.3923185"></polygon>
                    <polygon id="矩形" transform="translate(36.143850, 41.788328) rotate(119.992901) translate(-36.143850, -41.788328) " points="34.2219111 40.8689598 38.0657898 40.8689598 38.0657898 42.7076964 34.2219111 42.7076964"></polygon>
                    <polygon id="路径" points="39.6554516 33.8791452 38.516371 33.2199677 37.5951774 34.8104516 38.7360968 35.4714677 38.2350484 36.3393387 39.827371 37.2586935 41.7497419 33.9297097 40.1574194 33.0103548"></polygon>
                    <rect id="矩形" x="27.5806452" y="45.986129" width="1.83870968" height="3.60662903"></rect>
                    <polygon id="矩形" transform="translate(11.794776, 18.857859) rotate(120.013517) translate(-11.794776, -18.857859) " points="10.8754294 17.0536411 12.7141233 17.0536411 12.7141233 20.6620779 10.8754294 20.6620779"></polygon>
                    <polygon id="矩形" transform="translate(37.256825, 33.557021) rotate(120.046921) translate(-37.256825, -33.557021) " points="36.3374867 32.6376828 38.1761632 32.6376828 38.1761632 34.4763593 36.3374867 34.4763593"></polygon>
                    <polygon id="矩形" transform="translate(19.744150, 33.551139) rotate(149.927503) translate(-19.744150, -33.551139) " points="18.8247867 32.6317757 20.6635133 32.6317757 20.6635133 34.4705023 18.8247867 34.4705023"></polygon>
                    <polygon id="路径" points="19.4048226 34.8095323 18.483629 33.2190484 17.3445484 33.8782258 16.8435 33.0103548 15.2511774 33.9297097 17.1735484 37.2586935 18.765871 36.3393387 18.2639032 35.4705484"></polygon>
                    <polygon id="矩形" transform="translate(45.208940, 18.853189) rotate(149.986483) translate(-45.208940, -18.853189) " points="43.4047214 17.9338423 47.0131582 17.9338423 47.0131582 19.7725362 43.4047214 19.7725362"></polygon>
                    <path d="M40.9784032,22.359629 L40.0590484,20.7673065 L38.4676452,21.6866613 L28.5,27.4436613 L18.5323548,21.6866613 L16.9409516,20.7673065 L16.0215968,22.359629 L17.613,23.2789839 L27.5806452,29.0359839 L27.5806452,40.5435484 L27.5806452,42.3822581 L29.4193548,42.3822581 L29.4193548,40.5435484 L29.4193548,29.0359839 L39.387,23.2799032 L40.9784032,22.359629 Z M28.5,28.5 L28.5,28.484371 L28.5,28.484371 L28.5,28.5 L28.5,28.5 Z" id="形状" fill-rule="nonzero"></path>
                    <rect id="矩形" x="27.5806452" y="17.486129" width="1.83870968" height="1.83870968"></rect>
                    <polygon id="路径" points="27.5806452 17.4677419 29.4193548 17.4677419 29.4193548 16.1493871 30.422371 16.1493871 30.422371 14.3106774 26.577629 14.3106774 26.577629 16.1493871 27.5806452 16.1493871"></polygon>
                </g>
            </g>
        </g>
    </g>
</svg>