<?xml version="1.0" encoding="UTF-8"?>
<svg width="65px" height="64px" viewBox="0 0 65 64" version="1.1" xmlns="http://www.w3.org/2000/svg" xmlns:xlink="http://www.w3.org/1999/xlink">
    <!-- Generator: Sketch 64 (93537) - https://sketch.com -->
    <title>shop</title>
    <desc>Created with Sketch.</desc>
    <g id="官网页面" stroke="none" stroke-width="1" fill="none" fill-rule="evenodd">
        <g id="业务-设计" transform="translate(-1558.000000, -2572.000000)">
            <g id="shop" transform="translate(1558.000000, 2572.000000)">
                <path d="M60.8064516,25.6521245 L65,25.6521245 L65,19.2608498 L61.6252559,19.2608498 L60.576757,15 L4.42324301,15 L3.37496774,19.2608498 L0,19.2608498 L0,25.6521245 L4.19354839,25.6521245 L4.19354839,37.3695751 L4.19354839,42.695751 L4.19354839,57.6087253 L0,57.6087253 L0,64 L65,64 L65,57.6087253 L60.8064516,57.6087253 L60.8064516,43.4638402 L61.9354667,43.846294 L65,42.2889818 L65,38.0942604 L60.7467355,32.0438537 L60.8064516,32.0438537 L60.8064516,25.6521245 Z M6.06062796,17.1304249 L58.9391484,17.1304249 L59.4633978,19.2608498 L5.53660215,19.2608498 L6.06062796,17.1304249 Z M2.09677419,23.5216996 L2.09677419,21.3912747 L2.85049462,21.3912747 L62.1492817,21.3912747 L62.9030022,21.3912747 L62.9030022,23.5216996 L60.806228,23.5216996 L58.7096774,23.5216996 L6.29032258,23.5216996 L4.19354839,23.5216996 L2.09677419,23.5216996 Z M58.7096774,25.6521245 L58.7096774,29.9129743 L28.3063398,29.9129743 L26.6772301,29.9129743 L6.29032258,29.9129743 L6.29032258,25.6521245 L58.7096774,25.6521245 L58.7096774,25.6521245 Z M57.6611785,40.8634719 L55.5644043,41.5740681 L53.4676301,40.8634719 L53.4676301,39.307296 L50.7868903,32.0436265 L53.8681978,32.0436265 L57.6611785,39.7515606 L57.6611785,40.8634719 Z M23.0645161,57.608498 L23.0645161,43.3538534 L24.0322753,43.8460668 L26.2097892,43.107974 L26.2097892,57.6087253 L23.0645161,57.6087253 L23.0645161,57.608498 Z M23.0645161,39.805645 L27.8388989,32.0433992 L28.3065634,32.0433992 L29.7554065,32.0433992 L26.2097892,39.2484394 L26.2097892,40.8632447 L24.1937548,41.5461169 L23.0647398,40.971868 L23.0647398,40.5648716 L23.0647398,39.805645 L23.0645161,39.805645 Z M20.9677419,40.5650988 L9.43537204,40.5650988 L6.29032258,40.5650988 L6.29032258,39.4997728 L20.9677419,39.4997728 L20.9677419,40.5650988 Z M11.5321462,42.6955237 L20.9677419,42.6955237 L20.9677419,57.608498 L11.5321462,57.608498 L11.5321462,42.6955237 Z M28.3063398,39.7513333 L32.0993204,32.0433992 L35.180628,32.0433992 L32.4998882,39.3059325 L32.4998882,40.8621085 L30.403114,41.5727046 L28.3063398,40.8621085 L28.3063398,39.7513333 L28.3063398,39.7513333 Z M48.5476473,32.0433992 L51.3708559,39.6938403 L51.3708559,40.8634719 L49.2740817,41.5740681 L47.1773075,40.8634719 L47.1773075,39.5 L46.2672516,32.0433992 L48.5476473,32.0433992 Z M44.1548215,32.0433992 L45.0805333,39.5670374 L45.0805333,40.8634719 L42.9837591,41.5740681 L40.8869849,40.8634719 L40.8869849,39.5670374 L41.8126968,32.0433992 L44.1548215,32.0433992 Z M38.7987097,39.3679705 L38.7935656,40.862563 L36.6936602,41.5731591 L34.596886,40.862563 L34.596886,39.6929313 L37.4200946,32.0436265 L39.699372,32.0436265 L38.7987097,39.3679705 Z M33.5483871,42.7530168 L36.6934366,43.8183429 L39.838486,42.7530168 L42.9835355,43.8183429 L46.1285849,42.7530168 L49.2736344,43.8183429 L52.4186839,42.7530168 L53.4669591,43.1077467 L53.4669591,52.2823222 L33.5483871,52.2823222 L33.5483871,42.7530168 Z M6.29032258,32.0433992 L25.3668301,32.0433992 L22.0904946,37.3695751 L6.29032258,37.3695751 L6.29032258,32.0433992 Z M6.29032258,42.6955237 L9.43537204,42.6955237 L9.43537204,57.608498 L6.29032258,57.608498 L6.29032258,42.6955237 Z M62.9032258,61.8693479 L2.09677419,61.8693479 L2.09677419,59.7389229 L4.19354839,59.7389229 L6.29032258,59.7389229 L9.43537204,59.7389229 L23.0642925,59.7389229 L62.9032258,59.7389229 L62.9032258,61.8693479 Z M58.7096774,57.608498 L28.3063398,57.608498 L28.3063398,43.1077467 L30.403114,43.8183429 L31.4513892,43.4636129 L31.4513892,54.4129743 L55.5641806,54.4129743 L55.5641806,43.8183429 L58.7092301,42.7530168 L58.7092301,57.608498 L58.7096774,57.608498 Z M62.9032258,40.9720952 L61.7742108,41.5452079 L59.7581763,40.8623357 L59.7581763,39.2475304 L56.2125591,32.0433992 L58.1699957,32.0433992 L62.9034495,38.7755419 L62.9034495,40.9720952 L62.9032258,40.9720952 Z" id="形状" fill="#CBA766" fill-rule="nonzero"></path>
                <path d="M56,17 L10,17 L10,3.18742917 C10,1.43005907 11.4070982,0 13.1362521,0 L52.8635248,0 C54.5926788,0 56,1.43005907 56,3.18742917 L56,17 L56,17 Z" id="路径" fill="#E4C487"></path>
                <path d="M17.9999695,11.8002347 L17.0000305,11.8002347 C16.4489653,11.8002347 16.0000914,11.3062613 16.0000914,10.7001173 L14,10.7001173 C14,12.519488 15.3459815,14 17.0000305,14 L17.9999695,14 C19.6540185,14 21,12.519488 21,10.7001173 C21,8.88074667 19.6540185,7.40023467 17.9999695,7.40023467 L17.0000305,7.40023467 C16.4489653,7.40023467 16.0000914,6.90626133 16.0000914,6.30011733 C16.0000914,5.69397333 16.4491786,5.2 17.0000305,5.2 L17.9999695,5.2 C18.5510347,5.2 18.9999086,5.69397333 18.9999086,6.30011733 L21,6.30011733 C21,4.48074667 19.6540185,3 17.9999695,3 L17.0000305,3 C15.3459815,3 14,4.480512 14,6.30011733 C14,8.11972267 15.3459815,9.60023467 17.0000305,9.60023467 L17.9999695,9.60023467 C18.5510347,9.60023467 18.9999086,10.094208 18.9999086,10.700352 C19.0001219,11.3062613 18.5510347,11.8002347 17.9999695,11.8002347 Z" id="路径" fill="#333333"></path>
                <polygon id="路径" fill="#333333" points="25 9.6 29 9.6 29 14 31 14 31 3 29 3 29 7.4 25 7.4 25 3 23 3 23 14 25 14"></polygon>
                <path d="M38,14 C40.20608,14 42,12.026688 42,9.6 L42,7.4 C42,4.973312 40.20608,3 38,3 C35.79392,3 34,4.973312 34,7.4 L34,9.6 C34,12.0264533 35.79392,14 38,14 Z M36,7.4 C36,6.18677333 36.8970667,5.2 38,5.2 C39.1029333,5.2 40,6.18677333 40,7.4 L40,9.6 C40,10.8132267 39.1029333,11.8 38,11.8 C36.8970667,11.8 36,10.8132267 36,9.6 L36,7.4 Z" id="形状" fill="#333333" fill-rule="nonzero"></path>
                <path d="M46.0000305,9.60023467 L48.000061,9.60023467 C49.6540595,9.60023467 51,8.11972267 51,6.30011733 C51,4.480512 49.6540595,3 48.000061,3 L44,3 L44,14 L46.0000305,14 L46.0000305,9.60023467 Z M46.0000305,5.20023467 L48.000061,5.20023467 C48.5511094,5.20023467 48.9999695,5.694208 48.9999695,6.300352 C48.9999695,6.906496 48.550896,7.40046933 48.000061,7.40046933 L46.0000305,7.40046933 L46.0000305,5.20023467 Z" id="形状" fill="#333333" fill-rule="nonzero"></path>
            </g>
        </g>
    </g>
</svg>