<?xml version="1.0" encoding="UTF-8"?>
<svg width="72px" height="65px" viewBox="0 0 72 65" version="1.1" xmlns="http://www.w3.org/2000/svg" xmlns:xlink="http://www.w3.org/1999/xlink">
    <!-- Generator: Sketch 64 (93537) - https://sketch.com -->
    <title>人工智能应用</title>
    <desc>Created with Sketch.</desc>
    <g id="官网页面" stroke="none" stroke-width="1" fill="none" fill-rule="evenodd">
        <g id="业务-技术" transform="translate(-1553.000000, -2269.000000)" fill="#FFFFFF">
            <g id="cube-(1)" transform="translate(1553.000000, 2269.000000)">
                <path d="M3.41510223,0 L1.1418598,0 C0.511103735,0 0,0.527503067 0,1.17849764 L0,3.37846438 C0,4.02945896 0.511103735,4.55696203 1.1418598,4.55696203 C1.77261586,4.55696203 2.2837196,4.02930224 2.2837196,3.37830767 L2.2837196,2.35699528 L3.41510223,2.35699528 C4.04585829,2.35699528 4.55696203,1.82949222 4.55696203,1.17849764 C4.55696203,0.527503067 4.04585829,0 3.41510223,0 Z" id="路径"></path>
                <path d="M70.8581402,0 L68.5848978,0 C67.9541417,0 67.443038,0.527503067 67.443038,1.17849764 C67.443038,1.82949222 67.9541417,2.35699528 68.5848978,2.35699528 L69.7162804,2.35699528 L69.7162804,3.37846438 C69.7162804,4.02945896 70.2273841,4.55696203 70.8581402,4.55696203 C71.4888963,4.55696203 72,4.02930224 72,3.37830767 L72,1.17849764 C72,0.527503067 71.4888963,0 70.8581402,0 Z" id="路径"></path>
                <path d="M3.41510223,61.440392 L2.2837196,61.440392 L2.2837196,60.4190445 C2.2837196,59.7680275 1.77261586,59.2405063 1.1418598,59.2405063 C0.511103735,59.2405063 0,59.7680275 0,60.4190445 L0,62.6189302 C0,63.2699471 0.511103735,63.7974684 1.1418598,63.7974684 L3.41510223,63.7974684 C4.04585829,63.7974684 4.55696203,63.2699471 4.55696203,62.6189302 C4.55696203,61.9679132 4.04585829,61.440392 3.41510223,61.440392 Z" id="路径"></path>
                <path d="M70.8581402,59.2405063 C70.2273841,59.2405063 69.7162804,59.7680275 69.7162804,60.4190445 L69.7162804,61.440392 L68.5848978,61.440392 C67.9541417,61.440392 67.443038,61.9679132 67.443038,62.6189302 C67.443038,63.2699471 67.9541417,63.7974684 68.5848978,63.7974684 L70.8581402,63.7974684 C71.4888963,63.7974684 72,63.2699471 72,62.6189302 L72,60.4190445 C72,59.7680275 71.4888963,59.2405063 70.8581402,59.2405063 Z" id="路径"></path>
                <path d="M36.4556962,14.5822785 C35.9522489,14.5822785 35.5443038,15.0582144 35.5443038,15.6455696 L35.5443038,19.8987342 C35.5443038,20.4860894 35.9522489,20.9620253 36.4556962,20.9620253 C36.9591435,20.9620253 37.3670886,20.4860894 37.3670886,19.8987342 L37.3670886,15.6455696 C37.3670886,15.0582144 36.9591435,14.5822785 36.4556962,14.5822785 Z" id="路径"></path>
                <path d="M64.2235793,44.7720316 L64.2235793,31.7229059 C64.2235793,31.1414892 63.7530936,30.6703652 63.1724644,30.6703652 C62.5918353,30.6703652 62.1213495,31.1414892 62.1213495,31.7229059 L62.1213495,44.7720316 C61.3989876,44.9558064 60.7501478,45.3250354 60.2268268,45.8249923 L57.2030545,44.3371588 C56.6818301,44.0808819 56.0519998,44.2960089 55.7960701,44.8176604 C55.5401404,45.3394519 55.7548362,45.9701365 56.2759208,46.2265534 L59.1035876,47.6179506 C58.9727573,48.0279097 58.9014716,48.4643222 58.9014716,48.9172506 C58.9014716,49.1218802 58.9168469,49.3228707 58.9446623,49.5199421 L39.809759,57.7735691 C39.2368175,57.0528866 38.4374391,56.5205977 37.5196704,56.2869953 L37.5196704,36.9899485 C37.6349856,37.0310984 37.7536553,37.0511135 37.8709273,37.0511135 C38.259085,37.0511135 38.6324265,36.8348667 38.8151136,36.4624185 C39.0710433,35.940627 38.8563475,35.3099424 38.3352629,35.0535255 L37.5195307,34.6521044 L37.5195307,31.8568529 C39.3676478,31.3864288 40.7388495,29.7065626 40.7388495,27.711634 C40.7388495,27.4734127 40.7184422,27.2400902 40.6808425,27.0123662 L59.8054024,18.6205933 C60.380161,19.3576518 61.1896033,19.9023976 62.12107,20.1393592 L62.12107,24.1444727 C62.12107,24.7258895 62.5915557,25.1970134 63.1721849,25.1970134 C63.752814,25.1970134 64.2232997,24.7258895 64.2232997,24.1444727 L64.2232997,20.1393592 C66.0715567,19.669215 67.443038,17.9890689 67.443038,15.9941403 C67.443038,13.6360011 65.5271295,11.7174937 63.1721849,11.7174937 C61.8055958,11.7174937 60.5875884,12.3644144 59.8054024,13.3676872 L40.6811221,4.97605429 C40.7187218,4.74833038 40.7391291,4.51500785 40.7391291,4.27678653 C40.7391291,1.91864739 38.8232206,0 36.4681362,0 C34.1131916,0 32.1972832,1.91850743 32.1972832,4.27678653 C32.1972832,4.51514782 32.2178302,4.74861031 32.25543,4.97647418 L13.1126992,13.3762251 C12.3306529,12.3681934 11.1097103,11.7176337 9.73920749,11.7176337 C7.38426289,11.7176337 5.46835443,13.6361411 5.46835443,15.9942803 C5.46835443,17.9984466 6.85269508,19.6843313 8.71395116,20.1455177 L8.71395116,44.7660131 C6.85269508,45.2270596 5.46835443,46.9130843 5.46835443,48.9172506 C5.46835443,51.2753897 7.38426289,53.1940371 9.73920749,53.1940371 C11.1446543,53.1940371 12.3934123,52.5104455 13.1721039,51.4580447 L18.1545562,53.6069354 C18.289999,53.665301 18.4310329,53.6930142 18.5698304,53.6930142 C18.9769977,53.6930142 19.3644565,53.4546529 19.5358218,53.056591 C19.7653338,52.5227625 19.5193282,51.903415 18.9862229,51.6734517 L13.9682675,49.5091648 C13.9951045,49.3155925 14.0100605,49.1182411 14.0100605,48.9172506 C14.0100605,48.4683812 13.9403124,48.0356078 13.8115788,47.6288679 L16.6614699,46.2265534 C17.1825545,45.9701365 17.3972503,45.3394519 17.1413206,44.8176604 C16.8853909,44.2960089 16.2554208,44.0810219 15.7343362,44.3371588 L12.6935112,45.8333902 C12.1749426,45.3351129 11.5322529,44.965604 10.8160411,44.77861 L10.8160411,20.1329208 C11.7402395,19.8916202 12.542693,19.3467345 13.1125594,18.6121954 L32.2552902,27.0119464 C32.2176905,27.2398102 32.1971434,27.4732727 32.1971434,27.711634 C32.1971434,29.7068425 33.5689042,31.3871286 35.4174407,31.8571329 L35.4174407,34.6522444 L34.6018482,35.0535255 C34.0807636,35.3099424 33.8660678,35.940627 34.1219975,36.4624185 C34.3048244,36.8347268 34.6780261,37.0511135 35.0661838,37.0511135 C35.1834558,37.0511135 35.3021256,37.0312384 35.4173009,36.9900885 L35.4173009,56.2867153 C34.4993925,56.5200378 33.6997345,57.0523267 33.1266532,57.7730092 L25.8078466,54.6162268 C25.274881,54.3861235 24.6562328,54.6326028 24.4267208,55.1664313 C24.197069,55.7002598 24.4429348,56.3194673 24.9761799,56.5494306 L32.262279,59.6922165 C32.2202064,59.9326772 32.1970036,60.1795764 32.1970036,60.4320742 C32.1970036,62.7902134 34.1129121,64.7088608 36.4678567,64.7088608 C38.8229411,64.7088608 40.7388495,62.7902134 40.7388495,60.4320742 C40.7388495,60.1798564 40.7156467,59.9330971 40.6735742,59.6927763 L59.745159,51.4665826 C60.52427,52.5142246 61.7703722,53.1941771 63.1721849,53.1941771 C65.5269897,53.1941771 67.443038,51.2756697 67.443038,48.9173906 C67.443038,46.922322 66.0718362,45.2423158 64.2235793,44.7720316 Z M63.1724644,13.8227152 C64.3682474,13.8227152 65.3410877,14.7968752 65.3410877,15.9942803 C65.3410877,17.1916853 64.3682474,18.1658453 63.1724644,18.1658453 C61.9766815,18.1658453 61.0038411,17.1916853 61.0038411,15.9942803 C61.0038411,14.7968752 61.9766815,13.8227152 63.1724644,13.8227152 Z M11.9078308,48.9172506 C11.9078308,50.1147956 10.9349904,51.0889556 9.73920749,51.0889556 C8.54342454,51.0889556 7.57058418,50.1147956 7.57058418,48.9172506 C7.57058418,47.7198455 8.54342454,46.7456855 9.73920749,46.7456855 C10.9349904,46.7456855 11.9078308,47.7198455 11.9078308,48.9172506 Z M11.7433145,16.8218964 C11.7380031,16.8330936 11.7317131,16.843591 11.726821,16.8550682 C11.7233266,16.8630463 11.7209504,16.8713042 11.7175958,16.8794222 C11.3783596,17.6363558 10.6200753,18.1658453 9.73934727,18.1658453 C8.54356432,18.1658453 7.57072396,17.1916853 7.57072396,15.9942803 C7.57072396,14.7968752 8.54356432,13.8227152 9.73934727,13.8227152 C10.9351302,13.8227152 11.9079706,14.7968752 11.9079706,15.9942803 C11.9078308,16.2873681 11.8488454,16.5665993 11.7433145,16.8218964 Z M36.4681362,2.10508147 C37.664059,2.10508147 38.6368993,3.07924151 38.6368993,4.27678653 C38.6368993,5.47419158 37.664059,6.44835163 36.4681362,6.44835163 C35.2723533,6.44835163 34.2995129,5.47419158 34.2995129,4.27678653 C34.2995129,3.07924151 35.2723533,2.10508147 36.4681362,2.10508147 Z M33.1014936,25.085041 L13.9538706,16.6831906 C13.9903521,16.4588258 14.0100605,16.2288625 14.0100605,15.9942803 C14.0100605,15.759698 13.9903521,15.5297347 13.9538706,15.3053699 L33.1014936,6.90351951 C33.6762521,7.64043799 34.4856944,8.18518381 35.4170214,8.42214544 L35.4170214,11.7111953 C35.4170214,12.2926121 35.8875071,12.763736 36.4681362,12.763736 C37.0487654,12.763736 37.5192511,12.2926121 37.5192511,11.7111953 L37.5192511,8.42200547 C38.4508576,8.18504384 39.2604397,7.64015806 39.8351982,6.90295965 L58.9598979,15.2948725 C58.9221584,15.5225964 58.9017511,15.7560589 58.9017511,15.9942803 C58.9017511,16.2325016 58.9221584,16.4659641 58.9598979,16.693688 L39.835338,25.0854609 C39.1697251,24.2316712 38.188638,23.6366778 37.0686136,23.4782368 C36.8983665,23.3592661 36.6916379,23.2890034 36.468276,23.2890034 C36.2449141,23.2890034 36.0381855,23.3592661 35.8679385,23.4782368 C34.7480538,23.6366778 33.7671065,24.2315312 33.1014936,25.085041 Z M34.2995129,27.711774 C34.2995129,26.5143689 35.2723533,25.5402089 36.4681362,25.5402089 C37.664059,25.5402089 38.6368993,26.5143689 38.6368993,27.711774 C38.6368993,28.909319 37.664059,29.883479 36.4681362,29.883479 C35.2723533,29.883479 34.2995129,28.909319 34.2995129,27.711774 Z M36.4681362,62.6037793 C35.2723533,62.6037793 34.2995129,61.6296192 34.2995129,60.4320742 C34.2995129,59.2346692 35.2723533,58.2605091 36.4681362,58.2605091 C37.664059,58.2605091 38.6368993,59.2346692 38.6368993,60.4320742 C38.6368993,61.6296192 37.664059,62.6037793 36.4681362,62.6037793 Z M63.1724644,51.0889556 C62.2969081,51.0889556 61.5426773,50.5656246 61.2005058,49.8156893 C61.1894635,49.7799981 61.1767439,49.7447268 61.1616481,49.7095954 C61.15424,49.6923797 61.1454341,49.6764236 61.1371873,49.6599077 C61.0524831,49.4277049 61.0038411,49.1784263 61.0038411,48.9172506 C61.0038411,48.5315056 61.1058775,48.1695548 61.2828338,47.8553322 C61.3510445,47.7818503 61.4100299,47.697591 61.4564355,47.6028344 C61.4595106,47.5963959 61.461747,47.5898176 61.4648221,47.5833791 C61.8620652,47.0746045 62.4788963,46.7456855 63.1724644,46.7456855 L63.1726042,46.7456855 C64.3683871,46.7456855 65.3410877,47.7198455 65.3410877,48.9172506 C65.3410877,50.1147956 64.3682474,51.0889556 63.1724644,51.0889556 Z" id="形状" fill-rule="nonzero"></path>
                <path d="M31.7815413,37.1325366 C31.5036828,36.5325858 30.8197352,36.2853294 30.2540026,36.5799122 L26.1571459,38.7153957 C25.5914133,39.0103004 25.3583218,39.73565 25.6361803,40.3357618 C25.8345205,40.7639531 26.2400026,41.0126582 26.661267,41.0126582 C26.8301673,41.0126582 27.0017992,40.9725757 27.1637189,40.8883862 L31.2605756,38.7529027 C31.8263082,38.457998 32.0593997,37.7326483 31.7815413,37.1325366 Z" id="路径"></path>
                <path d="M24.4904048,40.7781661 C24.2124012,40.1782246 23.5283181,39.9308111 22.9629025,40.2255503 L18.8659915,42.3610008 C18.3002724,42.6559009 18.0671864,43.3812394 18.3450382,43.9813419 C18.5433738,44.4095266 18.9485428,44.6582278 19.3701006,44.6582278 C19.5389969,44.6582278 19.7106247,44.6181459 19.8725405,44.5339577 L23.9694516,42.3985072 C24.5351707,42.1036071 24.7682567,41.3781076 24.4904048,40.7781661 Z" id="路径"></path>
                <path d="M45.8428541,38.7154312 L41.7459974,36.5799807 C41.180113,36.2852415 40.4963172,36.532655 40.2184587,37.1325965 C39.9406003,37.732699 40.1736918,38.4580374 40.7394244,38.7529376 L44.8362811,40.8883881 C44.9982008,40.9727372 45.1696809,41.0126582 45.338733,41.0126582 C45.7601491,41.0126582 46.1654795,40.763957 46.3638197,40.3357723 C46.6416782,39.7356698 46.4085867,39.0103313 45.8428541,38.7154312 Z" id="路径"></path>
                <path d="M53.1339934,42.3608842 L49.0371366,40.2254862 C48.4712523,39.9308931 47.7874564,40.1781581 47.509598,40.7781301 C47.2317395,41.378263 47.464831,42.1036383 48.0305636,42.3985534 L52.1274204,44.5339514 C52.2893401,44.6183048 52.4608202,44.6582278 52.6298722,44.6582278 C53.0512884,44.6582278 53.4566187,44.409514 53.654959,43.9813075 C53.9328174,43.3811746 53.6997259,42.6557993 53.1339934,42.3608842 Z" id="路径"></path>
            </g>
        </g>
    </g>
</svg>