<?xml version="1.0" encoding="UTF-8"?>
<svg width="62px" height="62px" viewBox="0 0 62 62" version="1.1" xmlns="http://www.w3.org/2000/svg" xmlns:xlink="http://www.w3.org/1999/xlink">
    <!-- Generator: Sketch 64 (93537) - https://sketch.com -->
    <title>创意策略</title>
    <desc>Created with Sketch.</desc>
    <g id="官网页面" stroke="none" stroke-width="1" fill="none" fill-rule="evenodd">
        <g id="业务-设计" transform="translate(-1238.000000, -3743.000000)">
            <g id="brainstorm" transform="translate(1238.000000, 3743.000000)">
                <path d="M34.0154545,62 C31.2044309,62 28.6423467,60.6434644 27.0730327,58.3898329 C25.63018,59.4483268 23.8915873,60.019656 22.0663636,60.019656 C20.4333212,60.019656 18.8640073,59.5572457 17.4938448,58.6789631 C16.7071964,58.9116536 15.90362,59.029484 15.0960606,59.029484 C10.4289448,59.029484 6.63212121,55.2539582 6.63212121,50.6130221 C6.63212121,49.5683907 6.82529818,48.5495037 7.20866485,47.5761646 C6.19100061,46.156258 5.63636364,44.4442506 5.63636364,42.6916462 C5.63636364,38.9478059 8.14467697,35.6653857 11.69754,34.6207543 C12.2571558,30.4848059 15.8030485,27.3439803 20.0748485,27.3439803 C20.8465606,27.3439803 21.6152855,27.4509189 22.3650909,27.6638059 C23.6804867,26.2112236 25.5674473,25.3636364 27.5430303,25.3636364 C29.4847576,25.3636364 31.3159558,26.1656757 32.6233855,27.5489459 C34.4515964,26.133 36.6781103,25.3636364 38.9942424,25.3636364 C44.3862697,25.3636364 48.8104206,29.3758133 49.3780024,34.6266953 C52.9228994,35.6762776 55.4242424,38.9547371 55.4242424,42.6916462 C55.4242424,44.9621106 54.5131242,47.1078133 52.9029842,48.6861474 C53.2544867,49.6228501 53.4327273,50.60114 53.4327273,51.6031941 C53.4327273,56.2441302 49.6359036,60.019656 44.9687879,60.019656 C43.4203848,60.019656 41.9396933,59.6097248 40.6302721,58.8245184 C39.0310855,60.8296167 36.6263309,62 34.0154545,62 Z" id="路径" fill="#E4C487"></path>
                <g id="分组" fill="#CBA766">
                    <path d="M44.5702811,42.9968871 L44.5702811,44.9851824 C47.9715663,44.9851824 50.7633092,47.6186796 51.0192771,50.9500685 L51.0172851,50.9500685 C51.0292369,51.115097 51.0441767,51.2801255 51.0441767,51.4471423 C51.0441767,55.0101676 48.1398876,57.9091022 44.5702811,57.9091022 C43.1201285,57.9091022 41.7446747,57.4348938 40.5933173,56.5381726 L40.5873414,56.5461258 C39.0146827,55.3253124 38.0754699,53.4423967 38.0754699,51.4471423 L36.083502,51.4471423 C36.083502,54.1651421 37.4061687,56.7340197 39.6222329,58.3186911 L39.6371727,58.297814 C41.0853333,59.341669 42.78249,59.8973976 44.5702811,59.8973976 C49.2384578,59.8973976 53.0361446,56.1067125 53.0361446,51.4471423 C53.0361446,46.7875722 49.2384578,42.9968871 44.5702811,42.9968871 Z" id="路径"></path>
                    <path d="M26.0360161,46.2706154 C25.107759,47.1196175 23.9643695,47.668387 22.7393092,47.8731814 C22.072996,45.7974011 20.6308112,44.0228475 18.6308755,42.9710392 L17.7026185,44.7306806 C19.838008,45.8540675 21.1646586,48.0461631 21.1646586,50.4529947 C21.1646586,53.242573 19.3808514,55.6175918 16.8948755,56.5212721 C16.5442892,56.6475288 16.1887229,56.742967 15.8311647,56.8085808 C15.807261,56.8125574 15.7833574,56.8155398 15.7594538,56.8195164 C15.4038876,56.8801594 15.0473253,56.9149546 14.6907631,56.9149546 C11.1211566,56.9149546 8.21686747,54.0160199 8.21686747,50.4529947 C8.21686747,49.4966246 8.42901205,48.5670965 8.8473253,47.6872758 L7.04758233,46.8342971 C6.50178313,47.9825377 6.2248996,49.1993744 6.2248996,50.4529947 C6.2248996,55.1125648 10.0225863,58.9032499 14.6907631,58.9032499 C14.9537028,58.9032499 15.2156466,58.8883377 15.4775904,58.863484 C15.6160321,58.8505601 15.75049,58.8276947 15.8869398,58.8088059 C15.9994859,58.7928995 16.1110361,58.7779873 16.2235823,58.7571102 C16.4048514,58.7233092 16.5831325,58.681555 16.7604177,58.6368183 C16.8201767,58.6219061 16.8789398,58.6079881 16.9377028,58.5910875 C17.1378956,58.5364094 17.3341044,58.4737781 17.5273253,58.4041878 C17.547245,58.3972287 17.5671647,58.392258 17.5870843,58.385299 L17.5860884,58.3823165 C20.830008,57.1992808 23.1566265,54.0955517 23.1566265,50.4529947 C23.1566265,50.2412412 23.128739,50.0354526 23.1137992,49.8266816 C24.6984096,49.5522969 26.1794378,48.8365105 27.3815904,47.7359891 L26.0360161,46.2706154 Z" id="路径"></path>
                    <path d="M58.0160643,3.23097995 L60.4064257,5.02044577 L61.6016064,3.42980949 L57.0200803,0 L52.4385542,3.42980949 L53.6337349,5.02044577 L56.0240964,3.23097995 L56.0240964,10.1900137 C56.0240964,12.9308788 53.7901044,15.1607521 51.0441767,15.1607521 L47.060241,15.1607521 C43.9089478,15.1607521 41.2426988,17.260392 40.3821687,20.1304963 L38.9559197,20.1295022 L38.9190683,22.1177975 L40.0883534,22.1187917 L40.0883534,22.1197858 L40.0883534,25.2195383 C39.5993253,25.149948 39.1033253,25.1022289 38.5943775,25.1022289 C35.9958554,25.1022289 33.5168514,26.0814643 31.5786667,27.850053 L31.5537671,27.8232111 C29.3825221,29.7975884 28.1365462,32.6110263 28.1365462,35.5407795 C28.1365462,41.2968945 32.8276305,45.9793301 38.5943775,45.9793301 L38.5943775,43.9910347 C33.9262008,43.9910347 30.1285141,40.2003497 30.1285141,35.5407795 C30.1285141,33.2313744 31.0906345,31.0164134 32.7648835,29.424783 L32.7788273,29.4396952 C34.3694137,27.9246141 36.4340884,27.0905242 38.5943775,27.0905242 C39.1053173,27.0905242 39.6033092,27.1412258 40.0883534,27.2277166 L40.0883534,31.0671149 C40.0883534,33.8079801 37.8543614,36.0378533 35.1084337,36.0378533 L34.1124498,36.0378533 L34.1124498,38.0261487 L35.1084337,38.0261487 C38.9519357,38.0261487 42.0803213,34.9035308 42.0803213,31.0671149 L42.0803213,27.8420999 C44.9198715,29.1195796 46.9217992,31.909158 47.0433092,35.2296113 L49.0332851,35.1580326 C48.8719357,30.7420286 46.0194378,27.0865476 42.0803213,25.7046824 L42.0803213,22.1197858 C42.0803213,19.3789207 44.3143133,17.1490474 47.060241,17.1490474 L51.0441767,17.1490474 C54.8876787,17.1490474 58.0160643,14.0264296 58.0160643,10.1900137 L58.0160643,3.23097995 L58.0160643,3.23097995 Z" id="路径"></path>
                    <rect id="矩形" x="46.064257" y="39.0202964" width="2.98795181" height="1.98829536"></rect>
                    <path d="M35.5934779,21.1743514 L36.5974297,19.4574584 C35.8783293,19.037928 35.2687871,18.4414394 34.8345382,17.7306238 L33.1343936,18.7655316 C33.7399518,19.7566968 34.5895261,20.5897926 35.5934779,21.1743514 Z" id="路径"></path>
                    <path d="M61.7589719,25.2811755 L59.8367229,25.7991264 C59.9502651,26.2196509 60.0080321,26.6540934 60.0080321,27.0905242 L60.0080321,28.5051964 L62,28.5051964 L62,27.0905242 C62,26.4791234 61.9193253,25.8697109 61.7589719,25.2811755 Z" id="路径"></path>
                    <rect id="矩形" x="32.1204819" y="6.47985456" width="1.99196787" height="2.98244303"></rect>
                    <path d="M32.1204819,15.1607521 C32.1204819,15.2641434 32.1224739,15.3675348 32.1274538,15.4709262 L34.1174297,15.3834412 L34.1124498,12.4447406 L32.1204819,12.4447406 L32.1204819,15.1607521 Z" id="路径"></path>
                    <rect id="矩形" x="50.8897992" y="20.1314905" width="2.98795181" height="1.98829536"></rect>
                    <rect id="矩形" x="52.0401606" y="39.0202964" width="2.98795181" height="1.98829536"></rect>
                    <path d="M57.411502,38.4098897 L58.3706345,40.1516364 C59.3885301,39.5929254 60.2600161,38.7817009 60.8914699,37.806442 L59.2162249,36.728786 C58.7650442,37.4266776 58.1405622,38.008254 57.411502,38.4098897 Z" id="路径"></path>
                    <rect id="矩形" x="44.9138956" y="20.1314905" width="2.98795181" height="1.98829536"></rect>
                    <path d="M60.0618153,22.2848143 C59.2550683,21.4427713 58.2451406,20.8114875 57.1395984,20.4585651 L56.5330442,22.3514222 C57.3218635,22.6039358 58.0449478,23.0562729 58.6226185,23.6587264 L60.0618153,22.2848143 Z" id="路径"></path>
                    <path d="M60.0080321,34.049558 C60.0080321,34.1668674 60.0040482,34.2831827 59.9950843,34.4004921 L61.9830683,34.5386786 C61.9940241,34.3766326 62,34.2135923 62,34.049558 L62,31.4876394 L60.0080321,31.4876394 L60.0080321,34.049558 Z" id="路径"></path>
                    <polygon id="路径" points="32.1204819 3.23097995 32.1204819 3.49741153 34.1124498 3.49741153 34.1124498 3.23097995 36.5028112 5.02044577 37.697992 3.42980949 33.1164659 0 28.5349398 3.42980949 29.7301205 5.02044577"></polygon>
                    <path d="M9.21285141,21.1256382 L9.21285141,19.1373428 C9.21285141,16.944253 10.9996466,15.1607521 13.1967871,15.1607521 L19.1726908,15.1607521 C21.3698313,15.1607521 23.1566265,16.944253 23.1566265,19.1373428 L23.1566265,34.049558 L25.1485944,34.049558 L25.1485944,19.1373428 C25.1485944,15.8477081 22.4684016,13.1724567 19.1726908,13.1724567 L18.1767068,13.1724567 L18.1767068,11.1841614 L16.184739,11.1841614 L16.184739,13.1724567 L13.1967871,13.1724567 C9.90107631,13.1724567 7.22088353,15.8477081 7.22088353,19.1373428 L7.22088353,21.1256382 C7.22088353,22.222183 6.32748594,23.1139335 5.22891566,23.1139335 L3.23694779,23.1139335 L5.02971888,20.7279791 L3.43614458,19.5350019 L0,24.1080812 L3.43614458,28.6811605 L5.02971888,27.4881833 L3.23694779,25.1022289 L5.22891566,25.1022289 C7.42605622,25.1022289 9.21285141,23.3187279 9.21285141,21.1256382 Z" id="路径"></path>
                    <rect id="矩形" x="16.184739" y="29.0788196" width="1.99196787" height="2.98244303"></rect>
                    <rect id="矩形" x="16.184739" y="35.0437056" width="1.99196787" height="2.98244303"></rect>
                    <rect id="矩形" x="16.184739" y="17.1490474" width="1.99196787" height="2.98244303"></rect>
                    <rect id="矩形" x="16.184739" y="23.1139335" width="1.99196787" height="2.98244303"></rect>
                    <rect id="矩形" x="16.184739" y="5.21927531" width="1.99196787" height="2.98244303"></rect>
                    <polygon id="路径" points="17.1807229 2.48536919 20.5670683 5.02044577 21.762249 3.42980949 17.1807229 0 12.5991968 3.42980949 13.7943775 5.02044577"></polygon>
                </g>
            </g>
        </g>
    </g>
</svg>