<?xml version="1.0" encoding="UTF-8"?>
<svg width="57px" height="57px" viewBox="0 0 57 57" version="1.1" xmlns="http://www.w3.org/2000/svg" xmlns:xlink="http://www.w3.org/1999/xlink">
    <!-- Generator: Sketch 64 (93537) - https://sketch.com -->
    <title>小程序</title>
    <desc>Created with Sketch.</desc>
    <g id="官网页面" stroke="none" stroke-width="1" fill="none" fill-rule="evenodd">
        <g id="业务-技术" transform="translate(-301.000000, -2468.000000)">
            <g id="小程序" transform="translate(299.000000, 2466.000000)">
                <rect id="矩形" fill="#000000" opacity="0" x="0" y="0" width="61" height="61"></rect>
                <path d="M37.1853535,16.6363636 C41.6525253,16.6363636 45.2878788,19.9944444 45.2878788,24.1535354 C45.2878788,25.4474747 44.9181818,26.7106061 44.240404,27.8505051 C43.2237374,29.5141414 41.5909091,30.7464646 39.6191919,31.3318182 C39.0954545,31.4858586 38.6949495,31.5474747 38.3252525,31.5474747 C37.4626263,31.5474747 36.7848485,30.869697 36.7848485,30.0070707 C36.7848485,29.1444444 37.4626263,28.4666667 38.3252525,28.4666667 C38.3868687,28.4666667 38.510101,28.4666667 38.6641414,28.4050505 C39.9888889,28.0353535 41.0363636,27.2651515 41.6217172,26.2484848 C42.0222222,25.6015152 42.2070707,24.8929293 42.2070707,24.1535354 C42.2070707,21.719697 39.9580808,19.7171717 37.2161616,19.7171717 C36.2611111,19.7171717 35.3368687,19.9636364 34.5050505,20.4257576 C33.0570707,21.2575758 32.1944444,22.6439394 32.1944444,24.1535354 L32.1944444,37.0621212 C32.1944444,39.6808081 30.7464646,42.0838384 28.3434343,43.4393939 C27.0494949,44.1787879 25.6015152,44.5484848 24.1227273,44.5484848 C19.6555556,44.5484848 16.020202,41.190404 16.020202,37.0313131 C16.020202,35.7373737 16.389899,34.4742424 17.0676768,33.3343434 C18.0843434,31.6707071 19.7171717,30.4383838 21.6888889,29.8530303 C22.2434343,29.6989899 22.6131313,29.6373737 22.9828283,29.6373737 C23.8454545,29.6373737 24.5232323,30.3151515 24.5232323,31.1777778 C24.5232323,32.040404 23.8454545,32.7181818 22.9828283,32.7181818 C22.9212121,32.7181818 22.7979798,32.7181818 22.6439394,32.779798 C21.3191919,33.180303 20.2717172,33.9505051 19.6863636,34.9363636 C19.2858586,35.5833333 19.1010101,36.2919192 19.1010101,37.0313131 C19.1010101,39.4651515 21.35,41.4676768 24.1227273,41.4676768 C25.0777778,41.4676768 26.0020202,41.2212121 26.8338384,40.7590909 C28.2818182,39.9272727 29.1444444,38.5409091 29.1444444,37.0313131 L29.1444444,24.1535354 C29.1444444,21.5348485 30.5924242,19.1318182 32.9954545,17.7762626 C34.2585859,17.0060606 35.7065657,16.6363636 37.1853535,16.6363636 L37.1853535,16.6363636 Z M5.85353535,30.5 C5.85353535,44.1171717 16.8828283,55.1464646 30.5,55.1464646 C44.1171717,55.1464646 55.1464646,44.1171717 55.1464646,30.5 C55.1464646,16.8828283 44.1171717,5.85353535 30.5,5.85353535 C16.8828283,5.85353535 5.85353535,16.8828283 5.85353535,30.5 Z M2.77272727,30.5 C2.77272727,15.1883838 15.1883838,2.77272727 30.5,2.77272727 C45.8116162,2.77272727 58.2272727,15.1883838 58.2272727,30.5 C58.2272727,45.8116162 45.8116162,58.2272727 30.5,58.2272727 C15.1883838,58.2272727 2.77272727,45.8116162 2.77272727,30.5 Z" id="形状" fill="#FFFFFF" fill-rule="nonzero"></path>
            </g>
        </g>
    </g>
</svg>