<?xml version="1.0" encoding="UTF-8"?>
<svg width="59px" height="58px" viewBox="0 0 59 58" version="1.1" xmlns="http://www.w3.org/2000/svg" xmlns:xlink="http://www.w3.org/1999/xlink">
    <!-- Generator: Sketch 64 (93537) - https://sketch.com -->
    <title>数据可视化</title>
    <desc>Created with Sketch.</desc>
    <g id="官网页面" stroke="none" stroke-width="1" fill="none" fill-rule="evenodd">
        <g id="业务-技术" transform="translate(-931.000000, -2466.000000)" fill="#FFFFFF" fill-rule="nonzero">
            <g id="data" transform="translate(931.000000, 2466.000000)">
                <path d="M58.0166667,0 L32.45,0 L26.55,0 L0.983333333,0 C0.440287516,0 0,0.441914316 0,0.986415883 L0,38.4702194 C0,39.0152142 0.440287516,39.4566353 0.983333333,39.4566353 L20.4100667,39.4566353 L7.9448417,51.9614295 C6.80196248,53.1202215 6.80196248,54.9852873 7.9448417,56.1440794 C8.49624582,56.6974587 9.24554582,57.0074399 10.0258208,57.0054671 C10.8090458,57.0059603 11.56105,56.6962257 12.1181084,56.1440794 L26.55,41.6703991 L26.55,54.2528736 C26.55,55.8871181 27.8711084,57.2121212 29.5,57.2121212 C31.1288916,57.2121212 32.45,55.8871181 32.45,54.2528736 L32.45,41.6703991 L46.8823833,56.1487649 C48.0358333,57.3038579 49.9044125,57.3018851 51.0561417,56.1443261 C52.2073792,54.9870136 52.2051667,53.1123302 51.0519625,51.9577304 L38.5899333,39.4566353 L58.0166667,39.4566353 C58.5597125,39.4566353 59,39.0152142 59,38.4702194 L59,0.986415883 C59,0.441914316 58.5597125,0 58.0166667,0 Z M10.661523,54.6000115 C10.2778536,54.9845012 9.65463664,54.9864616 9.2687537,54.6044225 C8.88311668,54.2226284 8.88114915,53.6011714 9.26457264,53.2171718 L23.122665,39.406664 L25.9086957,39.406664 L10.661523,54.6000115 Z M30.526087,54.1639044 C30.526087,54.7074627 30.0666565,55.1477204 29.5,55.1477204 C28.933087,55.1477204 28.473913,54.7074627 28.473913,54.1639044 L28.473913,39.6469611 L28.7242783,39.406664 L30.2757217,39.406664 L30.526087,39.6469611 L30.526087,54.1639044 Z M49.7312424,53.2122198 C50.1170911,53.5945298 50.1188125,54.2160285 49.7349313,54.6005442 C49.3520336,54.9843245 48.7278884,54.9865301 48.3420398,54.6042202 L33.0913043,39.406664 L35.8770873,39.406664 L49.7312424,53.2122198 Z M56.9478261,37.3422632 L1.79565217,37.3422632 L1.79565217,22.0391063 L7.01541149,27.2430093 C6.82213268,27.6360022 6.72143074,28.0680243 6.71995342,28.5054467 C6.71995342,30.1321574 8.04311319,31.4510522 9.67453416,31.4510522 C11.3059551,31.4510522 12.6291149,30.1321574 12.6291149,28.5054467 C12.6264065,27.9870202 12.4845866,27.4789032 12.2186744,27.032644 L14.3036235,24.5779728 C15.0077986,25.0708707 15.7681107,25.4785916 16.5685559,25.7915622 L16.5685559,31.4510522 C16.5685559,33.6202452 18.3324406,35.3785262 20.5079969,35.3785262 C22.6835532,35.3785262 24.4474379,33.6202452 24.4474379,31.4510522 L24.4474379,25.7915622 C26.803716,24.8693422 28.7643266,23.1574545 29.9922011,20.9499687 L33.3318622,22.407307 C33.3269379,22.4765287 33.3111801,22.5437867 33.3111801,22.6142358 C33.3111801,24.2409464 34.6343399,25.5598412 36.2657609,25.5598412 C37.8971818,25.5598412 39.2203416,24.2409464 39.2203416,22.6142358 C39.2178795,21.9576112 38.9928389,21.3211149 38.5821522,20.8080886 L42.503127,14.6800019 C42.9859548,14.7995444 43.492173,14.7838345 43.966137,14.6338541 L50.5925229,23.8734821 C49.9289733,24.8106756 49.8728363,26.0475844 50.4497182,27.0404989 C51.0263539,28.0334134 52.1296436,28.6009334 53.2755284,28.4936643 C54.4216595,28.3868861 55.4003644,27.6247107 55.7817516,26.5417097 L56.9478261,26.5417097 L56.9478261,37.3422632 Z M10.773913,28.5685597 C10.773913,29.1388504 10.3144826,29.6007601 9.74782609,29.6007601 C9.18091308,29.6007601 8.72173913,29.1388504 8.72173913,28.5685597 C8.72173913,27.998785 9.18091308,27.5363593 9.74782609,27.5363593 C10.3144826,27.5363593 10.773913,27.998785 10.773913,28.5685597 Z M29.1039492,18.3972131 L25.4526644,16.7936701 C25.8448841,14.9480036 25.1534554,13.039153 23.6711898,11.8764177 C22.1894164,10.7131888 20.1763993,10.4999425 18.4847366,11.3265187 C16.7930739,12.1528481 15.719514,13.8748613 15.7182837,15.7619924 C15.7227127,16.8664799 16.1004149,17.937154 16.7888909,18.7990245 L14.2114121,21.859257 C11.2569693,18.7173295 10.9865493,13.8980618 13.5704257,10.4431755 C16.154056,6.98779562 20.8424837,5.89984458 24.6763451,7.86570896 C28.5109445,9.83083283 30.378048,14.2793876 29.1000122,18.4038771 L29.1039492,18.3972131 Z M18.726087,29.6007601 L22.573913,29.6007601 L22.573913,31.5361359 C22.573913,32.6051891 21.7127215,33.4715117 20.65,33.4715117 C19.5877595,33.4715117 18.726087,32.6051891 18.726087,31.5361359 L18.726087,29.6007601 Z M22.573913,27.7944094 L18.726087,27.7944094 L18.726087,26.5041588 C19.9973125,26.7799252 21.302928,26.7799252 22.573913,26.5041588 L22.573913,27.7944094 Z M20.5695979,24.6978081 C18.8156994,24.6997405 17.1018352,24.1842727 15.6478261,23.2175283 L18.2267274,20.2090178 C18.942434,20.6057924 19.7482793,20.8165334 20.5695979,20.8221047 C22.1658151,20.8201669 23.6603498,20.0513253 24.5762282,18.7626557 L28.2173913,20.3376425 C26.6393493,23.0324637 23.7254364,24.6946537 20.5695979,24.6978081 Z M17.7,15.7950795 C17.7,14.1564829 19.0211084,12.8275033 20.65,12.8275033 C22.2788916,12.8275033 23.6,14.1564829 23.6,15.7950795 C23.6,17.4339235 22.2788916,18.7626557 20.65,18.7626557 C19.0211084,18.7626557 17.7,17.4339235 17.7,15.7950795 Z M37.4521739,22.6334073 C37.4521739,23.203698 36.9927435,23.6656077 36.426087,23.6656077 C35.8591739,23.6656077 35.4,23.203698 35.4,22.6334073 C35.4,22.0636327 35.8591739,21.6012069 36.426087,21.6012069 C36.9927435,21.6012069 37.4521739,22.0636327 37.4521739,22.6334073 Z M43.3521739,12.8275033 C42.7852609,12.8275033 42.326087,12.3655936 42.326087,11.7953029 C42.326087,11.2255283 42.7852609,10.7631025 43.3521739,10.7631025 C43.9188304,10.7631025 44.3782609,11.2255283 44.3782609,11.7953029 C44.3782609,12.3655936 43.9188304,12.8275033 43.3521739,12.8275033 Z M53.1,24.6978081 C53.6666565,24.6978081 54.126087,25.1602339 54.126087,25.7300085 C54.126087,26.3002992 53.6666565,26.762209 53.1,26.762209 C52.533087,26.762209 52.073913,26.3002992 52.073913,25.7300085 C52.073913,25.1602339 52.533087,24.6978081 53.1,24.6978081 Z M55.7817516,24.7041797 C55.3658943,23.5249863 54.2557106,22.7346601 53.0083851,22.7289814 C52.7348401,22.7331787 52.4637574,22.7753986 52.2020307,22.855641 L45.575891,13.5623329 C46.4578334,12.3169703 46.2512589,10.6032389 45.0987262,9.60452924 C43.9461935,8.6058196 42.224904,8.64952085 41.1243227,9.70551124 C40.0237414,10.7617485 39.904327,12.4838746 40.8480694,13.6825731 L36.927587,19.8464263 C36.7104253,19.7943305 36.4888317,19.7674184 36.2657609,19.7661839 C35.4498042,19.7679122 34.6712721,20.1091277 34.1165496,20.7093411 L30.7800893,19.2439908 C32.4701095,14.1736567 30.2295524,8.62334944 25.4987762,6.15928953 C20.7672613,3.69522961 14.9511692,5.04922807 11.7865669,9.35170385 C8.62221102,13.6549203 9.04988656,19.6259448 12.7943252,23.4311644 L10.7194709,25.8897925 C9.97023844,25.5927721 9.13015264,25.6283257 8.40874254,25.9880586 L2.49194837,20.0557974 C2.3072871,19.8706225 2.05688634,19.7661839 1.79565217,19.7661839 L1.79565217,1.98939898 L56.9478261,1.98939898 L56.9478261,24.7041797 L55.7817516,24.7041797 Z" id="形状"></path>
            </g>
        </g>
    </g>
</svg>