<?xml version="1.0" encoding="UTF-8"?>
<svg width="38px" height="71px" viewBox="0 0 38 71" version="1.1" xmlns="http://www.w3.org/2000/svg" xmlns:xlink="http://www.w3.org/1999/xlink">
    <!-- Generator: Sketch 64 (93537) - https://sketch.com -->
    <title>移动研发应用</title>
    <desc>Created with Sketch.</desc>
    <g id="官网页面" stroke="none" stroke-width="1" fill="none" fill-rule="evenodd">
        <g id="业务-技术" transform="translate(-309.000000, -2265.000000)" fill="#FFFFFF">
            <g id="phone-call" transform="translate(309.000000, 2265.000000)">
                <path d="M32.0625,0 L5.9375,0 C2.66,0.00384583333 0.003859375,2.65066667 0,5.91666667 L0,65.0833333 C0.003859375,68.3493333 2.66,70.9961542 5.9375,71 L32.0625,71 C35.34,70.9961542 37.9961406,68.3493333 38,65.0833333 L38,5.91666667 C37.9961406,2.65066667 35.34,0.00384583333 32.0625,0 Z M35.625,65.0833333 C35.625,67.0439687 34.0300391,68.6333333 32.0625,68.6333333 L5.9375,68.6333333 C3.96996094,68.6333333 2.375,67.0439687 2.375,65.0833333 L2.375,61.5333333 L35.625,61.5333333 L35.625,65.0833333 Z M35.625,59.1666667 L2.375,59.1666667 L2.375,13.0166667 L35.625,13.0166667 L35.625,59.1666667 Z M35.625,10.65 L2.375,10.65 L2.375,5.91666667 C2.375,3.95603125 3.96996094,2.36666667 5.9375,2.36666667 L32.0625,2.36666667 C34.0300391,2.36666667 35.625,3.95603125 35.625,5.91666667 L35.625,10.65 Z" id="形状" fill-rule="nonzero"></path>
                <rect id="矩形" x="11" y="6" width="17" height="3"></rect>
                <rect id="矩形" x="17" y="64" width="5" height="3"></rect>
                <rect id="矩形" x="5" y="15" width="5" height="3"></rect>
                <rect id="矩形" x="12" y="15" width="5" height="3"></rect>
                <rect id="矩形" x="21" y="20" width="3" height="3"></rect>
                <rect id="矩形" x="26" y="17" width="3" height="5"></rect>
                <rect id="矩形" x="31" y="16" width="3" height="7"></rect>
            </g>
        </g>
    </g>
</svg>