<?xml version="1.0" encoding="UTF-8"?>
<svg width="82px" height="58px" viewBox="0 0 82 58" version="1.1" xmlns="http://www.w3.org/2000/svg" xmlns:xlink="http://www.w3.org/1999/xlink">
    <!-- Generator: Sketch 64 (93537) - https://sketch.com -->
    <title>管理系统研发</title>
    <desc>Created with Sketch.</desc>
    <g id="官网页面" stroke="none" stroke-width="1" fill="none" fill-rule="evenodd">
        <g id="业务-技术" transform="translate(-919.000000, -2278.000000)" fill="#FFFFFF">
            <g id="computer" transform="translate(919.000000, 2278.000000)">
                <path d="M74.8829031,4.96969697 L6.28881407,4.96969697 C5.55904864,4.96969697 4.96969697,5.53897972 4.96969697,6.23973064 L4.96969697,41.8006734 C4.96969697,42.5032848 5.55904864,43.0707071 6.28881407,43.0707071 L74.8829031,43.0707071 C75.6126685,43.0707071 76.2020202,42.5032848 76.2020202,41.8006734 L76.2020202,6.23973064 C76.2020202,5.53897972 75.6126685,4.96969697 74.8829031,4.96969697 Z M63.0108492,20.210101 L18.1608679,20.210101 L18.1608679,12.589899 L63.0108492,12.589899 L63.0108492,20.210101 Z M18.1608679,22.7501684 L63.0108492,22.7501684 L63.0108492,40.5306397 L18.1608679,40.5306397 L18.1608679,22.7501684 Z M73.563786,40.5306397 L65.6490834,40.5306397 L65.6490834,11.3198653 C65.6490834,10.6191144 65.0597318,10.0498316 64.3299663,10.0498316 L16.8417508,10.0498316 C16.1119854,10.0498316 15.5226337,10.6191144 15.5226337,11.3198653 L15.5226337,40.5306397 L7.60793116,40.5306397 L7.60793116,7.50976431 L73.563786,7.50976431 L73.563786,40.5306397 Z" id="形状" fill-rule="nonzero"></path>
                <path d="M78.0322581,47.8963549 C80.2195533,47.8963549 82,46.1995743 82,44.1150637 L82,3.78129117 C82,1.69678052 80.2195533,0 78.0322581,0 L3.96774194,0 C1.78044666,0 0,1.69678052 0,3.78129117 L0,44.1150637 C0,46.1995743 1.78044666,47.8963549 3.96774194,47.8963549 L35.7096774,47.8963549 L35.7096774,50.4172156 L30.4193548,50.4172156 C26.7732169,50.4172156 23.8064516,53.2445677 23.8064516,56.7193676 C23.8064516,57.4166662 24.3973507,57.979798 25.1290323,57.979798 L56.8709677,57.979798 C57.6026493,57.979798 58.1935484,57.4166662 58.1935484,56.7193676 C58.1935484,53.2445677 55.2267831,50.4172156 51.5806452,50.4172156 L46.2903226,50.4172156 L46.2903226,47.8963549 L68.7741935,47.8963549 L71.4193548,47.8963549 L78.0322581,47.8963549 Z M2.64516129,44.1150637 L2.64516129,3.78129117 C2.64516129,3.08706975 3.23799781,2.52086078 3.96774194,2.52086078 L78.0322581,2.52086078 C78.7620022,2.52086078 79.3548387,3.08706975 79.3548387,3.78129117 L79.3548387,44.1150637 C79.3548387,44.8105159 78.7620022,45.3754941 78.0322581,45.3754941 L3.96774194,45.3754941 C3.23799781,45.3754941 2.64516129,44.8105159 2.64516129,44.1150637 Z M55.32236,55.4589372 L26.67764,55.4589372 C27.2239793,53.9917174 28.6944462,52.9380764 30.4193548,52.9380764 L51.5806452,52.9380764 C53.3055538,52.9380764 54.7760207,53.9917174 55.32236,55.4589372 Z M43.6451613,50.4172156 L38.3548387,50.4172156 L38.3548387,47.8963549 L43.6451613,47.8963549 L43.6451613,50.4172156 Z" id="形状" fill-rule="nonzero"></path>
                <polygon id="路径" points="21.5353535 14.9090909 24.020202 14.9090909 24.020202 17.3939394 21.5353535 17.3939394"></polygon>
                <polygon id="路径" points="26.5050505 14.9090909 28.989899 14.9090909 28.989899 17.3939394 26.5050505 17.3939394"></polygon>
                <polygon id="路径" points="31.4747475 14.9090909 33.959596 14.9090909 33.959596 17.3939394 31.4747475 17.3939394"></polygon>
                <polygon id="路径" points="36.4444444 14.9090909 60.4646465 14.9090909 60.4646465 17.3939394 36.4444444 17.3939394"></polygon>
                <path d="M27.1429638,25.6767677 L21.9184841,30.6038476 C21.4076433,31.0856092 21.4076433,31.8638858 21.9184841,32.3456473 L27.1429638,37.2727273 L28.989899,35.5309275 L24.6888869,31.4747475 L28.989899,27.4185674 L27.1429638,25.6767677 Z" id="路径"></path>
                <path d="M44.3441421,30.6038476 L39.1196625,25.6767677 L37.2727273,27.4185674 L41.5737393,31.4747475 L37.2727273,35.5309275 L39.1196625,37.2727273 L44.3441421,32.3456473 C44.8549829,31.8638858 44.8549829,31.0856092 44.3441421,30.6038476 Z" id="路径"></path>
                <polygon id="路径" points="28.989899 37.9551569 34.6466331 24.8484848 37.2727273 25.8226208 31.6159932 38.9292929"></polygon>
            </g>
        </g>
    </g>
</svg>