<?xml version="1.0" encoding="UTF-8"?>
<svg width="56px" height="64px" viewBox="0 0 56 64" version="1.1" xmlns="http://www.w3.org/2000/svg" xmlns:xlink="http://www.w3.org/1999/xlink">
    <!-- Generator: Sketch 64 (93537) - https://sketch.com -->
    <title>行业智能应用</title>
    <desc>Created with Sketch.</desc>
    <g id="官网页面" stroke="none" stroke-width="1" fill="none" fill-rule="evenodd">
        <g id="业务-技术" transform="translate(-1559.000000, -2465.000000)" fill="#FFFFFF">
            <g id="artificial-intelligence-(1)" transform="translate(1559.000000, 2465.000000)">
                <path d="M14.600559,7.45070098 C14.0485884,6.87027244 13.1310533,6.84733978 12.5512523,7.40004592 L12.4434094,7.50367832 C11.8670872,8.06001305 11.8504179,8.97891604 12.4060122,9.55600628 C12.6904046,9.85137314 13.0697394,10 13.449654,10 C13.8117397,10 14.1744052,9.86487148 14.4556087,9.59330814 L14.5498264,9.50273864 C15.1296274,8.9500325 15.1523846,8.0314198 14.600559,7.45070098 Z" id="路径"></path>
                <path d="M40.5605,56.4395 C40.2815,56.1605 39.8945,56 39.5,56 C39.104,56 38.7185,56.16035 38.4395,56.4395 C38.1605,56.7185 38,57.1055 38,57.5 C38,57.8945 38.1605,58.2815 38.4395,58.56035 C38.7185,58.83935 39.1055,59 39.5,59 C39.8945,59 40.2815,58.8395 40.5605,58.56035 C40.8395,58.2815 41,57.8945 41,57.5 C41,57.1055 40.8395,56.7185 40.5605,56.4395 Z" id="路径"></path>
                <path d="M38.5,34 C36.0186471,34 34,35.9510198 34,38.3492443 C34,40.3024388 35.3391471,41.9587333 37.1764706,42.5062265 L37.1764706,52.7208105 C37.1764706,53.4271789 37.7690147,54 38.5,54 C39.2309853,54 39.8235294,53.4271789 39.8235294,52.7208105 L39.8235294,42.5062265 C41.6608529,41.9587333 43,40.3024388 43,38.3492443 C43,35.9510198 40.9813529,34 38.5,34 Z M38.5,40.1401096 C37.4782353,40.1401096 36.6470588,39.3367786 36.6470588,38.3492443 C36.6470588,37.36171 37.4782353,36.558379 38.5,36.558379 C39.5217647,36.558379 40.3529412,37.36171 40.3529412,38.3492443 C40.3529412,39.3367786 39.5216324,40.1401096 38.5,40.1401096 Z" id="形状" fill-rule="nonzero"></path>
                <path d="M54.7454704,61.5 L48.7004433,61.5 L48.7004433,49.1941291 C48.7004433,47.1507547 49.3163829,45.1866302 50.4817452,43.5142557 C53.9898577,38.4793821 56.1028676,31.4586341 55.9961398,25.1918858 C55.87914,18.3266377 53.104969,11.9326395 48.1845923,7.18764084 C43.2657187,2.44389216 36.7669732,-0.106232129 29.8850348,0.00339284075 C24.9070351,0.0836428184 20.0990231,1.5876424 15.9807333,4.35326663 C15.4067582,4.73864152 15.2545584,5.5153913 15.640883,6.08814114 C16.0272075,6.66076598 16.8054936,6.81301594 17.3794687,6.42726605 C19.3550603,5.10064142 21.5067778,4.0958917 23.7640956,3.43476688 L23.7640956,22.4995116 L21.8758154,24.382261 C21.2811712,24.0671361 20.6037253,23.8877612 19.8848159,23.8877612 C17.5363034,23.8877612 15.6257256,25.7942607 15.6257256,28.13776 C15.6257256,30.4812593 17.5363034,32.3877588 19.8848159,32.3877588 C22.2333285,32.3877588 24.1439063,30.4812593 24.1439063,28.13776 C24.1439063,27.4198852 23.9638971,26.7433854 23.6477223,26.1497606 L25.9022843,23.9018862 C26.1374111,23.6673862 26.2695682,23.3492613 26.2695682,23.0176364 L26.2695682,2.85089205 C27.4701306,2.64039211 28.6919884,2.52301714 29.9256214,2.50326714 C30.5911669,2.49251715 31.2503238,2.51151714 31.9027162,2.55614213 L31.9027162,13.9640139 C30.1637547,14.4991388 28.8962995,16.1175133 28.8962995,18.0261378 C28.8962995,20.3696372 30.8068773,22.2761366 33.1553899,22.2761366 C35.5039024,22.2761366 37.4144802,20.3696372 37.4144802,18.0261378 C37.4144802,16.1175133 36.147025,14.4990138 34.4080635,13.9640139 L34.4080635,2.86476704 C36.2423535,3.19339195 38.0037379,3.7380168 39.664282,4.47214159 L39.664282,23.0175114 C39.664282,23.3491363 39.7964391,23.6672612 40.0315659,23.9017612 L42.2861279,26.1496356 C41.9699531,26.7432604 41.7899439,27.4197602 41.7899439,28.137635 C41.7899439,30.4811343 43.7005217,32.3876338 46.0490343,32.3876338 C48.3975468,32.3876338 50.3081246,30.4811343 50.3081246,28.137635 C50.3081246,25.7941357 48.3975468,23.8876362 46.0490343,23.8876362 C45.3301249,23.8876362 44.652679,24.0670111 44.0580348,24.382136 L42.1697546,22.4993866 L42.1697546,5.76714123 C48.8285918,9.73939013 53.3502425,16.9486381 53.4914188,25.2341358 C53.5881252,30.9157592 51.5993806,37.5307574 48.4249803,42.0868811 C46.9663672,44.1802555 46.1953465,46.6378798 46.1953465,49.1938791 L46.1953465,61.5 L34.4081887,61.5 L34.4081887,50.7500037 C34.4081887,50.4183788 34.2760317,50.1002539 34.0409048,49.8657539 L31.7863428,47.6178796 C32.1025177,47.0242547 32.2825269,46.3477549 32.2825269,45.6298801 C32.2825269,43.2863808 30.371949,41.3798813 28.0234365,41.3798813 C25.674924,41.3798813 23.7643462,43.2863808 23.7643462,45.6298801 C23.7643462,47.9733795 25.674924,49.8798789 28.0234365,49.8798789 C28.7423459,49.8798789 29.4197918,49.700504 30.014436,49.3853791 L31.9027162,51.2681285 L31.9027162,61.5 L27.5049549,61.5 L27.5049549,59.6310012 C27.5049549,56.943002 25.3134024,54.7562526 22.619653,54.7562526 L14.7374547,54.7562526 C12.0257921,54.7562526 9.81970859,52.5548782 9.81970859,49.8488789 L9.81970859,40.8273815 C9.81970859,40.1371317 9.25888661,39.5773818 8.56703496,39.5773818 L2.94152822,39.5773818 L7.06695829,26.0000106 C7.10265948,25.8825106 7.12082325,25.7602607 7.12082325,25.6373857 C7.12082325,21.2882619 8.33641774,17.0508881 10.636076,13.3831391 C10.8170873,13.0945142 11.0072432,12.8056393 11.2015329,12.5242644 C11.5941208,11.9557645 11.4504391,11.1775147 10.8807232,10.7857648 C10.3111325,10.3940149 9.53109259,10.5372649 9.13850467,11.1058897 C8.92342061,11.4173897 8.7127209,11.7373896 8.51216785,12.0571395 C5.9960476,16.0701384 4.65067612,20.6972621 4.61610233,25.4498857 L0.0538649661,40.4648816 C-0.0611304732,40.8436315 0.0102719238,41.2542563 0.24652617,41.5722563 C0.482780417,41.8901312 0.856077159,42.0775061 1.25267363,42.0775061 L7.31411079,42.0775061 L7.31411079,49.8490039 C7.31411079,53.9335028 10.6440931,57.2563769 14.7372042,57.2563769 L22.6194025,57.2563769 C23.9317034,57.2563769 24.9993571,58.3216266 24.9993571,59.6311262 L24.9993571,61.5 L1.25267363,61.5 C0.560821984,61.5 0,62.0597505 0,62.7500003 C0,63.4402502 0.560821984,64 1.25267363,64 L54.7454704,64 C55.4373221,64 55.998144,63.4402502 55.998144,62.7500003 C55.998144,62.0597505 55.4373221,61.5 54.7454704,61.5 Z M19.8848159,29.8876355 C18.9177519,29.8876355 18.1310729,29.1026347 18.1310729,28.137635 C18.1310729,27.1726353 18.9177519,26.3876355 19.8848159,26.3876355 C20.85188,26.3876355 21.638559,27.1726353 21.638559,28.137635 C21.638559,29.1026347 20.85188,29.8876355 19.8848159,29.8876355 Z M34.9088824,18.0260128 C34.9088824,18.9910125 34.1222034,19.7760133 33.1551393,19.7760133 C32.1880753,19.7760133 31.4013962,18.9910125 31.4013962,18.0260128 C31.4013962,17.0610131 32.1880753,16.2760133 33.1551393,16.2760133 C34.1222034,16.2760133 34.9088824,17.0610131 34.9088824,18.0260128 Z M46.0487837,26.3876355 C47.0158478,26.3876355 47.8025268,27.1727603 47.8025268,28.137635 C47.8025268,29.1026347 47.0158478,29.8876355 46.0487837,29.8876355 C45.0817197,29.8876355 44.2950406,29.1026347 44.2950406,28.137635 C44.2950406,27.1726353 45.0817197,26.3876355 46.0487837,26.3876355 Z M28.023186,47.3798806 C27.0561219,47.3798806 26.2694429,46.5948799 26.2694429,45.6298801 C26.2694429,44.6648804 27.0561219,43.8798806 28.023186,43.8798806 C28.99025,43.8798806 29.7769291,44.6648804 29.7769291,45.6298801 C29.7769291,46.5948799 28.99025,47.3798806 28.023186,47.3798806 Z" id="形状" fill-rule="nonzero"></path>
            </g>
        </g>
    </g>
</svg>