<?xml version="1.0" encoding="UTF-8"?>
<svg width="54px" height="55px" viewBox="0 0 54 55" version="1.1" xmlns="http://www.w3.org/2000/svg" xmlns:xlink="http://www.w3.org/1999/xlink">
    <!-- Generator: Sketch 64 (93537) - https://sketch.com -->
    <title>沟通理解icon</title>
    <desc>Created with Sketch.</desc>
    <g id="官网页面" stroke="none" stroke-width="1" fill="none" fill-rule="evenodd">
        <g id="业务-设计" transform="translate(-613.000000, -3439.000000)">
            <g id="分组-2" transform="translate(613.000000, 3439.000000)">
                <g id="chat" transform="translate(0.000000, 0.422637)">
                    <g id="分组" fill="#CBA766">
                        <path d="M28.2476712,0 L15.8893151,0 C7.12812329,0 0,7.19354203 0,16.0351401 C0,20.6007008 1.92525534,24.9275162 5.29643836,27.9741928 L5.29643836,38.0594051 L12.7961951,33.7343714 L11.9205173,32.1878713 L7.06191781,34.9886757 L7.06191781,27.1581823 L6.75031068,26.89093 C3.58304055,24.1729737 1.76547945,20.2149666 1.76547945,16.0351401 C1.76547945,8.17613978 8.10178521,1.78168224 15.8893151,1.78168224 L28.2476712,1.78168224 C36.0352011,1.78168224 42.3715068,8.17613978 42.3715068,16.0351401 C42.3715068,17.0417906 42.2585162,18.0707121 42.0369485,19.0933977 L43.7609392,19.4746777 C44.0098718,18.3272743 44.1369863,17.1700717 44.1369863,16.0351401 C44.1369863,7.19354203 37.008863,0 28.2476712,0 Z" id="路径"></path>
                        <rect id="矩形" x="7.94465753" y="7.12672894" width="28.2476712" height="1.78168224"></rect>
                        <rect id="矩形" x="7.94465753" y="12.4717756" width="28.2476712" height="1.78168224"></rect>
                        <rect id="矩形" x="7.94465753" y="17.8168224" width="20.3030137" height="1.78168224"></rect>
                    </g>
                    <path d="M38.8921233,18.7944337 L26.4503425,18.7944337 C18.106351,18.7944337 11.3424658,25.5231686 11.3424658,33.8237983 L11.3424658,33.8237983 C11.3424658,42.124428 18.106351,48.8531629 26.4503425,48.8531629 L38.8921233,48.8531629 C38.9836592,48.8531629 39.0725291,48.8407858 39.1640651,48.8399017 L48.6678082,54.1576445 L48.6678082,45.2717537 C51.9266661,42.5151914 54,38.413059 54,33.8237983 L54,33.8237983 C54,25.5231686 47.2361147,18.7944337 38.8921233,18.7944337 Z" id="形状" fill="#E4C487" fill-rule="nonzero"></path>
                </g>
                <ellipse id="椭圆形" fill="#333333" fill-rule="nonzero" cx="23" cy="33.5189757" rx="3" ry="3.00875803"></ellipse>
                <ellipse id="椭圆形" fill="#333333" fill-rule="nonzero" cx="33" cy="33.5189757" rx="3" ry="3.00875803"></ellipse>
                <ellipse id="椭圆形" fill="#333333" fill-rule="nonzero" cx="43" cy="33.5189757" rx="3" ry="3.00875803"></ellipse>
            </g>
        </g>
    </g>
</svg>