<?xml version="1.0" encoding="UTF-8"?>
<svg width="54px" height="55px" viewBox="0 0 54 55" version="1.1" xmlns="http://www.w3.org/2000/svg" xmlns:xlink="http://www.w3.org/1999/xlink">
    <!-- Generator: Sketch 64 (93537) - https://sketch.com -->
    <title>研究分析icon</title>
    <desc>Created with Sketch.</desc>
    <g id="官网页面" stroke="none" stroke-width="1" fill="none" fill-rule="evenodd">
        <g id="业务-设计" transform="translate(-1243.000000, -3438.000000)">
            <g id="analytics" transform="translate(1243.000000, 3438.000000)">
                <g id="分组" transform="translate(8.000000, 27.631033)" fill="#E4C487">
                    <path d="M0,18.8605495 C1.06917513,19.9517496 2.23976016,20.9416052 3.49689331,21.8178851 L3.49689331,6.98927164 L0,6.98927164 L0,18.8605495 Z" id="路径"></path>
                    <path d="M24.4782532,25.1910823 L24.4782532,0 L20.9813598,0 L20.9813598,25.9572812 C22.1772974,25.7860441 23.3443855,25.5283147 24.4782532,25.1910823 Z" id="路径"></path>
                    <path d="M13.9875732,15.7258612 L10.4906799,15.7258612 L10.4906799,25.1910823 C11.6245476,25.5283147 12.7916357,25.7860441 13.9875732,25.9572812 L13.9875732,15.7258612 Z" id="路径"></path>
                    <path d="M31.4720398,3.49463582 L31.4720398,21.8178851 C32.7291729,20.9416052 33.8997579,19.9517496 34.9689331,18.8605495 L34.9689331,3.49463582 L31.4720398,3.49463582 Z" id="路径"></path>
                </g>
                <g id="分组" transform="translate(0.000000, 0.416817)">
                    <polygon id="矩形" fill="#CBA766" transform="translate(33.707386, 23.079964) rotate(111.039568) translate(-33.707386, -23.079964) " points="32.8433667 19.6252049 34.6087204 19.6157965 34.5714059 26.5347223 32.8060522 26.5441306"></polygon>
                    <polygon id="矩形" fill="#CBA766" transform="translate(23.517258, 28.320491) rotate(120.465545) translate(-23.517258, -28.320491) " points="17.8996006 27.4851707 29.1471913 27.4068312 29.1349146 29.1558103 17.8873239 29.2341498"></polygon>
                    <polygon id="矩形" fill="#CBA766" transform="translate(14.371027, 32.304637) rotate(126.029901) translate(-14.371027, -32.304637) " points="13.5136052 29.3331581 15.273893 29.3197938 15.2284487 35.2761158 13.4681609 35.28948"></polygon>
                    <path d="M42.3420968,4.93572958 L43.0127419,6.56946758 L51.0421935,3.17012433 L39.4766129,23.0015442 L40.9755484,23.9042596 L45.3634839,16.3807457 C47.5931613,20.1075446 48.7741935,24.3547324 48.7741935,28.7629929 C48.7741935,33.9128962 47.1568065,38.6831279 44.4193548,42.5895848 L44.4193548,32.3030536 L42.6774194,32.3030536 L42.6774194,44.6932659 L42.767129,44.6932659 C41.6906129,45.9137018 40.4930323,47.0208558 39.1935484,47.9961425 L39.1935484,34.0730839 L37.4516129,34.0730839 L37.4516129,49.1882579 C36.3472258,49.8714896 35.181,50.4591397 33.9677419,50.9520932 L33.9677419,29.6480081 L32.2258065,29.6480081 L32.2258065,51.587534 C31.0987742,51.9433101 29.9342903,52.2141248 28.7419355,52.3946679 L28.7419355,30.5330232 L27,30.5330232 L27,52.5858312 C26.4242903,52.6291969 25.8442258,52.6584024 25.2580645,52.6584024 C24.6719032,52.6584024 24.0918387,52.6291969 23.516129,52.5858312 L23.516129,42.9232356 L21.7741935,42.9232356 L21.7741935,52.3946679 C20.5818387,52.2141248 19.4173548,51.9433101 18.2903226,51.587534 L18.2903226,44.6932659 L16.5483871,44.6932659 L16.5483871,50.9520932 C15.335129,50.4582547 14.1689032,49.8714896 13.0645161,49.1882579 L13.0645161,37.6131446 L11.3225806,37.6131446 L11.3225806,47.9961425 C10.0230968,47.0208558 8.82551613,45.9137018 7.749,44.6932659 L7.83870968,44.6932659 L7.83870968,37.6131446 L6.09677419,37.6131446 L6.09677419,42.5895848 C4.70409677,40.6027258 3.60058065,38.3937279 2.85503226,36.0218873 L8.41790323,30.9967712 L7.25951613,29.6745585 L2.34377419,34.1146796 C1.95445161,32.3933251 1.74193548,30.6029394 1.74193548,28.7629929 C1.74193548,15.5868871 12.2910968,4.86758341 25.2580645,4.86758341 C30.5944839,4.86758341 35.6251935,6.63761375 39.8058387,9.98739615 L40.8840968,8.59792234 C36.3933871,4.99945067 30.9899032,3.09755308 25.2580645,3.09755308 C11.3304194,3.09755308 0,14.6107154 0,28.7629929 C0,42.9143854 11.3304194,54.4284327 25.2580645,54.4284327 C39.1857097,54.4284327 50.516129,42.9143854 50.516129,28.7629929 C50.516129,23.7157514 49.0703226,18.8649833 46.3563871,14.6770915 L52.2580645,4.55694309 L52.2580645,11.9477047 L54,11.9477047 L54,0 L42.3420968,4.93572958 Z" id="路径" fill="#CBA766"></path>
                    <rect id="矩形" fill="#E4C487" x="6.09677419" y="34.0730839" width="1.74193548" height="1.77003033"></rect>
                    <rect id="矩形" fill="#E4C487" x="11.3225806" y="34.0730839" width="1.74193548" height="1.77003033"></rect>
                    <rect id="矩形" fill="#E4C487" x="16.5483871" y="41.1532052" width="1.74193548" height="1.77003033"></rect>
                    <rect id="矩形" fill="#E4C487" x="21.7741935" y="39.3831749" width="1.74193548" height="1.77003033"></rect>
                    <rect id="矩形" fill="#E4C487" x="27" y="26.9929626" width="1.74193548" height="1.77003033"></rect>
                    <rect id="矩形" fill="#E4C487" x="32.2258065" y="26.1079474" width="1.74193548" height="1.77003033"></rect>
                    <rect id="矩形" fill="#E4C487" x="37.4516129" y="30.5330232" width="1.74193548" height="1.77003033"></rect>
                    <rect id="矩形" fill="#E4C487" x="42.6774194" y="28.7629929" width="1.74193548" height="1.77003033"></rect>
                </g>
                <g id="分组" transform="translate(6.000000, 18.559628)" fill="#E4C487" fill-rule="nonzero">
                    <path d="M3.51236076,14.9515179 C1.5752938,14.9515179 0,13.373693 0,11.4335137 C0,9.49333437 1.5752938,7.91550948 3.51236076,7.91550948 C5.44942772,7.91550948 7.02472152,9.49333437 7.02472152,11.4335137 C7.02472152,13.373693 5.44942772,14.9515179 3.51236076,14.9515179 Z M3.51236076,9.67451158 C2.54382728,9.67451158 1.75618038,10.463424 1.75618038,11.4335137 C1.75618038,12.4036034 2.54382728,13.1925158 3.51236076,13.1925158 C4.48089424,13.1925158 5.26854114,12.4036034 5.26854114,11.4335137 C5.26854114,10.463424 4.48089424,9.67451158 3.51236076,9.67451158 Z" id="形状"></path>
                    <path d="M13.1713528,21.9875263 C11.2342859,21.9875263 9.65899209,20.4097014 9.65899209,18.4695221 C9.65899209,16.5293428 11.2342859,14.9515179 13.1713528,14.9515179 C15.1084198,14.9515179 16.6837136,16.5293428 16.6837136,18.4695221 C16.6837136,20.4097014 15.1084198,21.9875263 13.1713528,21.9875263 Z M13.1713528,16.71052 C12.2028194,16.71052 11.4151725,17.4994325 11.4151725,18.4695221 C11.4151725,19.4396118 12.2028194,20.2285242 13.1713528,20.2285242 C14.1398863,20.2285242 14.9275332,19.4396118 14.9275332,18.4695221 C14.9275332,17.4994325 14.1398863,16.71052 13.1713528,16.71052 Z" id="形状"></path>
                    <path d="M21.9522547,7.03600843 C20.0151878,7.03600843 18.439894,5.45818354 18.439894,3.51800421 C18.439894,1.57782489 20.0151878,0 21.9522547,0 C23.8893217,0 25.4646155,1.57782489 25.4646155,3.51800421 C25.4646155,5.45818354 23.8893217,7.03600843 21.9522547,7.03600843 Z M21.9522547,1.75900211 C20.9837213,1.75900211 20.1960744,2.54791455 20.1960744,3.51800421 C20.1960744,4.48809387 20.9837213,5.27700632 21.9522547,5.27700632 C22.9207882,5.27700632 23.7084351,4.48809387 23.7084351,3.51800421 C23.7084351,2.54791455 22.9207882,1.75900211 21.9522547,1.75900211 Z" id="形状"></path>
                    <path d="M33.3674272,11.4335137 C31.4303602,11.4335137 29.8550664,9.8556888 29.8550664,7.91550948 C29.8550664,5.97533016 31.4303602,4.39750527 33.3674272,4.39750527 C35.3044942,4.39750527 36.879788,5.97533016 36.879788,7.91550948 C36.879788,9.8556888 35.3044942,11.4335137 33.3674272,11.4335137 Z M33.3674272,6.15650737 C32.3988937,6.15650737 31.6112468,6.94541982 31.6112468,7.91550948 C31.6112468,8.88559914 32.3988937,9.67451158 33.3674272,9.67451158 C34.3359607,9.67451158 35.1236076,8.88559914 35.1236076,7.91550948 C35.1236076,6.94541982 34.3359607,6.15650737 33.3674272,6.15650737 Z" id="形状"></path>
                </g>
            </g>
        </g>
    </g>
</svg>