<?xml version="1.0" encoding="UTF-8"?>
<svg width="57px" height="57px" viewBox="0 0 57 57" version="1.1" xmlns="http://www.w3.org/2000/svg" xmlns:xlink="http://www.w3.org/1999/xlink">
    <!-- Generator: Sketch 64 (93537) - https://sketch.com -->
    <title>落地执行icon</title>
    <desc>Created with Sketch.</desc>
    <g id="官网页面" stroke="none" stroke-width="1" fill="none" fill-rule="evenodd">
        <g id="业务-设计" transform="translate(-1241.000000, -4063.000000)">
            <g id="sketchbook" transform="translate(1241.000000, 4063.000000)">
                <g id="分组" transform="translate(10.523077, 12.276923)" fill="#E4C487">
                    <path d="M13.0715607,12.2950808 C13.0269541,11.9407635 13.0833951,11.6027576 13.2035599,11.2946556 L13.2035599,11.2955618 L11.8690026,9.96800478 L14.6000202,9.06182253 L15.6842342,9.21587351 C14.8185016,8.25350796 15.1835477,6.70846722 16.4234297,6.259907 L22.2040837,4.16753218 C19.8727049,1.61391059 16.5190153,0 12.7793418,0 C5.74059905,0 0.03459289,5.67995036 0.03459289,12.6865515 C0.03459289,19.6931527 5.74059905,25.3731031 12.7793418,25.3731031 C15.3674362,25.3731031 17.7707317,24.6001296 19.781671,23.2816344 L13.689681,17.2174628 L13.0715607,12.2950808 Z" id="路径"></path>
                    <path d="M17.6114223,12.3376714 L19.1517163,15.4050983 L22.7930731,18.1236451 L25.1189898,15.8083494 C25.1854446,15.5464627 25.2500786,15.2836699 25.3001473,15.0154399 L24.3106086,13.2909751 L17.6114223,12.3376714 Z" id="路径"></path>
                </g>
                <path d="M54.8910699,45.5879179 L52.4039678,46.2066673 L48.7446245,38.1977069 L47.6009072,27.9572213 L49.2939401,28.1979478 C49.4061955,28.2144234 49.518451,28.2208305 49.6288661,28.2208305 C50.6281236,28.2208305 51.5335281,27.5883515 51.8564925,26.6217844 C52.078243,25.9627613 51.9945115,25.2451585 51.627381,24.6538684 C51.2602505,24.061663 50.6511268,23.6653338 49.9591916,23.5664804 L47.846581,23.2653435 L47.846581,4.5765488 C47.846581,2.05303979 45.7827371,0 43.2459482,0 L4.60063279,0 C2.06384387,0 -4.54747351e-13,2.05303979 -4.54747351e-13,4.5765488 C-4.54747351e-13,6.78610656 1.58353781,8.63503228 3.68050623,9.06065132 L3.68050623,56.7492051 L40.4487635,56.7492051 L40.5205334,57 L42.2908568,56.4974949 L40.7109995,51.0001445 L47.1988119,49.3864534 L53.1787144,47.8990751 L53.1787144,47.8990751 L53.6838639,47.7736776 L55.25544,52.4618942 L57,51.8825031 L54.8910699,45.5879179 Z M50.5885581,46.6569997 L42.4343966,48.6844108 L40.3576709,42.4886791 L33.7750856,36.8796609 L25.7175373,28.863378 L25.1314167,24.203536 C25.112094,24.0488486 25.1258959,23.8978225 25.1645412,23.7532036 L25.2096274,23.6387899 C25.2979596,23.4127084 25.4470201,23.2269005 25.6338058,23.0950959 C26.1141118,22.7829752 26.8115678,22.870845 27.1971008,23.2928028 C27.2596694,23.3651122 27.3176374,23.4429136 27.3618034,23.5316986 L28.1991186,25.1984777 L28.1991186,25.1984777 L29.6372764,28.0606513 L34.1302544,31.4125157 L37.95154,27.6112342 L37.3102118,26.493641 L45.7192484,27.6890356 L46.9310551,38.5427787 L50.5885581,46.6569997 Z M15.6504326,30.946623 C16.2457545,31.0555449 16.8557984,31.1205318 17.4824046,31.1205318 C19.833328,31.1205318 22.0710757,30.3049908 23.8607219,28.8542249 L23.9683767,29.7155314 L30.448828,36.1583968 C28.8846129,38.168417 26.500565,39.3583197 23.9232905,39.3583197 C19.3567024,39.3583197 15.6421515,35.6632142 15.6421515,31.1205318 C15.6421515,31.061952 15.6495125,31.0052028 15.6504326,30.946623 Z M45.1432492,22.5257732 L45.1837347,22.8864052 L39.5166753,22.0809327 L34.3547653,21.3468542 L33.6057823,20.0434531 L29.7173274,20.6878312 L28.8386066,20.5633491 L27.3857267,20.3564891 C27.2964745,20.164274 27.2753116,19.9464303 27.329599,19.7304172 C27.4059695,19.425619 27.6212791,19.1885538 27.9212404,19.0805473 L34.8746368,16.565276 L45.1432492,22.5257732 Z M29.0069897,22.7124964 C28.9545425,22.6090664 28.8974947,22.5083823 28.8340059,22.4131901 L41.644928,24.2337412 L45.9686027,24.8479141 L45.7974592,25.8501782 L29.4136857,23.5216302 L29.0069897,22.7124964 Z M22.719765,22.9806821 L23.3334894,23.5911938 C23.2893233,23.8676173 23.2700006,24.1486174 23.3058856,24.4314481 L23.4485052,25.5691781 C22.9332343,24.7939108 22.5559824,23.9399268 22.3305514,23.036516 C22.458449,23.012718 22.5900271,22.9989883 22.719765,22.9806821 Z M35.0559017,14.5534252 L27.2918738,17.3615955 C27.1731775,17.4046151 27.0692032,17.472348 26.958788,17.5300125 C26.5520921,16.4462858 25.9650513,15.4577512 25.2372312,14.5946141 C26.6496255,13.4834281 28.4282301,12.8143366 30.3641764,12.8143366 C32.5697198,12.8143366 34.6335636,13.707679 36.1526926,15.1904808 L35.0559017,14.5534252 Z M25.5546749,19.259948 C25.5519145,19.2691011 25.5463937,19.2773389 25.5445535,19.2874073 C25.4700232,19.5839676 25.4635824,19.8832739 25.4865855,20.1798343 L22.5191774,21.1637923 C22.3765578,21.1830138 22.233018,21.198574 22.0931588,21.2242027 C22.0913185,21.1656229 22.0830374,21.109789 22.0830374,21.0521245 C22.0830374,19.0970228 22.7740524,17.3021004 23.9214502,15.8879468 C24.7026377,16.8499374 25.272196,17.9940746 25.5546749,19.259948 Z M20.2427843,21.0521245 C20.2427843,21.278206 20.2667076,21.5006263 20.2814296,21.7248772 C17.2367308,22.8790828 14.9474559,25.4318817 14.1331439,28.5796319 C11.2319849,27.297283 9.20126558,24.4085654 9.20126558,21.0521245 C9.20126558,16.5094421 12.9158165,12.8143366 17.4824046,12.8143366 C19.3999483,12.8143366 21.1877542,13.4770209 22.6093498,14.5946141 C21.1343869,16.3437711 20.2427843,18.5954331 20.2427843,21.0521245 Z M20.5777103,23.5866172 C20.953122,25.0282301 21.644137,26.363667 22.6148705,27.5087195 C21.1647511,28.6519414 19.3668238,29.2899123 17.4824046,29.2899123 C16.9376897,29.2899123 16.4058565,29.2340784 15.8905857,29.1333944 C16.5033899,26.6446671 18.241509,24.6035264 20.5777103,23.5866172 Z M35.6576645,27.3064361 L33.9581907,28.9970132 L31.0901563,26.857019 L30.4157035,25.5151749 L35.0025344,26.1668754 L35.6576645,27.3064361 Z M50.0613256,25.6149436 C50.1082521,25.689999 50.1772616,25.8456017 50.1110125,26.0433086 C50.0328017,26.2757973 49.7954091,26.4213315 49.555256,26.3847191 L47.62115,26.1101262 L47.7922935,25.107862 L49.6987958,25.3787937 C49.9049041,25.4080836 50.0143992,25.5389729 50.0613256,25.6149436 Z M46.0063279,4.5765488 L46.0063279,20.9075055 L44.1660748,19.8393391 L44.1660748,7.32247808 L43.2459482,7.32247808 C41.7240589,7.32247808 40.4855685,6.09047114 40.4855685,4.5765488 C40.4855685,3.06262646 41.7240589,1.83061952 43.2459482,1.83061952 C44.7678375,1.83061952 46.0063279,3.06262646 46.0063279,4.5765488 Z M1.84025312,4.5765488 C1.84025312,3.06262646 3.07874346,1.83061952 4.60063279,1.83061952 L39.5893653,1.83061952 C39.0050849,2.5976491 38.6453154,3.54224877 38.6453154,4.5765488 C38.6453154,5.61084883 39.0050849,6.5554485 39.5893653,7.32247808 L4.60063279,7.32247808 C3.07874346,7.32247808 1.84025312,6.09047114 1.84025312,4.5765488 Z M38.4198844,49.6830138 L39.9224511,54.9185856 L5.52075935,54.9185856 L5.52075935,9.1530976 L42.3258217,9.1530976 L42.3258217,18.7720879 L39.7227836,17.2618268 C38.1797314,13.4944118 34.4661006,10.9837171 30.3641764,10.9837171 C27.9194001,10.9837171 25.6752115,11.8505155 23.9232905,13.291213 C22.1594079,11.8422777 19.9041777,10.9837171 17.4824046,10.9837171 C11.901837,10.9837171 7.36101246,15.5007708 7.36101246,21.0521245 C7.36101246,25.3229598 10.0533028,28.9722998 13.8341028,30.4331342 C13.8184606,30.6610463 13.8018984,30.8889585 13.8018984,31.1205318 C13.8018984,36.6718855 18.3427229,41.1889392 23.9232905,41.1889392 C26.9965132,41.1889392 29.8489055,39.811398 31.7636889,37.4645438 L32.5255537,38.2224203 L38.7722929,43.5495231 L40.6429102,49.1301667 L38.4198844,49.6830138 Z" id="形状" fill="#CBA766" fill-rule="nonzero"></path>
            </g>
        </g>
    </g>
</svg>