<?xml version="1.0" encoding="UTF-8"?>
<svg width="57px" height="57px" viewBox="0 0 57 57" version="1.1" xmlns="http://www.w3.org/2000/svg" xmlns:xlink="http://www.w3.org/1999/xlink">
    <!-- Generator: Sketch 64 (93537) - https://sketch.com -->
    <title>设计实施icon</title>
    <desc>Created with Sketch.</desc>
    <g id="官网页面" stroke="none" stroke-width="1" fill="none" fill-rule="evenodd">
        <g id="业务-设计" transform="translate(-617.000000, -3743.000000)">
            <g id="vector-design" transform="translate(617.000000, 3743.000000)">
                <path d="M49.9872727,16.4090909 L39.9172727,16.4090909 L39.9172727,24.6019656 L42.6636364,30.9742015 L38.0863636,37.3464373 L36.2554545,37.3464373 L31.6781818,30.9742015 L34.4245455,24.6019656 L34.4245455,16.4090909 L23.4390909,16.4090909 L23.4390909,30.9742015 L19.7772727,37.3464373 L16.1154545,30.9742015 L16.1154545,16.4090909 L7.87636364,16.4090909 C6.86480421,16.4090909 6.04545455,17.2238445 6.04545455,18.2297297 L6.04545455,48.2702703 L20.6927273,48.2702703 C20.6927273,49.2761555 21.5120769,50.0909091 22.5236364,50.0909091 L35.34,50.0909091 C36.3515594,50.0909091 37.1709091,49.2761555 37.1709091,48.2702703 L51.8181818,48.2702703 L51.8181818,18.2297297 C51.8181818,17.2238445 50.9988321,16.4090909 49.9872727,16.4090909 Z" id="路径" fill="#E4C487"></path>
                <path d="M55.1612903,47.8064516 L55.1612903,17.4677419 C55.1612903,14.9332314 53.0990266,12.8709677 50.5645161,12.8709677 L40.4516129,12.8709677 L40.4516129,3.67741935 C40.4516129,1.64927225 38.8023407,0 36.7741935,0 C34.7460464,0 33.0967742,1.64927225 33.0967742,3.67741935 L33.0967742,12.8709677 L23.9032258,12.8709677 L23.9032258,4.59677419 C23.9032258,2.06226368 21.8409621,0 19.3064516,0 C16.7719411,0 14.7096774,2.06226368 14.7096774,4.59677419 L14.7096774,12.8709677 L6.43548387,12.8709677 C3.90097335,12.8709677 1.83870968,14.9332314 1.83870968,17.4677419 L1.83870968,47.8064516 L0,47.8064516 L0,52.4032258 C0,54.9377363 2.06226368,57 4.59677419,57 L52.4032258,57 C54.9377363,57 57,54.9377363 57,52.4032258 L57,47.8064516 L55.1612903,47.8064516 Z M38.6129032,23.9032258 L34.9354839,23.9032258 L34.9354839,22.0645161 L38.6129032,22.0645161 L38.6129032,23.9032258 Z M36.7741935,31.2580645 C36.2678301,31.2580645 35.8548387,30.8450731 35.8548387,30.3387097 C35.8548387,29.8323463 36.2678301,29.4193548 36.7741935,29.4193548 C37.280557,29.4193548 37.6935484,29.8323463 37.6935484,30.3387097 C37.6935484,30.8450731 37.280557,31.2580645 36.7741935,31.2580645 Z M34.6221491,25.7419355 L35.8548387,25.7419355 L35.8548387,27.7498818 C34.7873457,28.1305522 34.016129,29.1419324 34.016129,30.3387097 C34.016129,31.535487 34.7873457,32.5468672 35.8548387,32.9275375 L35.8548387,36.1120605 L32.3071525,31.1449408 L34.6221491,25.7419355 Z M37.6935484,32.9275375 C38.7610414,32.5468672 39.5322581,31.535487 39.5322581,30.3387097 C39.5322581,29.1419324 38.7610414,28.1305522 37.6935484,27.7498818 L37.6935484,25.7419355 L38.926238,25.7419355 L41.2421323,31.1440429 L37.6935484,36.1111628 L37.6935484,32.9275375 Z M36.7741935,1.83870968 C37.7882671,1.83870968 38.6129032,2.6633458 38.6129032,3.67741935 L38.6129032,20.2258065 L34.9354839,20.2258065 L34.9354839,3.67741935 C34.9354839,2.6633458 35.76012,1.83870968 36.7741935,1.83870968 Z M21.3996897,32.1774194 L19.3064516,35.8400249 L17.2132135,32.1774194 L21.3996897,32.1774194 Z M22.0645161,30.3387097 L20.2258065,30.3387097 L20.2258065,28.5 L18.3870968,28.5 L18.3870968,30.3387097 L16.5483871,30.3387097 L16.5483871,12.8709677 L18.3870968,12.8709677 L18.3870968,26.6612903 L20.2258065,26.6612903 L20.2258065,12.8709677 L22.0645161,12.8709677 L22.0645161,30.3387097 Z M22.0645161,11.0322581 L16.5483871,11.0322581 L16.5483871,9.19354839 L22.0645161,9.19354839 L22.0645161,11.0322581 Z M19.3064516,1.83870968 C20.8268886,1.83870968 22.0645161,3.07633723 22.0645161,4.59677419 L22.0645161,7.35483871 L16.5483871,7.35483871 L16.5483871,4.59677419 C16.5483871,3.07633723 17.7860147,1.83870968 19.3064516,1.83870968 Z M3.67741935,17.4677419 C3.67741935,15.947305 4.91504691,14.7096774 6.43548387,14.7096774 L14.7096774,14.7096774 L14.7096774,31.502717 L19.3064516,39.5470719 L23.9032258,31.502717 L23.9032258,14.7096774 L33.0967742,14.7096774 L33.0967742,24.6340411 L30.2089765,31.3711883 L35.3812452,38.6129032 L38.166244,38.6129032 L43.3385128,31.3720861 L40.4516129,24.6340411 L40.4516129,14.7096774 L50.5645161,14.7096774 C52.0849531,14.7096774 53.3225806,15.947305 53.3225806,17.4677419 L53.3225806,47.8064516 L35.8548387,47.8064516 L35.8548387,48.7258065 C35.8548387,49.2321699 35.4418473,49.6451613 34.9354839,49.6451613 L22.0645161,49.6451613 C21.5581527,49.6451613 21.1451613,49.2321699 21.1451613,48.7258065 L21.1451613,47.8064516 L3.67741935,47.8064516 L3.67741935,17.4677419 Z M55.1612903,52.4032258 C55.1612903,53.9236628 53.9236628,55.1612903 52.4032258,55.1612903 L4.59677419,55.1612903 C3.07633723,55.1612903 1.83870968,53.9236628 1.83870968,52.4032258 L1.83870968,49.6451613 L19.463568,49.6451613 C19.8433405,50.7153478 20.8654942,51.483871 22.0645161,51.483871 L34.9354839,51.483871 C36.1345058,51.483871 37.1566595,50.7153478 37.536432,49.6451613 L55.1612903,49.6451613 L55.1612903,52.4032258 Z" id="形状" fill="#CBA766" fill-rule="nonzero"></path>
                <polygon id="路径" fill="#000000" points="50.0909091 51.8181818 51.8181818 51.8181818 51.8181818 53.5454545 50.0909091 53.5454545"></polygon>
                <polygon id="路径" fill="#000000" points="45.7727273 51.8181818 47.5 51.8181818 47.5 53.5454545 45.7727273 53.5454545"></polygon>
                <polygon id="路径" fill="#000000" points="42.3181818 51.8181818 44.0454545 51.8181818 44.0454545 53.5454545 42.3181818 53.5454545"></polygon>
                <path d="M28.9313664,45.7727273 C30.135887,45.7727273 31.1538109,44.9925221 31.5369442,43.9125874 L42.9821492,43.9125874 C43.3652825,44.9925221 44.3832063,45.7727273 45.5877269,45.7727273 C47.1180012,45.7727273 48.3636364,44.5206752 48.3636364,42.9825175 C48.3636364,41.7717917 47.58743,40.7486239 46.51303,40.3635168 L46.51303,21.5909091 L44.6624237,21.5909091 L44.6624237,40.3635168 C43.8785366,40.6441728 43.2613666,41.2645221 42.9821492,42.0524476 L31.5369442,42.0524476 C31.1538109,40.9725129 30.135887,40.1923077 28.9313664,40.1923077 C27.7268458,40.1923077 26.7089219,40.9725129 26.3257886,42.0524476 L14.8814873,42.0524476 C14.6022698,41.2645221 13.9850999,40.6441728 13.2012126,40.3635168 L13.2012126,21.5909091 L11.3506063,21.5909091 L11.3506063,40.3635168 C10.2762065,40.7486239 9.5,41.7717917 9.5,42.9825175 C9.5,44.5206752 10.7456351,45.7727273 12.2759095,45.7727273 C13.48043,45.7727273 14.498354,44.9925221 14.8814873,43.9125874 L26.3266922,43.9125874 C26.7089219,44.9925221 27.7268458,45.7727273 28.9313664,45.7727273 Z M45.5868233,42.0524476 C46.096463,42.0524476 46.5121265,42.4702524 46.5121265,42.9825175 C46.5121265,43.4947826 46.096463,43.9125874 45.5868233,43.9125874 C45.0771837,43.9125874 44.6615202,43.4947826 44.6615202,42.9825175 C44.6615202,42.4702524 45.0771837,42.0524476 45.5868233,42.0524476 Z M28.9313664,42.0524476 C29.441006,42.0524476 29.8566696,42.4702524 29.8566696,42.9825175 C29.8566696,43.4947826 29.441006,43.9125874 28.9313664,43.9125874 C28.4217268,43.9125874 28.0060632,43.4947826 28.0060632,42.9825175 C28.0060632,42.4702524 28.4217268,42.0524476 28.9313664,42.0524476 Z M12.2759095,43.9125874 C11.7662699,43.9125874 11.3506063,43.4947826 11.3506063,42.9825175 C11.3506063,42.4702524 11.7662699,42.0524476 12.2759095,42.0524476 C12.7855491,42.0524476 13.2012126,42.4702524 13.2012126,42.9825175 C13.2012126,43.4947826 12.7855491,43.9125874 12.2759095,43.9125874 Z" id="形状" fill="#000000" fill-rule="nonzero"></path>
            </g>
        </g>
    </g>
</svg>