<?xml version="1.0" encoding="UTF-8"?>
<svg width="57px" height="57px" viewBox="0 0 57 57" version="1.1" xmlns="http://www.w3.org/2000/svg" xmlns:xlink="http://www.w3.org/1999/xlink">
    <!-- Generator: Sketch 64 (93537) - https://sketch.com -->
    <title>设计规范</title>
    <desc>Created with Sketch.</desc>
    <g id="官网页面" stroke="none" stroke-width="1" fill="none" fill-rule="evenodd">
        <g id="业务-设计" transform="translate(-630.000000, -4060.000000)">
            <g id="graphic-design-(1)" transform="translate(630.000000, 4060.000000)">
                <path d="M49.1918344,20.7272727 C48.4974268,21.372697 47.7126448,21.9251364 46.8559322,22.3590657 L46.8559322,24.3737374 L46.3948382,24.3737374 C47.1584099,24.3737374 47.7781202,24.9863434 47.7781202,25.7411616 C47.7781202,26.4959798 47.1584099,27.1085859 46.3948382,27.1085859 C47.1584099,27.1085859 47.7781202,27.7211919 47.7781202,28.4760101 C47.7781202,29.2308283 47.1584099,29.8434343 46.3948382,29.8434343 L38.0951464,29.8434343 C37.3315747,29.8434343 36.7118644,29.2308283 36.7118644,28.4760101 C36.7118644,27.7211919 37.3315747,27.1085859 38.0951464,27.1085859 C37.3315747,27.1085859 36.7118644,26.4959798 36.7118644,25.7411616 C36.7118644,24.9863434 37.3315747,24.3737374 38.0951464,24.3737374 L37.6340524,24.3737374 L37.6340524,22.3590657 C36.7773398,21.9251364 35.9925578,21.372697 35.2981502,20.7272727 L2.59090909,20.7272727 L2.59090909,28.8242475 L10.8177481,36.4781768 L7.201849,33.1143131 L7.201849,25.2853535 L29.3343606,25.2853535 L29.3343606,39.8712121 L14.4640794,39.8712121 L29.1609892,53.5454545 L54.2334361,53.5454545 C55.758735,53.5454545 57,52.3184192 57,50.8106061 L57,20.7272727 L49.1918344,20.7272727 Z" id="路径" fill="#E4C487"></path>
                <g id="分组" fill="#CBA766">
                    <circle id="椭圆形" cx="7.35483871" cy="17.4677419" r="1"></circle>
                    <circle id="椭圆形" cx="11.0322581" cy="17.4677419" r="1"></circle>
                    <circle id="椭圆形" cx="14.7096774" cy="17.4677419" r="1"></circle>
                    <path d="M16.913371,40.4516129 L30.3387097,40.4516129 L30.3387097,23.9032258 L6.43548387,23.9032258 L6.43548387,30.5906129 L2.8886129,27.2524355 C1.99408065,26.4103065 1.23377419,26.6070484 0.948774194,26.7284032 C0.662854839,26.8506774 0,27.2699032 0,28.5 L0,54.2419355 C0,55.7625484 1.23745161,57 2.75806452,57 L30.3387097,57 C31.5421452,57 31.9576935,56.4051774 32.0983548,56.0493871 C32.2390161,55.6945161 32.3456613,54.9755806 31.4685968,54.1509194 L16.913371,40.4516129 Z M8.27419355,25.7419355 L28.5,25.7419355 L28.5,38.6129032 L14.9597419,38.6129032 L8.27419355,32.3208387 L8.27419355,25.7419355 Z M2.75806452,55.1612903 C2.25058065,55.1612903 1.83870968,54.7494194 1.83870968,54.2419355 L1.83870968,53.3225806 L3.67741935,53.3225806 L3.67741935,51.483871 L1.83870968,51.483871 L1.83870968,49.6451613 L3.67741935,49.6451613 L3.67741935,47.8064516 L1.83870968,47.8064516 L1.83870968,45.9677419 L3.67741935,45.9677419 L3.67741935,44.1290323 L1.83870968,44.1290323 L1.83870968,42.2903226 L3.67741935,42.2903226 L3.67741935,40.4516129 L1.83870968,40.4516129 L1.83870968,38.6129032 L3.67741935,38.6129032 L3.67741935,36.7741935 L1.83870968,36.7741935 L1.83870968,34.9354839 L3.67741935,34.9354839 L3.67741935,33.0967742 L1.83870968,33.0967742 L1.83870968,28.7895968 L29.8597258,55.1612903 L2.75806452,55.1612903 Z" id="形状" fill-rule="nonzero"></path>
                    <path d="M6.43548387,39.4274516 L6.43548387,50.5645161 L18.2685,50.5645161 L6.43548387,39.4274516 Z M8.27419355,43.6831452 L13.6321935,48.7258065 L8.27419355,48.7258065 L8.27419355,43.6831452 Z" id="形状" fill-rule="nonzero"></path>
                    <path d="M57,5.51612903 L57,0 L51.483871,0 L51.483871,1.83870968 L33.0967742,1.83870968 L33.0967742,0 L27.5806452,0 L27.5806452,5.51612903 L33.0967742,5.51612903 L33.0967742,3.67741935 L36.2051129,3.67741935 C33.2273226,5.65495161 31.2580645,9.03541935 31.2580645,12.8709677 L5.51612903,12.8709677 C3.99551613,12.8709677 2.75806452,14.1084194 2.75806452,15.6290323 L2.75806452,22.0645161 L3.67741935,22.0645161 L36.2474032,22.0645161 C36.4239194,22.1803548 36.5894032,22.3099839 36.7741935,22.416629 L36.7741935,23.4555 C36.2189032,23.8756452 35.8548387,24.5348226 35.8548387,25.2831774 C35.8548387,25.8026129 36.0341129,26.277 36.3255484,26.6622097 C36.0341129,27.0465 35.8548387,27.5208871 35.8548387,28.0403226 C35.8548387,29.3081129 36.8854355,30.3387097 38.1532258,30.3387097 L46.4274194,30.3387097 C47.6952097,30.3387097 48.7258065,29.3081129 48.7258065,28.0403226 C48.7258065,27.5208871 48.5465323,27.0465 48.2550968,26.6612903 C48.5465323,26.2760806 48.7258065,25.8016935 48.7258065,25.2822581 C48.7258065,24.5339032 48.3617419,23.8747258 47.8064516,23.4545806 L47.8064516,22.4157097 C47.9912419,22.3090645 48.1567258,22.1794355 48.3332419,22.0635968 L56.0806452,22.0635968 L57,22.0635968 L57,15.6281129 C57,14.1075 55.7625484,12.8700484 54.2419355,12.8700484 L53.3225806,12.8700484 C53.3225806,9.0345 51.3533226,5.65403226 48.3755323,3.6765 L51.483871,3.6765 L51.483871,5.51520968 L57,5.51520968 L57,5.51612903 Z M29.4193548,3.67741935 L29.4193548,1.83870968 L31.2580645,1.83870968 L31.2580645,3.67741935 L29.4193548,3.67741935 Z M4.59677419,15.6290323 C4.59677419,15.1215484 5.00864516,14.7096774 5.51612903,14.7096774 L31.4290645,14.7096774 C31.7775,16.7846613 32.7088065,18.6858871 34.0979516,20.2258065 L4.59677419,20.2258065 L4.59677419,15.6290323 Z M42.2903226,14.7096774 C41.2762742,14.7096774 40.4516129,13.8850161 40.4516129,12.8709677 C40.4516129,11.8569194 41.2762742,11.0322581 42.2903226,11.0322581 C43.304371,11.0322581 44.1290323,11.8569194 44.1290323,12.8709677 C44.1290323,13.8850161 43.304371,14.7096774 42.2903226,14.7096774 Z M46.4274194,24.8225806 C46.6802419,24.8225806 46.8870968,25.0294355 46.8870968,25.2822581 C46.8870968,25.5350806 46.6802419,25.7419355 46.4274194,25.7419355 L38.1532258,25.7419355 C37.9004032,25.7419355 37.6935484,25.5350806 37.6935484,25.2822581 C37.6935484,25.0294355 37.9004032,24.8225806 38.1532258,24.8225806 L46.4274194,24.8225806 Z M46.4274194,28.5 L38.1532258,28.5 C37.9004032,28.5 37.6935484,28.2931452 37.6935484,28.0403226 C37.6935484,27.7875 37.9004032,27.5806452 38.1532258,27.5806452 L46.4274194,27.5806452 C46.6802419,27.5806452 46.8870968,27.7875 46.8870968,28.0403226 C46.8870968,28.2931452 46.6802419,28.5 46.4274194,28.5 Z M54.2419355,14.7096774 C54.7494194,14.7096774 55.1612903,15.1215484 55.1612903,15.6290323 L55.1612903,20.2258065 L50.4826935,20.2258065 C51.8718387,18.6858871 52.8022258,16.7846613 53.1515806,14.7096774 L54.2419355,14.7096774 Z M51.483871,12.8709677 C51.483871,16.3341774 49.5615,19.4691774 46.467871,21.0513871 L45.9677419,21.3088065 L45.9677419,22.983871 L43.2096774,22.983871 L43.2096774,16.4178387 C44.7918871,16.0068871 45.9677419,14.5800484 45.9677419,12.8709677 C45.9677419,10.842871 44.3184194,9.19354839 42.2903226,9.19354839 C40.2622258,9.19354839 38.6129032,10.842871 38.6129032,12.8709677 C38.6129032,14.5800484 39.7887581,16.0068871 41.3709677,16.4178387 L41.3709677,22.983871 L38.6129032,22.983871 L38.6129032,21.3088065 L38.1127742,21.0523065 C35.0191452,19.4691774 33.0967742,16.3341774 33.0967742,12.8709677 C33.0967742,7.80164516 37.221,3.67741935 42.2903226,3.67741935 C47.3596452,3.67741935 51.483871,7.80164516 51.483871,12.8709677 Z M55.1612903,1.83870968 L55.1612903,3.67741935 L53.3225806,3.67741935 L53.3225806,1.83870968 L55.1612903,1.83870968 Z" id="形状" fill-rule="nonzero"></path>
                    <rect id="矩形" x="32.1774194" y="33.0967742" width="21.1451613" height="1.83870968"></rect>
                    <rect id="矩形" x="32.1774194" y="36.7741935" width="21.1451613" height="1.83870968"></rect>
                    <rect id="矩形" x="32.1774194" y="40.4516129" width="21.1451613" height="1.83870968"></rect>
                    <rect id="矩形" x="32.1774194" y="44.1290323" width="21.1451613" height="1.83870968"></rect>
                </g>
            </g>
        </g>
    </g>
</svg>