<?xml version="1.0" encoding="UTF-8"?>
<svg width="40px" height="39px" viewBox="0 0 40 39" version="1.1" xmlns="http://www.w3.org/2000/svg" xmlns:xlink="http://www.w3.org/1999/xlink">
    <!-- Generator: Sketch 64 (93537) - https://sketch.com -->
    <title>设计服务菜单icon</title>
    <desc>Created with Sketch.</desc>
    <g id="官网页面" stroke="none" stroke-width="1" fill="none" fill-rule="evenodd">
        <g id="合作咨询表单弹窗-交互状态备份-2" transform="translate(-1470.000000, -207.000000)" fill="#A9A9A9" fill-rule="nonzero">
            <g id="cryptocurrencies-growing-up" transform="translate(1470.000000, 207.000000)">
                <path d="M35.625,30.8333333 L4.375,30.8333333 C3.34125,30.8333333 2.5,29.9992735 2.5,28.974359 L2.5,18.2332051 C2.5,18.0620913 2.63991102,17.9233761 2.8125,17.9233761 C2.98508898,17.9233761 3.125,18.0620913 3.125,18.2332051 L3.125,28.974359 C3.125,29.6578419 3.685625,30.2136752 4.375,30.2136752 L35.625,30.2136752 C36.314375,30.2136752 36.875,29.6578419 36.875,28.974359 L36.875,6.97649573 C36.875,6.80538186 37.014911,6.66666667 37.1875,6.66666667 C37.360089,6.66666667 37.5,6.80538186 37.5,6.97649573 L37.5,28.974359 C37.5,29.9992735 36.65875,30.8333333 35.625,30.8333333 Z" id="路径"></path>
                <path d="M38.5449735,4 L0.621693122,4 C0.278341492,4 6.07514039e-13,4.24873069 6.07514039e-13,4.55555556 L6.07514039e-13,5.11111111 C6.07514039e-13,5.41793597 0.278341492,5.66666667 0.621693122,5.66666667 L38.5449735,5.66666667 C38.8883252,5.66666667 39.1666667,5.41793597 39.1666667,5.11111111 L39.1666667,4.55555556 C39.1666667,4.24873069 38.8883252,4 38.5449735,4 Z" id="路径"></path>
                <path d="M39.0625,5.83333333 L0.9375,5.83333333 C0.420625,5.83333333 0,5.41270832 0,4.89583332 L0,4.27083333 C0,3.75395833 0.420625,3.33333333 0.9375,3.33333333 L39.0625,3.33333333 C39.579375,3.33333333 40,3.75395833 40,4.27083333 L40,4.89583332 C40,5.41270832 39.579375,5.83333333 39.0625,5.83333333 Z M0.9375,3.95833333 C0.764911016,3.95833333 0.625,4.09824434 0.625,4.27083333 L0.625,4.89583332 C0.625,5.0684223 0.764911016,5.20833332 0.9375,5.20833332 L39.0625,5.20833332 C39.235089,5.20833332 39.375,5.0684223 39.375,4.89583332 L39.375,4.27083333 C39.375,4.09824434 39.235089,3.95833333 39.0625,3.95833333 L0.9375,3.95833333 Z M21.875,38.333333 C21.702411,38.333333 21.5625,38.193422 21.5625,38.020833 L21.5625,31.7708331 C21.5625,31.5982441 21.702411,31.4583331 21.875,31.4583331 C22.047589,31.4583331 22.1875,31.5982441 22.1875,31.7708331 L22.1875,38.020833 C22.1875,38.193422 22.047589,38.333333 21.875,38.333333 Z M18.125,38.333333 C17.952411,38.333333 17.8125,38.193422 17.8125,38.020833 L17.8125,31.7708331 C17.8125,31.5982441 17.952411,31.4583331 18.125,31.4583331 C18.297589,31.4583331 18.4375,31.5982441 18.4375,31.7708331 L18.4375,38.020833 C18.4375,38.193422 18.297589,38.333333 18.125,38.333333 Z M34.375,38.3333332 C34.2567365,38.3333332 34.148607,38.2665646 34.095625,38.160833 L30.970625,31.9108331 C30.8934777,31.756366 30.9561579,31.5686054 31.110625,31.4914581 C31.2650921,31.4143108 31.4528527,31.476991 31.53,31.6314581 L34.655,37.881458 C34.7032947,37.9783757 34.6979748,38.0933872 34.6409396,38.1854328 C34.5839045,38.2774784 34.4832838,38.3334378 34.375,38.3333332 Z M30.625,38.3333332 C30.5067365,38.3333332 30.398607,38.2665646 30.345625,38.160833 L27.220625,31.9108331 C27.1434777,31.756366 27.2061579,31.5686054 27.360625,31.4914581 C27.5150921,31.4143108 27.7028527,31.476991 27.78,31.6314581 L30.905,37.881458 C30.9532947,37.9783757 30.9479748,38.0933872 30.8909396,38.1854328 C30.8339045,38.2774784 30.7332838,38.3334378 30.625,38.3333332 Z M9.375,38.333333 C9.26664746,38.333333 9.16602936,38.2771988 9.10910714,38.1850026 C9.05218492,38.0928065 9.04708306,37.9777038 9.095625,37.880833 L12.220625,31.6308331 C12.2977723,31.476366 12.4855329,31.4136858 12.64,31.4908331 C12.7944671,31.5679804 12.8571473,31.755741 12.78,31.9102081 L9.655,38.160208 C9.6018675,38.2661788 9.49354468,38.3331552 9.375,38.333333 L9.375,38.333333 Z M5.625,38.333333 C5.51664746,38.333333 5.41602936,38.2771988 5.35910714,38.1850026 C5.30218492,38.0928065 5.29708306,37.9777038 5.345625,37.880833 L8.470625,31.6308331 C8.54777228,31.476366 8.73553286,31.4136858 8.88999999,31.4908331 C9.04446713,31.5679804 9.10714727,31.755741 9.03,31.9102081 L5.905,38.160208 C5.8518675,38.2661788 5.74354468,38.3331552 5.625,38.333333 L5.625,38.333333 Z M31.25,25.8333331 L10,25.8333331 C9.82741102,25.8333331 9.6875,25.6934221 9.6875,25.5208331 L9.6875,18.0208332 C9.6875,17.8482442 9.82741102,17.7083332 10,17.7083332 C10.172589,17.7083332 10.3125,17.8482442 10.3125,18.0208332 L10.3125,25.2083332 L31.25,25.2083332 C31.422589,25.2083332 31.5625,25.3482442 31.5625,25.5208331 C31.5625,25.6934221 31.422589,25.8333331 31.25,25.8333331 Z" id="形状"></path>
                <path d="M12.8093647,20.8333333 C12.6746482,20.8348829 12.5547745,20.748506 12.5142112,20.6206348 C12.4736478,20.4927635 12.5219551,20.3535359 12.6331536,20.2778278 L18.772911,16.0001692 C18.894902,15.915234 19.0605386,15.9296592 19.1658555,16.0343905 L22.0226846,18.8778112 L29.4800339,11.7518432 C29.6024452,11.6349002 29.7969273,11.6388674 29.9144218,11.7607041 C30.0319162,11.8825409 30.0279304,12.0761101 29.9055191,12.1930532 L22.2308224,19.526182 C22.1102853,19.6414592 21.9192361,19.6395577 21.8010394,19.5219044 L18.9128975,16.647929 L12.9843477,20.7783138 C12.9332534,20.8144477 12.8720423,20.8336868 12.8093647,20.8333333 L12.8093647,20.8333333 Z" id="路径"></path>
                <path d="M30.5,15 C30.3159051,15 30.1666667,14.8507616 30.1666667,14.6666667 L30.1666667,12.3333333 L27.8333333,12.3333333 C27.6492384,12.3333333 27.5,12.1840949 27.5,12 C27.5,11.8159051 27.6492384,11.6666667 27.8333333,11.6666667 L30.5,11.6666667 C30.6840949,11.6666667 30.8333333,11.8159051 30.8333333,12 L30.8333333,14.6666667 C30.8333333,14.8507616 30.6840949,15 30.5,15 Z" id="路径"></path>
                <path d="M5.41666667,17.5 C2.42985294,17.5 0,15.0701471 0,12.0833333 C0,9.09651961 2.42985294,6.66666667 5.41666667,6.66666667 C8.40348039,6.66666667 10.8333333,9.09651961 10.8333333,12.0833333 C10.8333333,15.0701471 8.40348039,17.5 5.41666667,17.5 Z M5.41666667,7.30392157 C2.78098039,7.30392157 0.637254902,9.44764706 0.637254902,12.0833333 C0.637254902,14.7190196 2.78098039,16.8627451 5.41666667,16.8627451 C8.05235294,16.8627451 10.1960784,14.7190196 10.1960784,12.0833333 C10.1960784,9.44764706 8.05235294,7.30392157 5.41666667,7.30392157 Z" id="形状"></path>
                <path d="M5.9375,12.5 L3.68055556,12.5 C3.48879002,12.5 3.33333333,12.3756347 3.33333333,12.2222222 L3.33333333,10.2777778 C3.33333333,10.1243653 3.48879002,10 3.68055556,10 L5.9375,10 C6.79930556,10 7.5,10.5605556 7.5,11.25 C7.5,11.9394444 6.79930556,12.5 5.9375,12.5 Z M4.02777778,11.9444444 L5.9375,11.9444444 C6.41597222,11.9444444 6.80555556,11.6327778 6.80555556,11.25 C6.80555556,10.8672222 6.41597222,10.5555556 5.9375,10.5555556 L4.02777778,10.5555556 L4.02777778,11.9444444 Z" id="形状"></path>
                <path d="M6,15 L3.5,15 C3.31590508,15 3.16666667,14.860089 3.16666667,14.6875 L3.16666667,12.5 C3.16666667,12.327411 3.31590508,12.1875 3.5,12.1875 L6,12.1875 C6.82733333,12.1875 7.5,12.818125 7.5,13.59375 C7.5,14.369375 6.82733333,15 6,15 Z M3.83333333,14.375 L6,14.375 C6.45933333,14.375 6.83333333,14.024375 6.83333333,13.59375 C6.83333333,13.163125 6.45933333,12.8125 6,12.8125 L3.83333333,12.8125 L3.83333333,14.375 Z M3.5,10.625 L2.83333333,10.625 C2.64923842,10.625 2.5,10.485089 2.5,10.3125 C2.5,10.139911 2.64923842,10 2.83333333,10 L3.5,10 C3.68409492,10 3.83333333,10.139911 3.83333333,10.3125 C3.83333333,10.485089 3.68409492,10.625 3.5,10.625 Z" id="形状"></path>
                <path d="M3.5,14.9242424 L2.83333333,14.9242424 C2.64923842,14.9242424 2.5,14.7885711 2.5,14.6212121 C2.5,14.4538531 2.64923842,14.3181818 2.83333333,14.3181818 L3.5,14.3181818 C3.68409492,14.3181818 3.83333333,14.4538531 3.83333333,14.6212121 C3.83333333,14.7885711 3.68409492,14.9242424 3.5,14.9242424 Z M4.16666667,10.3787879 C3.98257175,10.3787879 3.83333333,10.2431166 3.83333333,10.0757576 L3.83333333,9.46969697 C3.83333333,9.30233795 3.98257175,9.16666667 4.16666667,9.16666667 C4.35076158,9.16666667 4.5,9.30233795 4.5,9.46969697 L4.5,10.0757576 C4.5,10.2431166 4.35076158,10.3787879 4.16666667,10.3787879 Z M5.5,10.3787879 C5.31590508,10.3787879 5.16666667,10.2431166 5.16666667,10.0757576 L5.16666667,9.46969697 C5.16666667,9.30233795 5.31590508,9.16666667 5.5,9.16666667 C5.68409492,9.16666667 5.83333333,9.30233795 5.83333333,9.46969697 L5.83333333,10.0757576 C5.83333333,10.2431166 5.68409492,10.3787879 5.5,10.3787879 Z M4.16666667,15.8333333 C3.98257175,15.8333333 3.83333333,15.697662 3.83333333,15.530303 L3.83333333,14.9242424 C3.83333333,14.7568834 3.98257175,14.6212121 4.16666667,14.6212121 C4.35076158,14.6212121 4.5,14.7568834 4.5,14.9242424 L4.5,15.530303 C4.5,15.697662 4.35076158,15.8333333 4.16666667,15.8333333 Z M5.5,15.8333333 C5.31590508,15.8333333 5.16666667,15.697662 5.16666667,15.530303 L5.16666667,14.9242424 C5.16666667,14.7568834 5.31590508,14.6212121 5.5,14.6212121 C5.68409492,14.6212121 5.83333333,14.7568834 5.83333333,14.9242424 L5.83333333,15.530303 C5.83333333,15.697662 5.68409492,15.8333333 5.5,15.8333333 Z" id="形状"></path>
                <path d="M29.848044,24.1666667 L26.8183609,24.1666667 C26.6510361,24.1666667 26.5153926,24.0292159 26.5153926,23.8596618 L26.5153926,22.0176328 L25.3035193,22.0176328 C25.1808118,22.0178553 25.0700892,21.9430534 25.0231014,21.8281883 C24.9761135,21.7133231 25.0021405,21.5810807 25.0890178,21.4932686 L28.1187009,18.4232202 C28.2370099,18.303371 28.428789,18.303371 28.5470981,18.4232202 L31.5767812,21.4932686 C31.6642083,21.5807796 31.6906704,21.7132048 31.6437268,21.828287 C31.5967831,21.9433692 31.4857729,22.0182133 31.3628855,22.0176328 L30.1510123,22.0176328 L30.1510123,23.8596618 C30.1510123,24.0292159 30.0153688,24.1666667 29.848044,24.1666667 L29.848044,24.1666667 Z M27.1213292,23.552657 L29.5450757,23.552657 L29.5450757,21.710628 C29.5450757,21.5410739 29.6807192,21.4036231 29.848044,21.4036231 L30.63152,21.4036231 L28.3332024,19.0746845 L26.0348848,21.4036231 L26.8183609,21.4036231 C26.9856856,21.4036231 27.1213292,21.5410739 27.1213292,21.710628 L27.1213292,23.552657 Z" id="形状"></path>
                <path d="M35.4861111,10.8333333 C35.2943456,10.8333333 35.1388889,10.6778766 35.1388889,10.4861111 L35.1388889,7.36111111 L32.0138889,7.36111111 C31.8221234,7.36111111 31.6666667,7.20565443 31.6666667,7.01388889 C31.6666667,6.82212335 31.8221234,6.66666667 32.0138889,6.66666667 L35.4861111,6.66666667 C35.6778766,6.66666667 35.8333333,6.82212335 35.8333333,7.01388889 L35.8333333,10.4861111 C35.8333333,10.6778766 35.6778766,10.8333333 35.4861111,10.8333333 Z" id="路径"></path>
                <path d="M27.0833333,0.833333333 L26.25,0.833333333 C26.0198814,0.833333333 25.8333333,0.646785312 25.8333333,0.416666667 C25.8333333,0.186548021 26.0198814,0 26.25,0 L27.0833333,0 C27.313452,0 27.5,0.186548021 27.5,0.416666667 C27.5,0.646785312 27.313452,0.833333333 27.0833333,0.833333333 Z" id="路径"></path>
                <path d="M25.515873,0.833333333 L12.8174603,0.833333333 C12.6421318,0.833333333 12.5,0.646785312 12.5,0.416666667 C12.5,0.186548021 12.6421318,0 12.8174603,0 L25.515873,0 C25.6912015,0 25.8333333,0.186548021 25.8333333,0.416666667 C25.8333333,0.646785312 25.6912015,0.833333333 25.515873,0.833333333 Z" id="路径"></path>
            </g>
        </g>
    </g>
</svg>