<?xml version="1.0" encoding="UTF-8"?>
<svg width="40px" height="40px" viewBox="0 0 40 40" version="1.1" xmlns="http://www.w3.org/2000/svg" xmlns:xlink="http://www.w3.org/1999/xlink">
    <title>cpu-mining</title>
    <g id="官网页面" stroke="none" stroke-width="1" fill="none" fill-rule="evenodd">
        <g id="合作咨询表单弹窗-交互状态备份-2" transform="translate(-1470.000000, -115.000000)" fill="#2996FF" fill-rule="nonzero">
            <g id="cpu-mining" transform="translate(1470.000000, 115.000000)">
                <path d="M29.7297297,31.7567568 L10.1351351,31.7567568 C9.01756757,31.7567568 8.10810811,30.8472973 8.10810811,29.7297297 L8.10810811,10.1351351 C8.10810811,9.01756757 9.01756757,8.10810811 10.1351351,8.10810811 L29.7297297,8.10810811 C30.8472973,8.10810811 31.7567568,9.01756757 31.7567568,10.1351351 L31.7567568,29.7297297 C31.7567568,30.8472973 30.8472973,31.7567568 29.7297297,31.7567568 Z M10.1351351,8.78378378 C9.38986486,8.78378378 8.78378378,9.38986486 8.78378378,10.1351351 L8.78378378,29.7297297 C8.78378378,30.475 9.38986486,31.0810811 10.1351351,31.0810811 L29.7297297,31.0810811 C30.475,31.0810811 31.0810811,30.475 31.0810811,29.7297297 L31.0810811,10.1351351 C31.0810811,9.38986486 30.475,8.78378378 29.7297297,8.78378378 L10.1351351,8.78378378 Z" id="形状"></path>
                <path d="M27.7027027,29.7297297 L12.1621622,29.7297297 C11.0445946,29.7297297 10.1351351,28.8202703 10.1351351,27.7027027 L10.1351351,12.1621622 C10.1351351,11.0445946 11.0445946,10.1351351 12.1621622,10.1351351 L27.7027027,10.1351351 C28.8202703,10.1351351 29.7297297,11.0445946 29.7297297,12.1621622 L29.7297297,27.7027027 C29.7297297,28.8202703 28.8202703,29.7297297 27.7027027,29.7297297 Z M12.1621622,10.8108108 C11.4168919,10.8108108 10.8108108,11.4168919 10.8108108,12.1621622 L10.8108108,27.7027027 C10.8108108,28.447973 11.4168919,29.0540541 12.1621622,29.0540541 L27.7027027,29.0540541 C28.447973,29.0540541 29.0540541,28.447973 29.0540541,27.7027027 L29.0540541,12.1621622 C29.0540541,11.4168919 28.447973,10.8108108 27.7027027,10.8108108 L12.1621622,10.8108108 Z" id="形状"></path>
                <path d="M20.0945946,8.78378378 C19.8184522,8.78378378 19.5945946,8.63252863 19.5945946,8.44594595 L19.5945946,4.39189189 C19.5945946,4.20530921 19.8184522,4.05405405 20.0945946,4.05405405 C20.370737,4.05405405 20.5945946,4.20530921 20.5945946,4.39189189 L20.5945946,8.44594595 C20.5945946,8.63252863 20.370737,8.78378378 20.0945946,8.78378378 Z" id="形状"></path>
                <path d="M19.9324324,4.72972973 C19.0013514,4.72972973 18.2432432,3.9722973 18.2432432,3.04054054 C18.2432432,2.10878378 19.0013514,1.35135135 19.9324324,1.35135135 C20.8635135,1.35135135 21.6216216,2.10878378 21.6216216,3.04054054 C21.6216216,3.9722973 20.8635135,4.72972973 19.9324324,4.72972973 Z M19.9324324,2.02702703 C19.3736486,2.02702703 18.9189189,2.48175676 18.9189189,3.04054054 C18.9189189,3.59932432 19.3736486,4.05405405 19.9324324,4.05405405 C20.4912162,4.05405405 20.9459459,3.59932432 20.9459459,3.04054054 C20.9459459,2.48175676 20.4912162,2.02702703 19.9324324,2.02702703 Z M12.5,3.37837838 C11.5689189,3.37837838 10.8108108,2.62094595 10.8108108,1.68918919 C10.8108108,0.757432432 11.5689189,0 12.5,0 C13.4310811,0 14.1891892,0.757432432 14.1891892,1.68918919 C14.1891892,2.62094595 13.4310811,3.37837838 12.5,3.37837838 Z M12.5,0.675675676 C11.9412162,0.675675676 11.4864865,1.13040541 11.4864865,1.68918919 C11.4864865,2.24797297 11.9412162,2.7027027 12.5,2.7027027 C13.0587838,2.7027027 13.5135135,2.24797297 13.5135135,1.68918919 C13.5135135,1.13040541 13.0587838,0.675675676 12.5,0.675675676 Z" id="形状"></path>
                <path d="M15.8783784,8.78378378 C15.8018096,8.78378378 15.7275108,8.75777527 15.6675676,8.71013514 L12.2891892,6.00743243 C12.2088562,5.94328322 12.162103,5.84604648 12.1621621,5.74324324 L12.1621621,3.04054054 C12.1621621,2.85395785 12.3134173,2.7027027 12.5,2.7027027 C12.6865827,2.7027027 12.8378378,2.85395785 12.8378378,3.04054054 L12.8378378,5.58108108 L16.0891892,8.18243243 C16.2001229,8.27246085 16.2425923,8.42244346 16.1953281,8.55726748 C16.148064,8.69209149 16.021243,8.78272738 15.8783784,8.78378378 L15.8783784,8.78378378 Z M27.3648649,3.37837838 C26.4337838,3.37837838 25.6756757,2.62094595 25.6756757,1.68918919 C25.6756757,0.757432432 26.4337838,0 27.3648649,0 C28.2959459,0 29.0540541,0.757432432 29.0540541,1.68918919 C29.0540541,2.62094595 28.2959459,3.37837838 27.3648649,3.37837838 Z M27.3648649,0.675675676 C26.8060811,0.675675676 26.3513514,1.13040541 26.3513514,1.68918919 C26.3513514,2.24797297 26.8060811,2.7027027 27.3648649,2.7027027 C27.9236486,2.7027027 28.3783784,2.24797297 28.3783784,1.68918919 C28.3783784,1.13040541 27.9236486,0.675675676 27.3648649,0.675675676 Z" id="形状"></path>
                <path d="M23.9864865,8.78378418 C23.8431484,8.78335961 23.7156156,8.6927039 23.6681082,8.55746699 C23.6206007,8.42223009 23.6634184,8.27173185 23.775,8.18175676 L27.0263514,5.58040541 L27.0263514,3.04054054 C27.0263514,2.85395785 27.1776065,2.7027027 27.3641892,2.7027027 C27.5507719,2.7027027 27.7020271,2.85395785 27.7020271,3.04054054 L27.7020271,5.74324324 C27.7020862,5.84604648 27.655333,5.94328322 27.575,6.00743243 L24.1966216,8.71013514 C24.1370176,8.75791664 24.0628782,8.78390118 23.9864865,8.78378418 Z M19.9324324,35.8108108 C19.7458497,35.8108108 19.5945946,35.6595557 19.5945946,35.472973 L19.5945946,31.4189189 C19.5945946,31.2323362 19.7458497,31.0810811 19.9324324,31.0810811 C20.1190151,31.0810811 20.2702703,31.2323362 20.2702703,31.4189189 L20.2702703,35.472973 C20.2702703,35.6595557 20.1190151,35.8108108 19.9324324,35.8108108 Z" id="形状"></path>
                <path d="M19.9324324,38.5135135 C19.0013514,38.5135135 18.2432432,37.7560811 18.2432432,36.8243243 C18.2432432,35.8925676 19.0013514,35.1351351 19.9324324,35.1351351 C20.8635135,35.1351351 21.6216216,35.8925676 21.6216216,36.8243243 C21.6216216,37.7560811 20.8635135,38.5135135 19.9324324,38.5135135 Z M19.9324324,35.8108108 C19.3736486,35.8108108 18.9189189,36.2655405 18.9189189,36.8243243 C18.9189189,37.3831081 19.3736486,37.8378378 19.9324324,37.8378378 C20.4912162,37.8378378 20.9459459,37.3831081 20.9459459,36.8243243 C20.9459459,36.2655405 20.4912162,35.8108108 19.9324324,35.8108108 Z M27.3648649,39.8648649 C26.4337838,39.8648649 25.6756757,39.1074324 25.6756757,38.1756757 C25.6756757,37.2439189 26.4337838,36.4864865 27.3648649,36.4864865 C28.2959459,36.4864865 29.0540541,37.2439189 29.0540541,38.1756757 C29.0540541,39.1074324 28.2959459,39.8648649 27.3648649,39.8648649 Z M27.3648649,37.1621622 C26.8060811,37.1621622 26.3513514,37.6168919 26.3513514,38.1756757 C26.3513514,38.7344595 26.8060811,39.1891892 27.3648649,39.1891892 C27.9236486,39.1891892 28.3783784,38.7344595 28.3783784,38.1756757 C28.3783784,37.6168919 27.9236486,37.1621622 27.3648649,37.1621622 Z" id="形状"></path>
                <path d="M27.3648649,37.1621622 C27.1782822,37.1621622 27.027027,37.010907 27.027027,36.8243243 L27.027027,34.2837838 L23.7756757,31.6824324 C23.6424704,31.5624362 23.6259242,31.3593928 23.7379439,31.219413 C23.8499636,31.0794332 24.0516957,31.0510683 24.197973,31.1547297 L27.5763514,33.8574324 C27.6562731,33.921841 27.7027027,34.0189768 27.7027027,34.1216216 L27.7027027,36.8243243 C27.7027027,37.010907 27.5514476,37.1621622 27.3648649,37.1621622 L27.3648649,37.1621622 Z M12.5,39.8648649 C11.5689189,39.8648649 10.8108108,39.1074324 10.8108108,38.1756757 C10.8108108,37.2439189 11.5689189,36.4864865 12.5,36.4864865 C13.4310811,36.4864865 14.1891892,37.2439189 14.1891892,38.1756757 C14.1891892,39.1074324 13.4310811,39.8648649 12.5,39.8648649 Z M12.5,37.1621622 C11.9412162,37.1621622 11.4864865,37.6168919 11.4864865,38.1756757 C11.4864865,38.7344595 11.9412162,39.1891892 12.5,39.1891892 C13.0587838,39.1891892 13.5135135,38.7344595 13.5135135,38.1756757 C13.5135135,37.6168919 13.0587838,37.1621622 12.5,37.1621622 Z" id="形状"></path>
                <path d="M12.5,37.1621622 C12.3134173,37.1621622 12.1621621,37.010907 12.1621621,36.8243243 L12.1621621,34.1216216 C12.162103,34.0188184 12.2088562,33.9215816 12.2891892,33.8574324 L15.6675676,31.1547297 C15.8138449,31.0510683 16.015577,31.0794332 16.1275966,31.219413 C16.2396163,31.3593928 16.2230702,31.5624362 16.0898649,31.6824324 L12.8378378,34.2837838 L12.8378378,36.8243243 C12.8378378,37.010907 12.6865827,37.1621622 12.5,37.1621622 Z M35.472973,20.2702703 L31.4189189,20.2702703 C31.2323362,20.2702703 31.0810811,20.1190151 31.0810811,19.9324324 C31.0810811,19.7458497 31.2323362,19.5945946 31.4189189,19.5945946 L35.472973,19.5945946 C35.6595557,19.5945946 35.8108108,19.7458497 35.8108108,19.9324324 C35.8108108,20.1190151 35.6595557,20.2702703 35.472973,20.2702703 Z" id="形状"></path>
                <path d="M36.8243243,21.6216216 C35.8932432,21.6216216 35.1351351,20.8641892 35.1351351,19.9324324 C35.1351351,19.0006757 35.8932432,18.2432432 36.8243243,18.2432432 C37.7554054,18.2432432 38.5135135,19.0006757 38.5135135,19.9324324 C38.5135135,20.8641892 37.7554054,21.6216216 36.8243243,21.6216216 Z M36.8243243,18.9189189 C36.2655405,18.9189189 35.8108108,19.3736486 35.8108108,19.9324324 C35.8108108,20.4912162 36.2655405,20.9459459 36.8243243,20.9459459 C37.3831081,20.9459459 37.8378378,20.4912162 37.8378378,19.9324324 C37.8378378,19.3736486 37.3831081,18.9189189 36.8243243,18.9189189 Z M38.1756757,14.1891892 C37.2445946,14.1891892 36.4864865,13.4317568 36.4864865,12.5 C36.4864865,11.5682432 37.2445946,10.8108108 38.1756757,10.8108108 C39.1067568,10.8108108 39.8648649,11.5682432 39.8648649,12.5 C39.8648649,13.4317568 39.1067568,14.1891892 38.1756757,14.1891892 Z M38.1756757,11.4864865 C37.6168919,11.4864865 37.1621622,11.9412162 37.1621622,12.5 C37.1621622,13.0587838 37.6168919,13.5135135 38.1756757,13.5135135 C38.7344595,13.5135135 39.1891892,13.0587838 39.1891892,12.5 C39.1891892,11.9412162 38.7344595,11.4864865 38.1756757,11.4864865 Z" id="形状"></path>
                <path d="M31.4189189,16.2162172 C31.2894395,16.215498 31.1717126,16.1409835 31.115654,16.0242665 C31.0595953,15.9075495 31.0750267,15.7690796 31.1554054,15.6675676 L33.8581081,12.2891892 C33.9219828,12.2088825 34.0190101,12.1621104 34.1216216,12.1621621 L36.8243243,12.1621621 C37.010907,12.1621621 37.1621622,12.3134173 37.1621622,12.5 C37.1621622,12.6865827 37.010907,12.8378378 36.8243243,12.8378378 L34.2837838,12.8378378 L31.6824324,16.0891892 C31.6186858,16.169656 31.521576,16.2164679 31.4189189,16.2162172 L31.4189189,16.2162172 Z M38.1756757,29.0540541 C37.2445946,29.0540541 36.4864865,28.2966216 36.4864865,27.3648649 C36.4864865,26.4331081 37.2445946,25.6756757 38.1756757,25.6756757 C39.1067568,25.6756757 39.8648649,26.4331081 39.8648649,27.3648649 C39.8648649,28.2966216 39.1067568,29.0540541 38.1756757,29.0540541 Z M38.1756757,26.3513514 C37.6168919,26.3513514 37.1621622,26.8060811 37.1621622,27.3648649 C37.1621622,27.9236486 37.6168919,28.3783784 38.1756757,28.3783784 C38.7344595,28.3783784 39.1891892,27.9236486 39.1891892,27.3648649 C39.1891892,26.8060811 38.7344595,26.3513514 38.1756757,26.3513514 Z" id="形状"></path>
                <path d="M36.8243243,27.7027027 L34.1216216,27.7027027 C34.0188633,27.7025648 33.9217075,27.6558505 33.8574324,27.5756757 L31.1547297,24.1972973 C31.0510683,24.05102 31.0794332,23.8492879 31.219413,23.7372682 C31.3593928,23.6252486 31.5624362,23.6417947 31.6824324,23.775 L34.2837838,27.0263514 L36.8243243,27.0263514 C37.0110936,27.0263514 37.1625,27.1777578 37.1625,27.364527 C37.1625,27.5512963 37.0110936,27.7027027 36.8243243,27.7027027 L36.8243243,27.7027027 Z M8.44594595,20.2702703 L4.39189189,20.2702703 C4.20530921,20.2702703 4.05405405,20.1190151 4.05405405,19.9324324 C4.05405405,19.7458497 4.20530921,19.5945946 4.39189189,19.5945946 L8.44594595,19.5945946 C8.63252863,19.5945946 8.78378378,19.7458497 8.78378378,19.9324324 C8.78378378,20.1190151 8.63252863,20.2702703 8.44594595,20.2702703 Z" id="形状"></path>
                <path d="M3.04054054,21.6216216 C2.10945946,21.6216216 1.35135135,20.8641892 1.35135135,19.9324324 C1.35135135,19.0006757 2.10945946,18.2432432 3.04054054,18.2432432 C3.97162162,18.2432432 4.72972973,19.0006757 4.72972973,19.9324324 C4.72972973,20.8641892 3.97162162,21.6216216 3.04054054,21.6216216 Z M3.04054054,18.9189189 C2.48175676,18.9189189 2.02702703,19.3736486 2.02702703,19.9324324 C2.02702703,20.4912162 2.48175676,20.9459459 3.04054054,20.9459459 C3.59932432,20.9459459 4.05405405,20.4912162 4.05405405,19.9324324 C4.05405405,19.3736486 3.59932432,18.9189189 3.04054054,18.9189189 Z M1.68918919,29.0540541 C0.758108108,29.0540541 0,28.2966216 0,27.3648649 C0,26.4331081 0.758108108,25.6756757 1.68918919,25.6756757 C2.62027027,25.6756757 3.37837838,26.4331081 3.37837838,27.3648649 C3.37837838,28.2966216 2.62027027,29.0540541 1.68918919,29.0540541 Z M1.68918919,26.3513514 C1.13040541,26.3513514 0.675675676,26.8060811 0.675675676,27.3648649 C0.675675676,27.9236486 1.13040541,28.3783784 1.68918919,28.3783784 C2.24797297,28.3783784 2.7027027,27.9236486 2.7027027,27.3648649 C2.7027027,26.8060811 2.24797297,26.3513514 1.68918919,26.3513514 Z" id="形状"></path>
                <path d="M5.74324324,27.7027027 L3.04054054,27.7027027 C2.85395785,27.7027027 2.7027027,27.5514476 2.7027027,27.3648649 C2.7027027,27.1782822 2.85395785,27.027027 3.04054054,27.027027 L5.58108108,27.027027 L8.18243243,23.7756757 C8.30242865,23.6424704 8.50547209,23.6259242 8.64545186,23.7379439 C8.78543163,23.8499636 8.81379656,24.0516957 8.71013514,24.197973 L6.00743243,27.5763514 C5.94289998,27.6561164 5.84584382,27.7025346 5.74324324,27.7027027 Z" id="路径"></path>
                <path d="M1.68918919,14.1891892 C0.758108108,14.1891892 0,13.4317568 0,12.5 C0,11.5682432 0.758108108,10.8108108 1.68918919,10.8108108 C2.62027027,10.8108108 3.37837838,11.5682432 3.37837838,12.5 C3.37837838,13.4317568 2.62027027,14.1891892 1.68918919,14.1891892 Z M1.68918919,11.4864865 C1.13040541,11.4864865 0.675675676,11.9412162 0.675675676,12.5 C0.675675676,13.0587838 1.13040541,13.5135135 1.68918919,13.5135135 C2.24797297,13.5135135 2.7027027,13.0587838 2.7027027,12.5 C2.7027027,11.9412162 2.24797297,11.4864865 1.68918919,11.4864865 Z" id="形状"></path>
                <path d="M8.44594595,16.2162173 C8.34309751,16.2164744 8.24577875,16.1696817 8.18175676,16.0891892 L5.58108108,12.8378378 L3.04054054,12.8378378 C2.85395785,12.8378378 2.7027027,12.6865827 2.7027027,12.5 C2.7027027,12.3134173 2.85395785,12.1621622 3.04054054,12.1621622 L5.74324324,12.1621622 C5.84594595,12.1621622 5.94256757,12.2087838 6.00743243,12.2891892 L8.71013514,15.6675676 C8.79058758,15.7691752 8.80596517,15.9077989 8.74973741,16.0245686 C8.69350966,16.1413383 8.57554727,16.2157551 8.44594595,16.2162173 L8.44594595,16.2162173 Z" id="路径"></path>
                <path d="M23.6551908,25.9459459 C23.215065,25.9459459 22.7803067,25.7741289 22.4582634,25.4546567 C21.9751986,24.9714213 21.8356465,24.2465683 22.0879137,23.6237316 L16.8090882,18.3403584 C16.189155,18.5927147 15.461874,18.4531134 14.9788091,17.969878 C14.4903769,17.4812734 14.3481411,16.7242047 14.6299289,16.0933141 C14.6648169,16.0127748 14.7399604,15.9537127 14.8258386,15.9376049 C14.9117168,15.9214971 15.0029623,15.9483435 15.0646873,16.0127748 L15.6899879,16.6382962 L16.2052571,16.1228451 L15.5799565,15.4973238 C15.5182315,15.4355771 15.4887109,15.3442993 15.5048131,15.2583908 C15.5209152,15.1724823 15.5799565,15.0973123 15.6604673,15.062412 C16.293819,14.7805247 17.0479369,14.9228107 17.5363692,15.4114153 C18.0194341,15.8946506 18.1589861,16.6195037 17.9067189,17.2423403 L23.1909118,22.5230289 C23.810845,22.2706726 24.538126,22.410274 25.0211909,22.8935093 C25.5096231,23.3821139 25.6518589,24.1391827 25.3700711,24.7700733 C25.3351831,24.8506125 25.2600396,24.9096746 25.1741614,24.9257824 C25.0882832,24.9418903 24.9970377,24.9150439 24.9353127,24.8506125 L24.3073284,24.2250912 L23.7920592,24.7405422 L24.4173598,25.3660635 C24.4790848,25.4278103 24.5086054,25.5190881 24.4925032,25.6049966 C24.4764011,25.6909051 24.4173598,25.766075 24.336849,25.8009753 C24.1194698,25.8976224 23.8859885,25.9459459 23.6551908,25.9459459 L23.6551908,25.9459459 Z M16.8654458,17.7497375 C16.9352218,17.7497375 17.0023141,17.7765839 17.055988,17.827592 L22.6058666,23.3794293 C22.6917448,23.4653378 22.7078469,23.5942006 22.6514894,23.7015862 C22.4019059,24.1472366 22.479733,24.7136958 22.8420316,25.0761223 C23.0728293,25.3070014 23.3868214,25.422441 23.7034973,25.4117024 L23.2284835,24.936521 C23.1774933,24.8855128 23.1506564,24.8183968 23.1506564,24.7459115 C23.1506564,24.6734262 23.180177,24.6063102 23.2284835,24.555302 L24.1248372,23.658632 C24.2295013,23.553931 24.398574,23.553931 24.503238,23.658632 L24.9782518,24.1338134 C24.9916703,23.8197104 24.8735877,23.5029228 24.6427901,23.2720437 C24.2804914,22.9096172 23.7142321,22.8317626 23.2687389,23.0814342 C23.1640749,23.1404963 23.0325739,23.1217038 22.9466957,23.0357953 L17.3968171,17.4866427 C17.3109389,17.4007342 17.2948368,17.2718714 17.3511943,17.1644858 C17.6007778,16.7188354 17.5229507,16.1523762 17.1606521,15.7899496 C16.9298544,15.5590705 16.6158623,15.443631 16.2991864,15.4543695 L16.7742002,15.929551 C16.8251904,15.9805591 16.8520273,16.0476752 16.8520273,16.1201605 C16.8520273,16.1926458 16.8225067,16.2597618 16.7742002,16.31077 L15.8805302,17.20744 C15.82954,17.2584482 15.7624477,17.2852946 15.6899879,17.2852946 C15.6175282,17.2852946 15.5504359,17.2557635 15.4994457,17.20744 L15.0244319,16.7322586 C15.0110134,17.0463616 15.129096,17.3631492 15.3598936,17.5940283 C15.7221923,17.9564548 16.2884516,18.0343094 16.7339448,17.7846378 C16.7742002,17.760476 16.819823,17.7497375 16.8654458,17.7497375 Z" id="形状"></path>
                <path d="M15.8377707,25.7297297 C15.7659982,25.7297297 15.6995423,25.7002904 15.6490357,25.652117 L14.7797916,24.7769668 C14.7292851,24.7261171 14.7027027,24.6592096 14.7027027,24.5869495 C14.7027027,24.5146894 14.7319433,24.4477819 14.7797916,24.3969322 L18.267401,20.8856261 C18.3710723,20.7812504 18.5385413,20.7812504 18.6422126,20.8856261 C18.7458839,20.9900019 18.7458839,21.1586088 18.6422126,21.2629845 L15.3459965,24.5869495 L15.8377707,25.0820651 L19.1366451,21.7607763 C19.2403164,21.6564006 19.4077854,21.6564006 19.5114567,21.7607763 C19.615128,21.8651521 19.615128,22.033759 19.5114567,22.1381347 L16.0265056,25.652117 C15.9759991,25.7002904 15.9068849,25.7297297 15.8377707,25.7297297 L15.8377707,25.7297297 Z M21.5476677,19.9194817 C21.4785535,19.9194817 21.4120975,19.8927187 21.3589327,19.841869 C21.2552614,19.7374933 21.2552614,19.5688864 21.3589327,19.4645107 L23.8603354,16.9461121 C23.9480573,16.8577942 24.088944,16.8417364 24.1926153,16.9113202 C24.20059,16.9166728 24.4026162,17.0504878 24.6870477,17.3368519 C24.846542,17.4974299 25.0219858,17.7570311 25.1788219,18.0219848 C25.1442648,17.5750426 25.0512264,17.0531641 24.8332508,16.6062219 C24.4743886,15.8729156 23.4695743,14.8719793 23.0522308,14.4732106 L22.4142535,15.1155226 L23.3632448,16.0709619 C23.4669161,16.1753376 23.4669161,16.3439445 23.3632448,16.4483202 L20.861842,18.9667188 C20.7581707,19.0710945 20.5907017,19.0710945 20.4870304,18.9667188 C20.3833591,18.8623431 20.3833591,18.6937362 20.4870304,18.5893605 L22.7996981,16.2609792 L21.8507069,15.30554 C21.7470356,15.2011643 21.7470356,15.0325573 21.8507069,14.9281816 L22.8555212,13.9165401 C22.9565342,13.8148407 23.1160286,13.8121644 23.2223581,13.9058349 C23.2861559,13.9647135 24.8093267,15.3483608 25.3090756,16.3733838 C25.8779387,17.5348981 25.7078114,19.0443315 25.6998367,19.1085627 C25.6865455,19.2263199 25.5961654,19.3226668 25.4792029,19.3414009 C25.3622404,19.360135 25.2479361,19.2985801 25.1947713,19.191528 C25.0512264,18.8837535 24.6099588,18.0193085 24.3095778,17.7195629 C24.2165394,17.6258923 24.134134,17.5509559 24.0703363,17.4974299 L21.7364026,19.8391927 C21.6832378,19.8927187 21.6167819,19.9194817 21.5476677,19.9194817 Z" id="形状"></path>
            </g>
        </g>
    </g>
</svg>